<?xml version="1.0" encoding="utf-8"?>
<!-- Generator: Adobe Illustrator 16.0.0, SVG Export Plug-In . SVG Version: 6.00 Build 0)  -->
<!DOCTYPE svg PUBLIC "-//W3C//DTD SVG 1.1//EN" "http://www.w3.org/Graphics/SVG/1.1/DTD/svg11.dtd">
<svg version="1.1" id="Layer_1" xmlns="http://www.w3.org/2000/svg" xmlns:xlink="http://www.w3.org/1999/xlink" x="0px" y="0px"
	 width="78px" height="78px" viewBox="-94.5 607.5 78 78" enable-background="new -94.5 607.5 78 78" xml:space="preserve">
<g>
	<rect x="-94.5" y="633.913" fill="#FF4E00" width="17.531" height="24.675"/>
	<rect x="-34.062" y="633.913" fill="#FF4E00" width="17.562" height="24.675"/>
	<rect x="-67.876" y="667.618" fill="#FF4E00" width="24.674" height="17.874"/>
	<rect x="-67.876" y="607.508" fill="#FF4E00" width="24.674" height="17.211"/>
	<g>
		<g>
			<path fill="#FF4E00" d="M-66.66,639.941l-10.31-5.95c-2.075,3.618-3.26,7.806-3.26,12.274c0,4.516,1.208,8.75,3.322,12.393
				l10.106-5.834c-1.053-1.871-1.661-4.023-1.661-6.324C-68.454,644.105-67.798,641.859-66.66,639.941z"/>
			<path fill="#FF4E00" d="M-33.961,633.952l-10.427,6.021c1.131,1.918,1.778,4.148,1.778,6.527c0,2.262-0.585,4.383-1.599,6.224
				l10.224,5.903c2.004-3.471,3.197-7.472,3.299-11.744v-1.232C-30.787,641.4-31.965,637.407-33.961,633.952z"/>
			<path fill="#FF4E00" d="M-49.254,635.114l6.052-10.481c-3.26-1.871-6.995-3.018-10.973-3.229h-2.636
				c-4.032,0.211-7.798,1.389-11.097,3.299l6.013,10.411c1.872-1.053,4.024-1.661,6.325-1.661
				C-53.277,633.461-51.117,634.062-49.254,635.114z"/>
			<path fill="#FF4E00" d="M-62.066,657.706l-5.81,10.061c3.096,1.793,6.613,2.932,10.372,3.236h4.024
				c3.743-0.305,7.261-1.435,10.349-3.221l-5.849-10.131c-1.927,1.154-4.181,1.81-6.59,1.81
				C-57.941,659.461-60.164,658.821-62.066,657.706z"/>
			<path fill="#FFFFFF" d="M-44.466,639.973c-1.154-1.957-2.807-3.58-4.788-4.702c-1.863-1.054-4.023-1.653-6.316-1.653
				c-2.301,0-4.453,0.6-6.325,1.66c-1.965,1.107-3.611,2.723-4.765,4.664c-1.139,1.918-1.794,4.164-1.794,6.559
				c0,2.301,0.601,4.453,1.661,6.324c1.123,1.989,2.761,3.65,4.726,4.804c1.911,1.115,4.125,1.755,6.496,1.755
				c2.409,0,4.663-0.663,6.59-1.809c1.957-1.17,3.579-2.847,4.687-4.843c1.021-1.849,1.599-3.97,1.599-6.224
				C-42.688,644.113-43.335,641.883-44.466,639.973z"/>
		</g>
		<path fill="#FFFFFF" d="M-34.117,633.875c-2.191-3.807-5.357-6.973-9.163-9.156l-12.376,21.43l-12.329-21.359
			c-3.767,2.191-6.902,5.342-9.07,9.124l21.407,12.353l-21.336,12.314c2.168,3.735,5.287,6.854,9.031,9.022l12.368-21.423
			l12.376,21.438c3.759-2.176,6.894-5.311,9.069-9.069l-21.359-12.33L-34.117,633.875z"/>
		<path fill="#FFFFFF" d="M-30.834,646.188c0-0.202,0-0.412-0.008-0.615v1.232C-30.834,646.602-30.834,646.391-30.834,646.188z"/>
		<g>
			<path fill="#FF4E00" d="M-56.732,649.572v2.262H-58.9l3.252,3.244l3.244-3.244h-2.168v-2.309
				c-0.358,0.133-0.749,0.203-1.154,0.203C-56.069,649.729-56.413,649.674-56.732,649.572z"/>
			<path fill="#FF4E00" d="M-58.854,645.338h-2.199v-2.168l-3.252,3.252l3.244,3.244v-2.168h2.207
				c-0.117-0.343-0.187-0.709-0.187-1.092C-59.033,646.04-58.971,645.674-58.854,645.338z"/>
			<path fill="#FF4E00" d="M-54.564,643.303v-2.293h2.168l-3.252-3.244l-3.244,3.244h2.168v2.246
				c0.32-0.102,0.655-0.156,1.014-0.156C-55.313,643.1-54.923,643.17-54.564,643.303z"/>
			<path fill="#FF4E00" d="M-46.992,646.422l-3.244-3.244v2.168h-2.34c0.117,0.336,0.18,0.702,0.18,1.076
				c0,0.383-0.062,0.749-0.188,1.092h2.348v2.168L-46.992,646.422z"/>
		</g>
	</g>
</g>
</svg>
