<?xml version="1.0" encoding="utf-8"?>
<!-- Generator: Adobe Illustrator 16.0.0, SVG Export Plug-In . SVG Version: 6.00 Build 0)  -->
<!DOCTYPE svg PUBLIC "-//W3C//DTD SVG 1.1//EN" "http://www.w3.org/Graphics/SVG/1.1/DTD/svg11.dtd">
<svg version="1.1" id="Layer_1" xmlns="http://www.w3.org/2000/svg" xmlns:xlink="http://www.w3.org/1999/xlink" x="0px" y="0px"
	 width="78px" height="78px" viewBox="-94.5 607.5 78 78" enable-background="new -94.5 607.5 78 78" xml:space="preserve">
<g id="Your_Icon">
	<path fill="#088FFF" stroke="#088FFF" stroke-width="2.3796" stroke-miterlimit="3.8637" d="M-61.411,635.895
		c0.811-0.454,1.68-0.817,2.592-1.076v-8.703c-3.227,0.52-6.203,1.79-8.747,3.624L-61.411,635.895z M-67.181,643.18
		c0.259-0.91,0.622-1.782,1.076-2.592l-6.154-6.155c-1.835,2.544-3.104,5.521-3.625,8.747H-67.181L-67.181,643.18z M-66.106,652.412
		c-0.454-0.812-0.817-1.68-1.075-2.59h-8.704c0.52,3.227,1.79,6.2,3.623,8.744L-66.106,652.412z M-58.82,658.183
		c-0.912-0.26-1.782-0.623-2.594-1.076l-6.153,6.155c2.542,1.834,5.52,3.104,8.747,3.624V658.183L-58.82,658.183z M-49.586,657.106
		c-0.813,0.453-1.681,0.816-2.595,1.076v8.703c3.227-0.521,6.203-1.791,8.748-3.624L-49.586,657.106z M-43.818,649.82
		c-0.26,0.91-0.622,1.779-1.074,2.59l6.153,6.155c1.834-2.544,3.104-5.519,3.625-8.745H-43.818z M-44.894,640.588
		c0.455,0.811,0.816,1.682,1.076,2.593h8.704c-0.521-3.228-1.791-6.204-3.625-8.747L-44.894,640.588z M-52.181,634.818
		c0.914,0.259,1.781,0.622,2.593,1.076l6.155-6.154c-2.544-1.834-5.521-3.104-8.748-3.624V634.818z M-33.677,619.982
		c3.12-3.119,7.812,1.575,4.694,4.695l-5.016,5.015c2.983,3.811,4.976,8.438,5.589,13.487h7.091c2.21,0,3.318,1.717,3.318,3.32
		s-1.108,3.32-3.318,3.32h-7.091c-0.613,5.051-2.605,9.676-5.587,13.486l5.015,5.015c3.12,3.118-1.575,7.813-4.694,4.694
		l-5.016-5.017c-3.812,2.984-8.438,4.978-13.489,5.59v7.092c0,2.207-1.715,3.319-3.318,3.319c-1.604,0-3.32-1.112-3.32-3.319v-7.092
		c-5.05-0.612-9.677-2.604-13.488-5.59l-5.014,5.017c-3.12,3.119-7.814-1.576-4.694-4.694l5.014-5.013
		c-2.983-3.812-4.975-8.438-5.587-13.488h-7.091c-2.209,0-3.319-1.717-3.319-3.321c0-1.603,1.11-3.319,3.319-3.319h7.091
		c0.612-5.05,2.605-9.678,5.588-13.487l-5.014-5.015c-3.12-3.12,1.575-7.814,4.694-4.696l5.016,5.018
		c3.81-2.982,8.436-4.976,13.486-5.589v-7.091c0-2.209,1.716-3.319,3.32-3.319c1.603,0,3.318,1.11,3.318,3.319v7.091
		c5.051,0.613,9.676,2.606,13.488,5.588L-33.677,619.982z M-61.002,646.5c0,3.039,2.463,5.502,5.502,5.502
		c3.039,0,5.502-2.463,5.502-5.502s-2.463-5.503-5.502-5.503S-61.002,643.461-61.002,646.5z"/>
</g>
</svg>
