<?xml version="1.0" encoding="utf-8"?>
<!-- Generator: Adobe Illustrator 17.1.0, SVG Export Plug-In . SVG Version: 6.00 Build 0)  -->
<!DOCTYPE svg PUBLIC "-//W3C//DTD SVG 1.1//EN" "http://www.w3.org/Graphics/SVG/1.1/DTD/svg11.dtd">
<svg version="1.1" id="Layer_1" xmlns="http://www.w3.org/2000/svg" xmlns:xlink="http://www.w3.org/1999/xlink" x="0px" y="0px"
	 viewBox="14 14 100 100" enable-background="new 14 14 100 100" xml:space="preserve">
<path d="M30.4,39.5c0,4.9,3.9,9,8.8,9.2c3.2,0,6.1,1.3,8.3,3.4L92,96.7c1.3,1.3,3.4,1.3,4.7,0c0.7-0.7,0.9-1.5,0.9-2.3
	c0-0.8-0.3-1.7-0.9-2.3L52.1,47.4c-2.1-2.1-3.4-5.1-3.4-8.3c-0.2-4.9-4.2-8.8-9.2-8.8c-0.6,0-1.1,0.1-1.7,0.1l3.5,3.5v7.3H34
	l-3.5-3.5C30.4,38.4,30.4,38.9,30.4,39.5z M92.5,94.3c0-1,0.8-1.8,1.8-1.8s1.8,0.8,1.8,1.8c0,1-0.8,1.8-1.8,1.8S92.5,95.4,92.5,94.3
	z"/>
</svg>
