<?xml version="1.0" encoding="utf-8"?>
<!-- Generator: Adobe Illustrator 17.1.0, SVG Export Plug-In . SVG Version: 6.00 Build 0)  -->
<!DOCTYPE svg PUBLIC "-//W3C//DTD SVG 1.1//EN" "http://www.w3.org/Graphics/SVG/1.1/DTD/svg11.dtd">
<svg version="1.1" id="Layer_1" xmlns="http://www.w3.org/2000/svg" xmlns:xlink="http://www.w3.org/1999/xlink" x="0px" y="0px"
	 viewBox="0 0 100 100" enable-background="new 0 0 100 100" xml:space="preserve">
<g id="Captions">
</g>
<g id="Your_Icon" display="none">
	<path display="inline" d="M95,25.6v19.5c0,1.4-0.7,2.6-1.6,2.6h-0.5c-0.9,0-1.6-1.2-1.6-2.6v-5.7H90v3.9c0,1-0.8,1.8-1.8,1.8h-0.4
		c-1,0-1.8-0.8-1.8-1.8v-3.7h-2.5v0.6c0,0.6,0,1.2,0,1.7v5.6c0,0.5-0.9,1-2.2,1.3l0,26.3h10.5c0.8,0,1.5,0.7,1.5,1.5V79
		c0,0.8-0.7,1.5-1.5,1.5H7.3c-0.8,0-1.5-0.7-1.5-1.5v-2.3c0-0.8,0.7-1.5,1.5-1.5h46.3c0,0,0,0,6-18.1c3.9-12.9,0.1-17.4-24-16.8
		c-13.8,0-17.4,10-17.4,12.8v4c0,1-0.8,1.8-1.8,1.8h-1.7v5.1h-0.3v2h-0.6v-2h-0.3h-2.6v-1.2h2.6v-3.9h-0.1h-1.8
		c-1,0-1.8-0.8-1.8-1.8V26.8c0-1,0.8-1.8,1.8-1.8h4.7c1,0,26.8,9.5,45.5-0.5c0,0-0.1-0.9,0.7-0.9h6.9h4.8h1.1c0,0,0,0,0,0
		c0.1,0,0.1,0,0.2,0c5.6,0,7.7,0,7.7,1.8v5.8H85h1v-3.8c0-1,0.8-1.8,1.8-1.8h0.4c1,0,1.8,0.8,1.8,1.8v3.8h1.3v-5.7
		c0-1.4,0.7-2.6,1.6-2.6h0.5C94.3,23,95,24.2,95,25.6z"/>
</g>
<g id="Layer_9" display="none">
	<path display="inline" d="M88,76v-1.3c-0.2-10.1-4.2-13.5-4.2-13.5H59.4c0,0-1-0.8-1.2-3.4V43.2c0,0,0.2-14.2-12.5-11.4
		c0,0-8.1,1.5-12,1.2c-0.2-1.2-0.8-2.2-1.7-2.8l0-1.1c0-0.6-0.6-0.6-0.6-0.6l0-1.4c0.9,0,1.6-0.7,1.6-1.6c0-0.9-0.7-1.6-1.6-1.6H31
		h-0.6c-0.1,0-0.3,0-0.3-0.1c0.2-0.1,0.4-0.2,0.6-0.4c3.5-0.4,16.7-2.4,16.7-2.4c1.4-0.2,2.4-1.5,2.2-2.8c-0.2-1.4-1.5-2.4-2.8-2.2
		c-0.1,0-0.2,0-0.2,0v0L30.8,20c-0.5-0.5-1.1-0.8-1.8-0.8c-1.4,0-2.5,1.1-2.5,2.5c0,0.1,0,0.2,0,0.3v6.5h-1.4
		c-0.7,0-0.5,0.6-0.5,0.6v1c-1.1,0.8-1.8,2-1.8,3.5v16.6c0,2.1,1.6,3.9,3.6,4.2v1.9h-1v-0.4c0-0.2-0.2-0.4-0.5-0.4
		c-0.3,0-0.5,0.2-0.5,0.4v2c0,0.2,0.2,0.4,0.5,0.4c0.3,0,0.5-0.2,0.5-0.4v-0.4h1V59l0.7,0.8h0.3v1.4H16.2c0,0-4,3.4-4.2,13.5V76
		l-2.3,2.3v5.7h80.7v-5.7L88,76z M27.9,21.7c0-0.6,0.5-1,1-1c0.6,0,1,0.5,1,1s-0.5,1-1,1C28.4,22.7,27.9,22.2,27.9,21.7z M45,57.9
		c0,0-0.3,3.3-2,3.3H29v-1.4h0.3L30,59v-1.5h1v0.4c0,0.2,0.2,0.4,0.5,0.4s0.5-0.2,0.5-0.4v-2c0-0.2-0.2-0.4-0.5-0.4S31,55.6,31,55.9
		v0.4h-1v-1.9c2.2-0.2,3.9-2,3.9-4.2v-6.8h9.4c0,0,2.1,0,2.1,2.9L45,57.9z"/>
</g>
<g id="Layer_11" display="none">
	<path display="inline" d="M92.9,58.1v2.4c0,0.2-0.1,0.3-0.2,0.4c-0.1,0-7.5,4-17.1,5c-3.3,0.4-6.7,0.6-10,0.6c-1.6,0-3.2,0-4.8-0.1
		c-4.1-0.2-7.9-0.8-10.9-1.7C44,63,40.1,62.4,39,62.2c0,0-3.8-0.7-8.6-0.7l-1.4,4c-0.1,0.2-0.2,0.3-0.4,0.3l-20.4,0
		c-0.2,0-0.4-0.2-0.4-0.4v-8.2c0-0.2,0.1-0.4,0.3-0.4c0.2-0.1,0.4,0,0.5,0.2l0,0c0,0.1,1,1.6,4,1.8c2.7,0.2,12-0.1,12-0.1
		c2.2,0,9.5,0,14.7,0.9c1.1,0.2,5.2,0.8,11.3,2.6c3.9,1.1,9.1,1.7,14.8,1.7c3.2,0,6.5-0.2,9.7-0.5c8.4-0.9,15.9-4.8,16.8-5.2
		l0.2-0.1c0.1-0.1,0.3-0.1,0.4,0C92.8,57.9,92.9,58,92.9,58.1z M13.9,57.8c0,0,4.4,0.1,11.5-0.1c0,0,2.9-0.1,6.9,0.2
		c2.2,0.1,4.6,0.3,6.7,0.6c3.1,0.4,6.3,1,9.2,1.9c0.8,0.2,1.6,0.4,2.5,0.7c3.9,1.1,9,1.7,14.8,1.7c3.1-0.1,6.3-0.3,9.4-0.7
		c9.3-1,15.8-4.5,15.8-4.5c1-0.5,0.9-1.6,0.9-1.6c-0.1-2.7-1.9-4-1.9-4c-0.8-1-4.8-1.2-6.6-1C77.6,51.7,71,50,71,50
		c-3-0.6-8.3-3.9-11.9-6.3l-2.8,2.8c-0.1,0.1-0.2,0.1-0.3,0.1c-0.1,0-0.2,0-0.3-0.1c-0.2-0.2-0.2-0.4,0-0.6l2.7-2.7
		c-1.8-1.2-3.1-2.2-3.1-2.2c0,0,0,0,0,0l-3.2,3.2c-0.1,0.1-0.2,0.1-0.3,0.1s-0.2,0-0.3-0.1c-0.2-0.2-0.2-0.4,0-0.6l3.1-3.1
		c-1.1-0.8-2.1-1.4-3.1-2.1L48,41.9C47.9,42,47.8,42,47.7,42s-0.2,0-0.3-0.1c-0.2-0.2-0.2-0.4,0-0.6l3.3-3.3c-6.4-3.7-11-4.3-11-4.3
		c-0.9-0.3-1.1,0.4-1.1,0.4l0,1.1c-2,0.8-7.1,1.5-12.1,2c-6.6,0.6-13.2-1.2-15.6-1.6c-0.7-0.1-1,0.5-1,0.5l-0.6,1.5
		c0,0-3.1,8.1-1.9,13.7c0,0,0,0.8,0.3,2C7.9,54.5,8.7,58,13.9,57.8z"/>
</g>
<g id="Layer_12" display="none">
	<path display="inline" d="M92.6,62.6v2.3c0,0.2-0.1,0.3-0.2,0.4c-0.1,0-7.5,3.9-17,5c-3.3,0.4-6.7,0.6-10,0.6c-1.6,0-3.2,0-4.7-0.1
		c-4.1-0.2-7.9-0.8-10.9-1.7c-5.8-1.6-9.7-2.3-10.7-2.4c0,0-3.8-0.7-8.6-0.7l-1.3,4c-0.1,0.2-0.2,0.3-0.4,0.3l-20.2,0
		c-0.2,0-0.4-0.2-0.4-0.4v-8.2c0-0.2,0.1-0.4,0.3-0.4c0.2-0.1,0.4,0,0.5,0.2l0,0c0,0.1,1,1.6,3.9,1.8c2.7,0.2,11.9-0.1,11.9-0.1
		c2.2,0,9.5,0,14.7,0.9c1.1,0.2,5.2,0.8,11.2,2.5c3.9,1.1,9,1.7,14.7,1.7c3.2,0,6.4-0.2,9.7-0.5c8.4-0.9,15.8-4.8,16.7-5.2l0.2-0.1
		c0.1-0.1,0.3-0.1,0.4,0C92.5,62.3,92.6,62.4,92.6,62.6z M14.1,62.2c0,0,4.4,0.1,11.4-0.1c0,0,2.9-0.1,6.9,0.2
		c2.2,0.1,4.6,0.3,6.6,0.6c3.1,0.4,6.2,1,9.1,1.9c0.8,0.2,1.6,0.4,2.5,0.7c3.9,1.1,9,1.7,14.7,1.7c3.1-0.1,6.3-0.3,9.3-0.7
		c9.2-1,15.7-4.5,15.7-4.5c1-0.5,0.9-1.6,0.9-1.6c-0.1-2.6-1.9-4-1.9-4c-0.8-1-4.8-1.2-6.6-1c-5.3,0.7-11.8-1.1-11.8-1.1
		c-3-0.6-8.3-3.9-11.8-6.3l0,0c0,0,0,0-0.1-0.1c-0.6-0.4-1.4-1.1-2.2-1.9l-3,1.7c-0.1,0.1-0.2,0.1-0.3,0c-0.1,0-0.2-0.1-0.3-0.2
		c-0.1-0.2,0-0.5,0.2-0.6l2.8-1.6c-0.8-0.8-1.7-1.8-2.5-2.8l-3.3,1.9c-0.1,0.1-0.2,0.1-0.3,0c-0.1,0-0.2-0.1-0.3-0.2
		c-0.1-0.2,0-0.5,0.2-0.6L53,42c-0.8-0.9-1.6-1.9-2.3-2.8L47,41.3c-0.1,0.1-0.2,0.1-0.3,0c-0.1,0-0.2-0.1-0.3-0.2
		c-0.1-0.2,0-0.5,0.2-0.6l3.5-2c-3.3-4-6.1-7.9-6.6-8.7c-0.8-1.4-5.8-0.3-6.7-0.1v0c0,0-6.2,1.9-11.1,1.9c-6.7,0-11.9-0.1-14.3-0.4
		c-0.7-0.1-1.2,0.5-1.2,0.5l-0.4,1.5c0,0-3.3,16.9-2.1,22.5c0,0,0,0.8,0.3,2C8.2,58.9,9,62.4,14.1,62.2z"/>
</g>
<g id="Your_Icon_copy" display="none">
	<path display="inline" d="M96.1,56.7c-0.4-2.8-2.4-4.1-2.4-4.1c-0.9-1-5.3-0.9-7.2-0.5c-5.7,1.2-12.8-0.2-12.8-0.2
		c-5.3-0.7-17.1-10.2-17.1-10.2c-9.2-6.7-13.3-8.1-13.3-8.1c-1-0.3-1.1,0.5-1.1,0.5L40,52.5l0.3,0.1c0.9,0.2,1.7,0.8,2.2,1.6
		c0,0,0,0,0.1,0.1c0,0,0,0.1,0.1,0.1c0.4,0.6,0.6,1.3,0.6,2c0,0.1,0,0.2,0,0.3c0,2.1-1.4,3.8-3.2,4.2l-0.5,2.3c0,0.1,0,0.2,0.1,0.4
		c0.7,0,5.1,0.4,12,1.8c7.5,1.5,17.7,1,27-0.7c9.8-1.9,16.6-6.1,16.6-6.1C96.4,57.9,96.1,56.7,96.1,56.7z M44,44.1
		c-0.5,0-0.9-0.4-0.9-0.9c0-0.5,0.4-0.9,0.9-0.9c0.5,0,0.9,0.4,0.9,0.9C44.8,43.7,44.5,44.1,44,44.1z M45.7,58.2
		c-0.5,0-0.9-0.4-0.9-0.9c0-0.5,0.4-0.9,0.9-0.9c0.5,0,0.9,0.4,0.9,0.9C46.6,57.8,46.2,58.2,45.7,58.2z M66.5,63.6
		c-0.5,0-0.9-0.4-0.9-0.9c0-0.5,0.4-0.9,0.9-0.9c0.5,0,0.9,0.4,0.9,0.9C67.4,63.2,67,63.6,66.5,63.6z M36.7,53.5
		c-0.2,0-0.4,0-0.6,0.1l-0.1-0.5l-7.4-10.4l-2.1-2.5L24,40.9c-5.8,2-14.2,2.2-16.8,2.1c-0.8,0-1,0.7-1,0.7l-0.5,1.6
		c0,0-2.2,9.1-0.2,14.9c0,0,0.2,0.8,0.6,2.1c0.4,1.3,1.8,4.9,7.2,4c0,0,4.7-0.5,12.2-1.7c0,0,6.5-0.9,11.2-1l0.6-3.5l0.2,0v0
		c1.5-0.4,2.6-1.8,2.5-3.4C40.1,54.9,38.6,53.4,36.7,53.5z M25.1,44.5c-0.5,0-0.9-0.4-0.9-0.8c0-0.5,0.4-0.9,0.8-0.9
		c0.5,0,0.9,0.4,0.9,0.8C25.9,44,25.5,44.5,25.1,44.5z M33.3,58.3c-0.5,0-0.9-0.4-0.9-0.8c0-0.5,0.4-0.9,0.8-0.9
		c0.5,0,0.9,0.4,0.9,0.8C34.1,57.9,33.8,58.3,33.3,58.3z"/>
</g>
<g id="Layer_20" display="none">
	<path display="inline" d="M94.5,46.5c-1.3-1.1-4.8-4-10.3-1.5c-5.1,2.3-9,3.7-9,3.7s-6.2,2.9-14.5-2.7L44.4,33.6l-1.9-1.4
		c-2.5-2.1-2.3,1.1-2.3,1.1c0.2,7.5-0.9,13.6-1.2,15.5c2.4,0.5,4.1,2.6,4.1,5.1c0,1.7-0.9,3.1-2.2,4l-0.8,5c2.5,0.2,4.4,0.6,6,1.4
		c7.6,3.8,12.4,3.9,12.4,3.9s5,1.8,16.9-6.7l19-14.3C94.4,47.4,94.9,46.9,94.5,46.5z M49,58.8c-0.5,0-0.9-0.4-0.9-0.9
		s0.4-0.9,0.9-0.9c0.5,0,0.8,0.4,0.8,0.9S49.5,58.8,49,58.8z M40.7,53.7c-0.2-1.9-1.9-3.2-3.7-3c-0.2,0-0.4,0.1-0.6,0.1l-0.2-0.5
		l-8.1-9.7l-2.2-2.3c0,0-16.1,3.5-18.8,4.1c-0.8,0.2-0.9,0.8-0.9,0.8l-0.3,1.7c0,0-1.5,9.1,0.9,14.8c0,0,0.2,0.8,0.7,2
		c0.5,1.2,2.1,4.7,7.4,3.4c0,0,2.9-0.5,7.7-1.6c5.1-0.8,11.5-1.6,15-0.7l0.9-5.5h0l0,0l0,0C39.9,56.8,40.9,55.3,40.7,53.7z
		 M15.7,45.7c-0.5,0-0.9-0.4-0.9-0.9s0.4-0.9,0.9-0.9s0.9,0.4,0.9,0.9C16.5,45.3,16.2,45.7,15.7,45.7z M31.3,55.7
		c-0.5,0-0.9-0.4-0.9-0.9c0-0.5,0.4-0.9,0.9-0.9c0.5,0,0.8,0.4,0.8,0.9C32.2,55.3,31.8,55.7,31.3,55.7z"/>
</g>
<g id="Layer_20_copy" display="none">
	<path display="inline" d="M94.5,46.5c-1.3-1.1-4.8-4-10.3-1.5c-5.1,2.3-9,3.7-9,3.7s-6.2,2.9-14.5-2.7L44.4,33.6l-1.9-1.4
		c-2.5-2.1-2.3,1.1-2.3,1.1c0.2,7.5-0.9,13.6-1.2,15.5c2.4,0.5,4.1,2.6,4.1,5.1c0,1.7-0.9,3.1-2.2,4l-0.8,5c2.5,0.2,4.4,0.6,6,1.4
		c7.6,3.8,12.4,3.9,12.4,3.9s5,1.8,16.9-6.7l19-14.3C94.4,47.4,94.9,46.9,94.5,46.5z M40.7,53.7c-0.2-1.9-1.9-3.2-3.7-3
		c-0.2,0-0.4,0.1-0.6,0.1l-0.2-0.5l-8.1-9.7l-2.2-2.3c0,0-16.1,3.5-18.8,4.1c-0.8,0.2-0.9,0.8-0.9,0.8l-0.3,1.7
		c0,0-1.5,9.1,0.9,14.8c0,0,0.2,0.8,0.7,2c0.5,1.2,2.1,4.7,7.4,3.4c0,0,2.9-0.5,7.7-1.6c5.1-0.8,11.5-1.6,15-0.7l0.9-5.5h0l0,0l0,0
		C39.9,56.8,40.9,55.3,40.7,53.7z"/>
</g>
<g id="Your_Icon_copy_2" display="none">
	<path display="inline" d="M95.3,58.5c0,0-6.8,4.3-16.6,6.1c-9.3,1.8-19.6,2.2-27,0.7c-6.9-1.4-11.3-1.7-12-1.8c0-0.1,0-0.2-0.1-0.4
		l0.5-2.3c1.8-0.4,3.2-2.1,3.2-4.2c0-0.1,0-0.2,0-0.3c0-0.7-0.3-1.4-0.6-2c0,0,0-0.1-0.1-0.1c0,0,0,0-0.1-0.1
		c-0.5-0.8-1.3-1.4-2.2-1.6L40,52.5l2.2-18.4c0,0,0.1-0.8,1.1-0.5c0,0,4.1,1.3,13.3,8.1c0,0,11.8,9.6,17.1,10.2
		c0,0,7.2,1.4,12.8,0.2c1.9-0.4,6.3-0.5,7.2,0.5c0,0,2,1.3,2.4,4.1C96.1,56.7,96.4,57.9,95.3,58.5z M36.7,53.5c-0.2,0-0.4,0-0.6,0.1
		l-0.1-0.5l-7.4-10.4l-2.1-2.5L24,40.9c-5.8,2-14.2,2.2-16.8,2.1c-0.8,0-1,0.7-1,0.7l-0.5,1.6c0,0-2.2,9.1-0.2,14.9
		c0,0,0.2,0.8,0.6,2.1c0.4,1.3,1.8,4.9,7.2,4c0,0,4.7-0.5,12.2-1.7c0,0,6.5-0.9,11.2-1l0.8-3.5l0.4,0v0c1-0.4,2.4-1.8,2.4-3.4
		C40.3,54.9,38.6,53.4,36.7,53.5z"/>
</g>
<g id="Layer_5" display="none">
	<path display="inline" d="M85.6,55.8c-0.9-7.2-8.4-6.5-8.4-6.5s-3.6,0-7.4,2.5c-3.8,2.5-9.8,7.8-16.4,3.1c0,0-1.2-0.8-0.9-2.8
		c0.3-1.7,5.1-5.8,14.2-3.7c0,0,9.3,2.9,13.6-0.8l10.3-11.1c0,0,1.6-1.5,2.7-1.5c0.2,0,0.3,0,0.5,0.1c-0.1,0-0.1-0.1-0.1-0.1
		s0.8,0.5,1-0.3c0.2-0.8-1.6-2.6-4.8,0.3l-8.9,9c0,0-3,4.1-8.2,3c-4.9-1-14.3-5.2-21.5,2.6l0-0.2l-31.5-6.4c0,0-10.1-1.8-14.5,1.4
		l38.1,8.5L6,58.8c4.1,3.5,14.3,2.7,14.3,2.7l30.5-4.9c0.4,0.4,0.8,0.7,0.8,0.7c1.3,1.7,6.7,3.2,6.7,3.2c7.2,9.8,18.9,5.2,18.9,5.2
		S86.5,63.1,85.6,55.8z M47,54.2c-0.6-0.5-0.7-1.4-0.2-2.1c0.5-0.6,1.4-0.7,2.1-0.2c0.6,0.5,0.7,1.4,0.2,2.1
		C48.5,54.7,47.6,54.7,47,54.2z M78.8,62.8C68.6,67.1,63,62.3,63,62.3c-3.3-2.2-2.8-3.2-0.9-3.6c1.9-0.3,5.1-1.6,7.6-3.7
		c2.5-2,3.9-2.5,3.9-2.5c7.1-3.2,9.2,2.1,9.2,2.1C84.7,59.5,78.8,62.8,78.8,62.8z"/>
</g>
<g id="Layer_13" display="none">
	<path display="inline" d="M85.3,56.4c-0.6-7-7.8-6.6-7.8-6.6s-3.4-0.2-7.1,2.1c-3.7,2.2-9.7,7.1-15.8,2.3c0,0-1-1.1-0.7-2.7
		c0.2-1.6,5.1-5.3,13.7-3c0,0,8.7,3.1,13-0.3l11.6-11.2c0,0,1.6-1.3,2.6-1.3c0.2,0,0.3,0,0.5,0.1c-0.1,0-0.1-0.1-0.1-0.1
		s0.8,0.5,1-0.3c0.2-0.8-1.4-2.6-4.6,0.1l-10.2,9.2c0,0-3,3.8-7.9,2.5c-4.6-1.2-13.2-5.4-20.4,1.4l0-0.2l-36.6-1.3
		c0,0-9.8,0.1-13.4,3.8l30,1.4L3.5,52.9c3.4,3.8,13.2,4.3,13.2,4.3l36.4-0.3c1.7,1.5,5.8,2.9,5.8,2.9c6.5,9.6,17.8,5.7,17.8,5.7
		S85.9,63.4,85.3,56.4z M49.4,53.8c-0.6-0.5-0.7-1.5-0.2-2.1c0.5-0.6,1.5-0.7,2.1-0.2c0.6,0.5,0.7,1.5,0.2,2.1S50,54.4,49.4,53.8z
		 M78.5,62.8c-9.9,3.7-15.6-1.5-15.6-1.5c-1.6-0.9-2-2.8-0.2-3c1.9-0.3,4.9-1.4,7.4-3.2c2.5-1.8,3.9-2.3,3.9-2.3
		c6.9-2.8,8.7,2.3,8.7,2.3C84.3,59.9,78.5,62.8,78.5,62.8z"/>
</g>
<g id="Layer_6" display="none">
	<path display="inline" d="M76,42v13.9c0,0-2.6-1.5-6.2-1.7v-2.4h-1.3v2.4c-1.3,0.1-2.6,0.4-4,1v-4h-1.3v4.6c-1.7,0.8-3.1,1-4,0.9
		c0.1-0.3,0.1-0.5,0.1-0.8V44c0-0.6-0.2-1.2-0.6-1.7c1.4,0.1,3.1,0,5-0.7C68.6,39.7,75.1,40.7,76,42z M58,43.4
		c0.1,0.2,0.1,0.4,0.1,0.7V56c0,0.2-0.1,0.4-0.1,0.6c-0.5,1.2-2.3,2.1-4.8,2.7v-3.2h-1.3v3.5c-1.5,0.3-3.1,0.5-4.7,0.7v-5.3h-1.3
		v5.4c-2,0.2-4,0.3-5.7,0.3v-3.5H39v3.5c-1.6,0-3.6-0.1-5.7-0.2v-5.5H32v5.4c-1.9-0.2-3.8-0.4-5.5-0.8v-3.5h-1.3v3.2
		c-2.9-0.7-5-1.8-5-3.3V44c0-3.7,12.4-4.7,18.9-4.7c4.9,0,13.2,0.6,16.9,2.4c0,0,0,0,0,0c0,0,0,0,0.1,0c0.3,0.1,0.5,0.3,0.8,0.4
		c0,0,0,0,0,0c0.2,0.2,0.4,0.3,0.6,0.5c0,0,0.1,0.1,0.1,0.1C57.8,43.1,57.9,43.2,58,43.4z M34.3,44c0,0.4,2.2,0.7,4.9,0.7
		S44,44.4,44,44s-2.2-0.7-4.9-0.7S34.3,43.6,34.3,44z M56.1,46.2l-0.4-0.8c-2.7,1.4-9.3,2.4-16.6,2.4c-7.2,0-13.7-0.9-16.5-2.3
		l-0.4,0.8c2.9,1.5,9.5,2.4,16.9,2.4C46.7,48.7,53.3,47.7,56.1,46.2z M77.3,42.5v13.9l2.5,1.7V44.2L77.3,42.5z"/>
</g>
<g id="Layer_7" display="none">
	<path display="inline" d="M38,67.7l23.1-20.1V58L44,72.9h-4.5c-0.8,0-1.5-0.7-1.5-1.5V67.7z M61.1,28.8c0-0.8-0.7-1.5-1.5-1.5h-1.5
		L38,44.8v9.6l23.1-20.1V28.8z M59.6,72.9c0.8,0,1.5-0.7,1.5-1.5v-2.3l-4.3,3.8L59.6,72.9L59.6,72.9z M45.3,76.2h7.9v-3.2h2l6-5.3
		v-8.2L45.3,73.3V76.2z M39.5,27.3c-0.8,0-1.5,0.7-1.5,1.5v3.1l5.3-4.6C43.2,27.3,39.5,27.3,39.5,27.3z M53.1,27.3v-3.5h-7.9v3.5H45
		l-7,6.1v9.9l18.4-16L53.1,27.3L53.1,27.3z M73.5,34c-0.3,0.3-0.7,0.6-1,0.8l-0.9,0.9l-10.4,8.4v2L38,66.2v-3.4L22.8,75.2L38,60.5
		v-4.6l23.1-20.1v2.4l6.3-6l2.4-2.1c0,0,0.1-0.1,0.1-0.1c0.1,0,0.1-0.1,0.2-0.1l1.3-1.1l0.7-0.5c0,0,3.1-2.6,4.7-1
		c0,0,0.1,0.1,0.1,0.2c0,0,0.1,0,0.1,0.1C77.9,28.5,76.4,31.5,73.5,34z M75.4,28.7c-0.4-0.5-1.9,0.1-3.3,1.3
		c-1.4,1.2-2.2,2.6-1.7,3.1c0.4,0.5,1.9-0.1,3.3-1.3C75,30.6,75.8,29.2,75.4,28.7z"/>
</g>
<g id="Layer_8" display="none">
	<g display="inline">
		<path d="M93.9,44.5c-3.9-6.1-12.6-6.9-12.6-6.9c-9.4-0.7-13.1,5.8-13.1,5.8h-5.1c0,0-2.8,0.3-8.3-2.2C48.1,38.4,37.1,30,21,28.5
			c0,0-5.5-0.9-14.6,0.9c0,0-2.1,1.2,0.1,1.6c14.3-1.5,22.9,1.6,27.3,3.1c4.5,1.5,12.6,6.9,12.6,6.9c4.2,2.9,9.9,4.9,9.9,4.9
			l5.6,2.3l0.3,0.1c-1,1.1-3.8,2.4-3.8,2.4c-4.9,2-18.8,10.8-18.8,10.8l-4.1,2.1c-9,4.4-14.1,5-14.1,5c-2.4,0.9-12.8,0.6-12.8,0.6
			c-2,1.1,0,2.1,0,2.1c8.2,0.7,13.2,0,13.2,0C32,70.3,48.8,60.9,48.8,60.9s6.9-4.4,12.3-6.1c3.8-1.2,5.3-2.5,5.9-3.2h6.2L72,59.2
			l0.3,0.4c0,0,7.9,0,8.2,0c0.2,0,0.2-0.3,0.2-0.3l-1.2-8l1.4,0c0,0,5.3,0,10.5,5.3c0,0,0.9,1.1,1.6,0.6c0.9-0.6-2.8-8.1-12.1-9.6
			L74.8,47l-1.7-1.4c0,0,1.2-0.9,1.5-1.1c2.3-1.6,5.6-1.8,5.6-1.8s5.8-0.8,10.1,1.6l2.9,1.8C95.4,47.4,93.9,44.5,93.9,44.5z
			 M68.3,43.3C68.4,43.3,68.8,43.1,68.3,43.3L68.3,43.3z M68.9,49.1c-0.9,0-1.6-0.7-1.6-1.6S68,46,68.9,46c0.9,0,1.6,0.7,1.6,1.6
			S69.8,49.1,68.9,49.1z"/>
	</g>
</g>
<g id="Layer_22" display="none">
	<path display="inline" d="M5.9,42.6c0,0.1,0.2,0.2,0.3,0.2c1.5-0.6,3.9-0.7,5.6-0.7c0.8,0,1.4,0,1.4,0l53.9,2.3c0.1,0,3,0.4,4,2.3
		c0.8,1.7,3.6,2.4,3.6,2.4c0,0,0.4,0.1,0.9,0.4l0.5,0.2l-0.5,0.2c-0.5,0.3-0.9,0.4-0.9,0.4c0,0-2.8,0.8-3.6,2.5
		c-0.9,1.9-3.8,2.3-3.9,2.3l-53.7,2.3l0,0c-0.5-0.2-1.1-0.3-1.6-0.3l-0.1,0c-0.8,0-1.4,0.2-1.7,0.6c-0.3,0.3-0.4,0.8-0.4,1.4
		c0,1.3,0.7,1.8,2,1.8l0.1,0c0.5,0,1-0.1,1.5-0.3l0.1,0l59.7-1c0,0,1.3-0.3,1.8-1.5c0.5-1.4,2.5-3.4,4.8-3.4h0.1l0.7-0.1l0.1,0.3
		c0,0.1,0,0.1,0,0.2l0.2,0.7c1.7,4.3,6.4,4.5,7.3,4.5c0.1,0,0.1,0,0.1,0c5.3,0,5.9-6.9,6-8.3l-2.7,0.3c-0.1,0.2-0.2,0.5-0.3,0.7
		c-0.2,0.5-0.4,0.9-0.8,1.1c-0.6,0.6-1.3,1-2.1,1c-2,0-3.7-2.4-3.6-5.4c0-3,1.7-5.4,3.7-5.3c1.4,0,2.6,1.2,3.2,3l2.6,0.3
		c0-0.7-0.2-2.4-0.8-4.1c-1-2.8-2.8-4.3-5.2-4.3c0,0-0.1,0-0.2,0c-0.9,0-5.6,0.2-7.3,4.5l-0.2,0.7c0,0,0,0.1,0,0.2l-0.1,0.3L79.6,45
		l-0.1,0c-2.3,0-4.3-2-4.8-3.4c-0.4-1.2-1.8-1.5-1.8-1.5L13.2,39c-3.2,0.3-6.1,2.1-6.1,2.1C5.9,42.1,5.9,42.5,5.9,42.6z M80.4,48.4
		c0.9,0,1.6,0.7,1.6,1.6c0,0.9-0.7,1.6-1.6,1.6c-0.9,0-1.6-0.7-1.6-1.6C78.8,49.1,79.5,48.4,80.4,48.4z"/>
</g>
<g id="Layer_10" display="none">
	<g display="inline">
		<path d="M86.3,81.8c0,0.2-0.1,0.4-0.2,0.6l-4.8,4.8c-0.2,0.2-0.4,0.3-0.6,0.3c-0.2,0-0.4-0.1-0.6-0.2l-48-53.1l-7.4,8.1
			c-2.1,2.1-1.6,5.2-1.6,5.2l0.2,0.7c0.1,0.2,0,0.4-0.1,0.6l-0.7,1.4c-0.1,0.2-0.3,0.3-0.5,0.4c-0.2,0.1-0.4,0-0.6-0.1l-7.5-4.3
			c-0.2-0.1-0.3-0.3-0.4-0.5c-0.1-0.2,0-0.4,0.1-0.6l1.3-1.8c0.1-0.2,0.3-0.3,0.5-0.4l0.9-0.3c0,0,3.4-0.8,5.8-7.5
			c0,0,2-6.1,4.5-8.8c2.5-2.7,6-4.4,11.9-5.2c5.9-0.8,11.1-3.2,11.1-3.2s3.4-1.5,6.2-5.1l0.8-0.3l0.6,0.7L57,15.7l-3.4,3.2
			c0,0-5.3,4.5-12.9,7.9c-2.2,1-4.1,2.5-4.2,2.6l49.6,51.9C86.2,81.3,86.3,81.5,86.3,81.8z"/>
	</g>
</g>
<g id="Layer_23" display="none">
	<path display="inline" d="M83.1,77.1L83.1,77.1l-0.2-0.2c0,0-0.1-0.1-0.1-0.1c-0.1-0.1-0.2-0.2-0.3-0.2L43,36.6l12.8-16.1l-7.3-8.4
		L30,23.9c-0.2-0.1-0.4-0.1-0.6-0.1c-1.1,0-2.1,0.8-2.1,2c0,0.2,0,0.4,0.1,0.6L13.7,43.5l7.6,8.1l17.4-11.1l36.1,43.5
		c0,0,0,0.1,0.1,0.1c0,0,0,0,0,0l0,0l0,0c2.6,2.7,6.4,3.2,8.6,1.2C85.5,83.4,85.4,79.8,83.1,77.1z"/>
</g>
<g id="Layer_24" display="none">
	<path display="inline" d="M29.2,23.7c-0.4-0.4-1.2-0.5-1.6,0l-1.2,1.1c-0.5,0.4-0.5,1.2-0.1,1.6l-4.5,4.2l-0.3,1.9l1.6,1.7
		l-1.9,1.8l-3-3.2l-1.7,0l-0.9,0.8c-0.5,0.4-0.5,1.2-0.1,1.7l10.5,11.2c0.4,0.5,1.2,0.5,1.7,0l0.9-0.8l0.1-1.7l-3-3.2l1.9-1.8
		l1.6,1.7l1.9-0.2l4.3-4.1l45.2,50c0.2,0.1,0.3,0.2,0.5,0.2c0.2,0,0.4-0.1,0.5-0.2l4.1-3.9c0.1-0.1,0.2-0.3,0.2-0.5
		c0-0.2-0.1-0.4-0.2-0.5L38.8,33.2c1.9-2,9.6-9.3,15.8-5.5c0,0,0.5,0.3,0.9,0c0.7-0.6,0.2-1.2,0.2-1.2
		C43.6,13.6,32.1,21.3,29.2,23.7z"/>
</g>
<g id="Layer_14" display="none">
	<path display="inline" d="M79.8,65.7c0.6,0.7,0.5,1.2,0.5,1.2v5.9H69.1c0,0-2,0-2.8-1.5c0,0-2.1-3.4-11.2-3.1h-0.8
		C45.1,68,43,71.4,43,71.4c-0.8,1.4-2.8,1.5-2.8,1.5H28.9V67c0,0-0.1-0.5,0.5-1.2l4.2-4.9c0.2-0.2,0.7-0.3,0.7-0.3l2.2-0.6H72
		l2.8,0.6c0,0,0.5,0.1,0.7,0.3L79.8,65.7z M38.2,27.2v1.4c0,0-0.7,0.9-3.6,0.9h-2.1v1.3H15.9c0,0-2.4-0.1-10.4-0.5l-1.3-0.1
		c0,0-0.1,0-0.1,0c-0.4,0-0.8,0.3-0.8,0.8c0,0.2,0,0.3,0.1,0.4l0.1,0.1c0,0,8.9,14.7,28.5,14.9l4.2,0c3.9,0,7.4,3.3,7.4,7.2
		c0,2.1-1.2,4-3,5h27.7c-1.9-1.3-3.2-3.6-3.2-6.1c0-5.1,4.7-14.4,21.3-17.2l6.9-1.5c0,0,2.5-0.3,2.5-1.8v-1.2l0.7-0.7v-2.7H38.2z"/>
</g>
<g id="Layer_14_copy" display="none">
	<path display="inline" d="M97,27v2.9l-1,0.7v1.2c0,1.5-2.6,1.8-2.6,1.8l-6.9,1.5C69.9,38,65.2,47.3,65.2,52.4
		c0,2.5,1.2,4.7,3.2,6.1l6.5,2c0,0,0.5,0.1,0.6,0.3l4.2,4.9C80.2,66.4,80,67,80,67v6H69.1c0,0-2-0.3-2.8-1.7c0,0-2.1-3.3-11.2-3.3
		h-0.8C45.1,68,43,71.3,43,71.3c-0.8,1.4-2.8,1.7-2.8,1.7H29v-6c0,0-0.1-0.6,0.5-1.3l4.2-4.9c0.2-0.2,0.7-0.5,0.7-0.5l6.4-2.3h0
		c1.7,0,2.9-2.6,2.9-4.7c0-3.9-3.5-7-7.4-7l-4.2,0C12.5,46.1,3.6,31.4,3.6,31.4l-0.1-0.1c-0.1-0.1-0.1-0.3-0.1-0.4
		c0-0.4,0.3-0.7,0.7-0.7c0,0,0.1,0,0.1,0l1.3,0.2c8,0.5,10.4,0.7,10.4,0.7H33v-2h1.7c2.9,0,3.3-0.4,3.3-0.4V27H97z"/>
</g>
<g id="Layer_15" display="none">
	<g display="inline">
		<path d="M66.9,54.2c0-0.2,0-0.5,0-0.7c0.4-4,4.1-5.8,8.3-5.9V28.5H29.9V49l3.7,0c4.5,0,8.5,2,8.5,6.5c0,2.4-1.3,4.5-3.3,5.7h31.7
			C68.3,59.7,66.9,57.1,66.9,54.2z"/>
		<path d="M29.2,31.2l-6,0v1.5H12.5c0,0-9.1,0-9.1,0c-0.5,0-0.9,0.4-0.9,0.9c0,0.2,0.1,0.3,0.1,0.5c0,0,4.3,12.6,26.6,12.9
			L29.2,31.2L29.2,31.2z"/>
		<polygon points="78.6,28.5 75.9,28.5 75.9,47.7 77.8,47.7 86.5,40.3 92.1,40.3 92.1,34.4 		"/>
		<path d="M73,61.9H36.8l-6.9,4.6c-0.7,0.8-0.6,1.4-0.6,1.4v4.8h10.4l1.6-1.7h27.2l1.6,1.7h10.4v-4.8c0,0,0.1-0.6-0.6-1.4L73,61.9z"
			/>
	</g>
</g>
<g id="Layer_18" display="none">
	<path display="inline" d="M36.4,46.2l-0.5,0c-30.6-3-31.7-16-31.7-16s0-0.3,0-0.5c0-0.4,0.3-0.7,0.7-0.7c0,0,0.1,0,0.1,0l1.2,0.1
		c7.3,1,25.2,0.8,25.2,0.8l0-1h5.1v-1.2h59.4l0,5.2C79.5,33,67,42.3,67,54.1l0.9,4.3H45l1.2-4.1C46.2,48.5,39.9,46.2,36.4,46.2z
		 M44.5,59.5l-8.1,8.3v4.5h7.4C47,69,56.3,69,56.3,69h0.2c0,0,8.9-0.4,12.5,3.3h7.4v-4.5l-8.1-8.3H44.5z"/>
</g>
<g id="Layer_19" display="none">
	<g display="inline">
		<path d="M95.9,33.1C79.5,33.1,67,42.4,67,54.2l1,4.7l8.4,8.6V72h-7.4c-3.7-3.7-12.5-3.3-12.5-3.3h-0.2c0,0-9.3,0.1-12.5,3.3h-7.4
			v-4.5l8.4-8.6l1.3-4.6c0-5.7-6.2-8-9.8-8l-0.5,0c-30.6-3-31.7-16-31.7-16s0-0.3,0-0.5c0-0.4,0.3-0.7,0.7-0.7c0,0,0.1,0,0.1,0
			l1.2,0.1c7.3,1,25.2,0.8,25.2,0.8l0-1h5.1v-1.2h59.4L95.9,33.1z"/>
	</g>
</g>
<g id="Layer_16" display="none">
	<path display="inline" d="M92.7,34.3v5.9H87l-8.7,7.5h-2.5c-4.3,0-8.1,2.4-8.5,6.4c0,0.2,0-0.1,0,0.2c0,2.9,1.4,5.4,3.6,7l9.5,4.8
		c0.7,0.8,0.6,1.4,0.6,1.4v4.8H70.5l-1.6-1.7H41.5l-1.6,1.7H29.4v-4.8c0,0-0.1-0.6,0.6-1.4l9-4.9h0c2-1.1,3.3-3.2,3.3-5.7
		c0-4.5-4-6.6-8.5-6.6l-4.1,0l0-2.2C7,46.7,2.6,33.9,2.6,33.9c-0.1-0.1-0.1-0.3-0.1-0.5c0-0.5,0.4-0.9,0.9-0.9c0,0,9.2,0,9.2,0h10.7
		v-1.5l6.5,0v-2.7l54.3,0.1L92.7,34.3z"/>
</g>
<g id="Layer_25" display="none">
	<path display="inline" d="M15.2,32c-0.2,0.7,0.4,2.1,0.6,2.5L43.4,50l-27.4,15c-0.9,1.1-1,2.8-1,2.8l34.5-14.2L67,66.7
		c-3.2,10.1,10.7,15.8,15.9,10.1c7-10-8.9-16.6-14.1-12.7c-1.5-1.4-10.7-8.4-10.7-8.4c-0.5-0.4-2.1-3.6-3.2-5.7
		c0.8-1.6,2-3.9,2.5-4.7l0.2-0.3l0,0c0.2-0.4,0.4-0.6,0.6-0.8c0,0,9.3-7,10.8-8.4c5.2,3.9,21.3-2.8,14.2-12.8
		c-5.3-5.7-19.3,0-16.1,10.2L49.6,46.4L15.2,32z M72.6,75.7c-6.3-3.7-3.4-7.9-2.9-8.5c2.3-3.1,6.3-1.7,6.3-1.7
		C88.4,69.7,81.9,80.7,72.6,75.7z M72.9,24.3c9.4-5,15.9,6.1,3.3,10.2c0,0-4,1.5-6.3-1.7C69.4,32.2,66.5,28,72.9,24.3z M50,48.4
		c0.8,0,1.5,0.7,1.5,1.5s-0.7,1.5-1.5,1.5c-0.8,0-1.5-0.7-1.5-1.5S49.1,48.4,50,48.4z"/>
</g>
<g id="Layer_26" display="none">
	<path display="inline" d="M69.5,57.5c1.4-1.1,2.8-2.3,4.2-3.7l-2.2-2.2c-1.1,1.1-2.3,2.2-3.5,3.1L55.4,31.6
		c2.2-1.4,3.6-3.9,3.6-6.7c0-3.8-2.6-7-6.2-7.8v-3.3h-4.1v3.4c-3.4,1-5.8,4.1-5.8,7.7c0,2.7,1.4,5.1,3.4,6.6l-28.9,53
		c-0.4,0.8-0.5,1.3-0.3,1.8l8-6.6L34.5,63c2.5,0.8,6.5,1.8,11.3,1.9c0.5,0,0.9,0,1.4,0c5.2,0,11.9-1.1,18.5-4.9l13.2,24.1l3.9,2.2
		l0.1-3.9L69.5,57.5z M50.9,20.5c2.4,0,4.4,2,4.4,4.4c0,2.4-2,4.4-4.4,4.4c-2.4,0-4.4-2-4.4-4.4C46.6,22.4,48.5,20.5,50.9,20.5z
		 M46,61.8c-4.1-0.1-7.6-0.9-10-1.6l15-26.9l13.2,24.1C58.8,60.5,52.6,62,46,61.8z"/>
</g>
<g id="Layer_27" display="none">
	<path display="inline" d="M71,60.5h2.3v-2.2h-3.8L55.4,31.6c2.2-1.4,3.6-3.9,3.6-6.7c0-3.8-2.6-7-6.2-7.8v-3.3h-4.1v3.4
		c-3.4,1-5.8,4.1-5.8,7.7c0,2.7,1.4,5.1,3.4,6.6L32.2,58.2h-3.8v2.2h2.3L17.5,84.4l0-0.1c-0.4,0.8-0.5,1.4-0.3,2l8-6.6l10.7-19.2
		h13.4v3.8h3.1v-3.8H66l12.9,23.7l3.9,2.2l0.1-3.9L71,60.5z M50.9,20.5c2.4,0,4.4,2,4.4,4.4c0,2.4-2,4.4-4.4,4.4
		c-2.4,0-4.4-2-4.4-4.4C46.6,22.5,48.5,20.5,50.9,20.5z M52.3,58.2v-4h-3.1v4H37.3L51,33.3l13.5,24.9H52.3z"/>
</g>
<g id="Layer_28" display="none">
	<path display="inline" d="M32.9,66.4l-8.8,8.1l-3,1.2l1.7-2.7l10-9.3L32.9,66.4L32.9,66.4z M77.8,29.2c-0.2,0.2-0.4,0.3-0.7,0.4
		l-6.8,3.9L64,38.4v-2.9l4.1-3.3l0,0l0,0l5.5-6.6c0.2-0.2,0.3-0.4,0.6-0.6c1.2-1,3-0.8,3.9,0.4C79.2,26.5,79,28.2,77.8,29.2z
		 M77,26.2c-0.5-0.5-1.3-0.6-1.8-0.1c-0.1,0-4.5,5.2-4.5,5.2c-0.1,0.1-0.1,0.2,0,0.3c0.1,0.1,0.2,0.1,0.3,0c0,0,5.8-3.5,5.9-3.6
		C77.4,27.5,77.5,26.7,77,26.2z M34.2,32.4c0.3,0.3,0.9,0.6,1.4,0.6h25.7c0.5,0,1.1-0.3,1.4-0.6l3.5-3.5c0.3-0.3,0.2-0.6-0.2-0.6
		H31.5c-0.5,0-0.6,0.3-0.3,0.6L34.2,32.4z M62.8,68.6c-0.3-0.3-0.9-0.6-1.4-0.6H35.6c-0.5,0-1.1,0.3-1.4,0.6l-2.9,2.9
		c-0.3,0.3-0.2,0.6,0.2,0.6H65c0.5,0,0.6-0.3,0.3-0.6L62.8,68.6z M62.3,35.8c0-0.5-0.4-0.9-0.9-0.9H35.7c-0.5,0-0.9,0.4-0.9,0.9v0.4
		c0,0.5,0.4,0.9,0.9,0.9h25.6c0.5,0,0.9-0.4,0.9-0.9V35.8z M62.3,52.3c0-0.5-0.4-0.9-0.9-0.9H35.7c-0.5,0-0.9,0.4-0.9,0.9v0.4
		c0,0.5,0.4,0.9,0.9,0.9h25.6c0.5,0,0.9-0.4,0.9-0.9V52.3z M62.3,56.4c0-0.5-0.4-0.9-0.9-0.9H35.7c-0.5,0-0.9,0.4-0.9,0.9v0.4
		c0,0.5,0.4,0.9,0.9,0.9h25.6c0.5,0,0.9-0.4,0.9-0.9V56.4z M62.3,60.6c0-0.5-0.4-0.9-0.9-0.9H35.7c-0.5,0-0.9,0.4-0.9,0.9V61
		c0,0.5,0.4,0.9,0.9,0.9h25.6c0.5,0,0.9-0.4,0.9-0.9V60.6z M61.3,47.3l-25.6,0c-0.5,0-0.9,0.4-0.9,0.9v0.4c0,0.5,0.4,0.9,0.9,0.9
		h25.6c0.5,0,0.9-0.4,0.9-0.9l0-0.4C62.3,47.7,61.8,47.3,61.3,47.3z M62.3,40c0-0.3-0.2-0.6-0.4-0.7c-0.2-0.1-0.3-0.2-0.5-0.2H35.7
		c-0.5,0-0.9,0.4-0.9,0.9v0.4c0,0.5,0.4,0.9,0.9,0.9h25.6c0.5,0,0.9-0.4,0.9-0.9V40z M61.3,63.8H35.7c-0.5,0-0.9,0.4-0.9,0.9v0.4
		c0,0.5,0.4,0.9,0.9,0.9l25.6,0c0.5,0,0.9-0.4,0.9-0.9l0-0.4C62.3,64.2,61.8,63.8,61.3,63.8z M62.3,44.1c0-0.5-0.4-0.9-0.9-0.9H35.7
		c-0.5,0-0.9,0.4-0.9,0.9v0.4c0,0.5,0.4,0.9,0.9,0.9l25.6,0c0.5,0,0.9-0.4,0.9-0.9C62.3,44.5,62.3,44.1,62.3,44.1z"/>
</g>
<g id="Layer_29" display="none">
	<g display="inline">
		<path d="M11.6,79c-0.2,0.4,0,0.8,0.3,1l5.7,3c0.4,0.2,0.8,0.1,1-0.3l1-1.9l-7-3.7L11.6,79z"/>
		<path d="M88.4,79l-1-1.9l-7,3.7l1,1.9c0.2,0.4,0.6,0.5,1,0.3l5.7-3C88.5,79.8,88.6,79.3,88.4,79z"/>
		<path d="M85.3,72.3l-1.1,0.6L83.7,72l1.1-0.6L83,68.1l-3.1,1.7l-0.5-0.9l3.1-1.7l-1.8-3.3l-1.1,0.6l-0.5-0.9l1.1-0.6l-1.8-3.4
			l-3.1,1.7l-0.5-0.9l3.1-1.7l-1.8-3.3L75,56l-0.5-0.9l1.1-0.6l-1.8-3.4l-3.1,1.7l-0.5-0.9l3.1-1.7l-1.8-3.3l-1.1,0.6L70,46.6L71,46
			l-1.8-3.4l-3.1,1.7l-0.5-0.9l3.1-1.7l-1.8-3.3L65.8,39l-0.5-0.9l1.1-0.6l-1.8-3.4l-3.1,1.7L61,35l3.1-1.7L62.3,30l-1.1,0.6
			l-0.5-0.9l1.1-0.6l-4.4-8.2l-1.3,0.7C55.4,18.9,52.9,17,50,17c-2.9,0-5.3,1.9-6.2,4.5l-1.1-0.6l-4.4,8.2l1.1,0.6l-0.5,0.9L37.8,30
			L36,33.3l3.1,1.7l-0.5,0.9l-3.1-1.7l-1.8,3.4l1.1,0.6L34.3,39l-1.1-0.6l-1.8,3.3l3.1,1.7L34,44.3l-3.1-1.7L29.1,46l1.1,0.6
			l-0.5,0.9l-1.1-0.6l-1.8,3.3l3.1,1.7l-0.5,0.9l-3.1-1.7l-1.8,3.4l1.1,0.6L25.1,56L24,55.4l-1.8,3.3l3.1,1.7l-0.5,0.9l-3.1-1.7
			L19.9,63l1.1,0.6l-0.5,0.9l-1.1-0.6l-1.8,3.3l3.1,1.7l-0.5,0.9l-3.1-1.7l-1.8,3.4l1.1,0.6l-0.5,0.9l-1.1-0.6l-1.7,3.2l6.9,3.7
			l27.1-50.1c0.9,0.4,1.8,0.7,2.9,0.7c1.1,0,2.1-0.3,3-0.7l27.1,50.2l6.9-3.7L85.3,72.3z M50,25.1c-0.9,0-1.7-0.7-1.7-1.7
			s0.7-1.7,1.7-1.7s1.7,0.7,1.7,1.7C51.7,24.3,50.9,25.1,50,25.1z"/>
	</g>
</g>
<g id="Layer_30" display="none">
	<g display="inline">
		<path d="M81.8,18.2c-1.2-1.2-3.2-1.2-4.5,0c-0.2,0.2-0.4,0.5-0.6,0.8l-6.8,9.3l0,0l0,0l-5.8,5.9L52.8,22.8
			c-0.3-0.3-0.6-0.2-0.7,0.2l-0.3,4.5c0,0.5,0.2,1.1,0.5,1.4l18.2,18.2c0.3,0.3,1,0.6,1.4,0.6l4.9,0c0.5,0,0.6-0.3,0.2-0.6
			L65.9,35.9l5.9-5.8l0,0l9.3-6.9c0.3-0.1,0.5-0.3,0.7-0.5C83.1,21.4,83.1,19.4,81.8,18.2z M80.4,21.6c-0.1,0.1-0.1,0.1-0.2,0.2
			c0,0,0,0,0,0l-6.2,4.3c-0.1,0.1-0.3,0.1-0.4,0c-0.1-0.1-0.1-0.3,0-0.4l4.5-6c0,0,0,0,0,0c0-0.1,0.1-0.1,0.1-0.2
			c0.6-0.6,1.5-0.6,2,0C81,20.1,81,21,80.4,21.6z"/>
		<path d="M36.5,45c-0.4-0.4-0.9-0.4-1.3,0l-0.3,0.3c-0.4,0.4-0.4,0.9,0,1.3l18.2,18.2c0.4,0.4,0.9,0.4,1.3,0l0.3-0.3
			c0.4-0.4,0.4-0.9,0-1.3L36.5,45z"/>
		<path d="M30.7,50.8c-0.4-0.4-0.9-0.4-1.3,0l-0.3,0.3c-0.4,0.4-0.4,0.9,0,1.3l18.2,18.2c0.4,0.4,0.9,0.4,1.3,0l0.3-0.3
			c0.4-0.4,0.4-0.9,0-1.3L30.7,50.8z"/>
		<path d="M33.6,47.9c-0.4-0.4-0.9-0.4-1.3,0L32,48.2c-0.4,0.4-0.4,0.9,0,1.3l18.2,18.2c0.4,0.4,0.9,0.4,1.3,0l0.3-0.3
			c0.4-0.4,0.4-0.9,0-1.3L33.6,47.9z"/>
		<path d="M27.6,53.7c-0.3-0.3-1-0.6-1.4-0.6l-4.1,0c-0.5,0-0.6,0.3-0.2,0.6l11.5,11.5L18.7,79.9l-1.5,2.8l2.8-1.5l14.7-14.6
			l10.8,10.8c0.3,0.3,0.6,0.2,0.7-0.2l0.2-3.8c0-0.5-0.2-1.1-0.5-1.4L27.6,53.7z"/>
		<path d="M51.1,30.4c-0.4-0.4-0.9-0.4-1.3,0l-0.3,0.3c-0.4,0.4-0.4,0.9,0,1.3l18.2,18.2c0.4,0.4,0.9,0.4,1.3,0l0.3-0.3
			c0.4-0.4,0.4-0.9,0-1.3L51.1,30.4z"/>
		<path d="M39.5,42.1c-0.4-0.4-0.9-0.4-1.3,0l-0.3,0.3c-0.4,0.4-0.4,0.9,0,1.3L56,61.9c0.4,0.4,0.9,0.4,1.3,0l0.3-0.3
			c0.4-0.4,0.4-0.9,0-1.3L39.5,42.1z"/>
		<path d="M45.3,36.2c-0.4-0.4-0.9-0.4-1.3,0l-0.3,0.3c-0.4,0.4-0.4,0.9,0,1.3L61.8,56c0.4,0.4,0.9,0.4,1.3,0l0.3-0.3
			c0.4-0.4,0.4-0.9,0-1.3L45.3,36.2z"/>
		<path d="M66.4,51.5L48.2,33.3c-0.4-0.4-0.9-0.4-1.3,0l-0.3,0.3c-0.4,0.4-0.4,0.9,0,1.3l18.2,18.2c0.4,0.4,0.9,0.4,1.3,0l0.3-0.3
			c0.2-0.2,0.3-0.5,0.3-0.8C66.6,51.8,66.5,51.6,66.4,51.5z"/>
		<path d="M42.4,39.2c-0.4-0.4-0.9-0.4-1.3,0l-0.3,0.3c-0.4,0.4-0.4,0.9,0,1.3l18.2,18.2c0.4,0.4,0.9,0.4,1.3,0l0.3-0.3
			c0.4-0.4,0.4-0.9,0-1.3L42.4,39.2z"/>
	</g>
</g>
<g id="Layer_31" display="none">
	<path display="inline" d="M39.8,56.6c2.9-2.9,6-5.3,8.7-6.9c0,0,0.2-0.1,0.3-0.2c1.5-0.9,8.6-5.1,14.5-10.8l25.9-25.9l0,0
		c0.8-0.7,1.9-0.6,2.7,0.1s0.8,1.9,0.1,2.7v0L66,41.5c-5.7,5.9-10,13-10.8,14.5c0,0-0.2,0.3-0.2,0.3l0,0c-1.6,2.7-3.9,5.7-6.9,8.7
		c-4.5,4.5-9.2,7.6-12.6,8.7l-4.4-4.4C32.2,65.8,35.4,61.1,39.8,56.6z M33.3,77.7L27,71.4c-2.4-0.4-4.9,0.4-6.5,3.7
		C17,83.9,7.6,83.2,7.6,83.2s13,9.3,23.1,1.3C32.8,82.8,33.7,80.2,33.3,77.7z"/>
</g>
<g id="Layer_37" display="none">
	<path display="inline" d="M9.8,87.8c6.2-2.3,6-8.8,11.6-13.3c2.6-2.1,5.9-3.5,6.1-3.5c0.4-2.5,9.4-10,11.3-11.6l43.4-42.5l0,0
		c3.7-3.5,7-5.6,7.8-4.9c0.8,0.8-1.9,4.8-6.1,9c-0.2,0.2-41.4,42.1-41.4,42.1c-0.9,1.1-8.9,10.9-11.6,11.3l0,0
		C26.9,86.1,15.7,89.2,9.8,87.8z"/>
</g>
<g id="Layer_32" display="none">
	<path display="inline" d="M40.9,74.8c-10.8,22.7-32.9,9-32.9,9s11.1,1.7,11.3-8.7c0.2-9.8,9.9-10.7,11.1-10.8L40.9,74.8z
		 M35.6,59.4l-3.2,2.8l10.4,10.4l2.7-3.2c2,0.1,3.9-0.4,5.3-1.8c1.6-1.6,2.2-4,1.7-6.4l39-46.1c0.7-0.7,0.7-1.8,0-2.5
		s-1.8-0.7-2.5,0L43.5,52.5c-2.3-0.4-4.5,0.2-6.1,1.7C36,55.5,35.4,57.4,35.6,59.4z"/>
</g>
<g id="Layer_33" display="none">
	<path display="inline" d="M87,66v4H11v-4h14.1c0,0,3.1-0.1,7.9-4.8c1.7-1.7,3.3-3.2,4.8-4.7l6-5.8L62.7,31l4.6,5.1l-17.1,18
		c3.3,0.7,7.2,2.9,14.5,8.1c0,0,3.4,2.4,6.6,2.6c0,0,0.2,0,0.2,0c0.7-1.8,2.9-3.3,1.4-8.6c-1-3.5-5.1-10.4-5.1-10.4
		s-2.9-4.3,1.4-6.2c4.3-1.9,7.2-3.1,13.9-3.7c0,0,0.9,0.4,0,1.3c-0.9,0.9-6.1,4.7-3.3,9.6c1.9,3.3,6.2,8.3,6.1,19.3H87z M15.7,58
		c0,1.8-0.7,3-0.7,3v2h10v-2c0,0-0.8-1.2-0.8-3c0-1.8-0.3-2.1,1.4-5.3c1.7-3.2,1.9-2,1.9-4.5s-1.5-6.8-7.6-6.8s-7.6,4.3-7.6,6.8
		s0.3,1.3,1.9,4.5C15.9,55.9,15.7,56.3,15.7,58z"/>
</g>
<g id="Layer_33_copy" display="none">
	<g display="inline">
		<path d="M85.6,66c0.1-11-4.2-15.9-6.1-19.3c-2.8-4.9,2.4-8.7,3.3-9.6c0.9-0.9,0-1.3,0-1.3c-6.6,0.6-9.6,1.9-13.9,3.7
			c-4.3,1.9-1.4,6.2-1.4,6.2s4.1,6.9,5.1,10.4c1.5,5.3-0.7,6.8-1.4,8.6c0,0-0.2,0-0.2,0c-3.2-0.2-6.6-2.6-6.6-2.6
			c-7.3-5.2-11.2-7.4-14.5-8.1l17.1-18L62.7,31L46.8,47.6c0.4-2,0.2-4.1-0.5-6c-0.9-2.2-2.5-4-4.7-4.9c-2.2-1-4.6-1-6.8-0.2
			c-3.7,1.4-5.6,5.6-4.2,9.4c1.2,3.1,4.6,4.6,7.7,3.4c1.2-0.5,2.2-1.4,2.7-2.6c0.5-1.2,0.6-2.5,0.1-3.8c-0.4-1-1.2-1.8-2.2-2.3
			c-1-0.4-2.1-0.5-3.1-0.1c-1.8,0.7-2.6,2.7-2,4.4c0.6,1.5,2.2,2.2,3.7,1.7c-0.2-0.7-0.3-0.8-0.5-1.4c-0.7,0.3-1.5-0.1-1.8-0.8
			c-0.4-1,0.1-2.1,1.1-2.5c0.6-0.2,1.3-0.2,2,0c0.6,0.3,1.1,0.8,1.4,1.4c0.3,0.8,0.3,1.8-0.1,2.6c-0.4,0.8-1,1.5-1.9,1.8
			c-2.3,0.9-4.9-0.3-5.7-2.5c-1.1-2.9,0.3-6.3,3.3-7.4c1.8-0.7,3.8-0.7,5.6,0.1c1.8,0.8,3.2,2.2,3.9,4.1c0.9,2.3,0.8,4.9-0.2,7.2
			c-0.2,0.4-0.4,0.8-0.6,1.2l-0.3,0.3l-6,5.8c-1.5,1.5-3.1,3.1-4.8,4.7c-4.8,4.7-7.9,4.8-7.9,4.8H11v4h76v-4H85.6z"/>
		<path d="M15.7,58c0,1.8-0.7,3-0.7,3v2h10v-2c0,0-0.8-1.2-0.8-3c0-1.8-0.3-2.1,1.4-5.3c1.7-3.2,1.9-2,1.9-4.5s-1.5-6.8-7.6-6.8
			s-7.6,4.3-7.6,6.8s0.3,1.3,1.9,4.5C15.9,55.9,15.7,56.3,15.7,58z"/>
	</g>
</g>
<g id="Layer_35" display="none">
	<g display="inline">
		<path d="M74.3,39.7c-0.2,0.2-1.8,4.4-7.9-1.2c-4.2,5.4-5.9,5.2-5.9,5.2l-2.3,2.3c-0.7,0.5-2-0.3-2-0.3L29.9,71.9L24.8,76l-0.2-0.2
			l3.4-5.8l26.3-26.3c0,0-0.8-1.3-0.3-2l2.3-2.3c0,0-0.2-1.6,5.2-5.9c-5.6-6.1-1.4-7.8-1.2-7.9c7.7-4.4,11.9,0.8,12.4,1.5
			C73.5,27.7,78.6,31.9,74.3,39.7z"/>
	</g>
</g>
<g id="Layer_36" display="none">
	<g display="inline">
		<g>
			<path d="M36,52.5l0-21.9c0-5.8-6.2-5.7-6.2,0v21.9v2.6v21l9.1,9.8h20.3l9.7-9.8c3.9-14-1.7-27.3-0.6-33.4
				c1.2-4.7-6.2-3.2-6.2,2.5v12.2h-1.8v-2.5l0,0v-32c0-5.8-6.2-5.7-6.2,0l0,29.6h-1.8V18.4c0-5.8-6.2-5.7-6.2,0v34.1h-1.8V23.1
				c0-5.8-6.2-5.7-6.2,0v29.4L36,52.5L36,52.5z"/>
		</g>
	</g>
</g>
<g id="Layer_38" display="none">
	<g display="inline">
		<g>
			<path d="M37,51.2l0-21.8c0-5.7-6.2-5.7-6.2,0v21.8v2.6c0,0,0,10.6,0,15.3c0,23.8,38.2,23.6,38.2,0c0-19.1-1.1-21.5,0-27.6
				c1.2-4.7-6.2-3.2-6.2,2.5v12.1H61v-2.5l0,0V21.8c0-5.7-6.2-5.7-6.2,0l0,29.4H53V17.4c0-5.7-6.2-5.7-6.2,0v33.9H45V22.1
				c0-5.7-6.2-5.7-6.2,0v29.2C38.8,51.2,37,51.2,37,51.2z"/>
		</g>
	</g>
</g>
<g id="Layer_39" display="none">
	<path display="inline" d="M83.2,36l-0.3,2.1l-2.1-0.3L80.5,40l-2.1-0.3l-0.3,2.1L76,41.6l-0.3,2.1l-2.1-0.3l-0.3,2.1l-2.1-0.3
		l-0.3,2.1l-2.1-0.3l-0.3,2.1l-2.1-0.3L66,51.2l-2.1-0.3l-0.3,2.1l-2.1-0.3l-0.3,2.1L59,54.7l-0.3,2.1l-2.1-0.3l-0.3,2.1l-2.1-0.3
		l-0.3,2.1l-2.1-0.3l-0.3,2.1l-2.1-0.3L49,64.3L46.9,64l-0.3,2.1l-2.1-0.3L44.1,68L42,67.8l-0.3,2.1l-2.1-0.3l-0.3,2.1l-2.1-0.3
		l-0.3,2.1l-2.1-0.3l-0.3,2.1l-2.1-0.3L32,77.4l-2.1-0.3l-0.3,2.1L27.4,79l-0.3,2.1L25,80.9L24.7,83l-2.1-0.3l-0.3,2.1l-2.1-0.3
		l-0.3,2.1l-2.1-0.3l-0.3,2.1l-2.1-0.3l-0.3,2.1l-2.1-0.2l-0.3,2.1l-2.3-0.3l-3.8-3.1c-1.4-1.2,0-3.1,0-3.1l42.6-53.6l6.3,4.3
		l3.1-3.2c0.2-0.2,1.7-1.7,3.9-0.1l5.7,3.9c0.1,0,0.8,0.6,2.1,0.6c1,0,2.2-0.3,3.5-1.5c2.1-1.8,4.4-0.6,4.6-0.5c0,0,2.1,0.7,4.5-0.5
		C83.2,35,83.2,36,83.2,36z M94.2,23.9c0,0-1.9,2.4-4.1,2.3c-2.2-0.1-3.5,1.5-3.5,1.5s-1.2,1.3-1.5,2.5c-0.2,0.6-0.7,1.5-1.5,2.4
		c0,0,0,0,0,0c-2.4,2.8-5,2-5,2c-0.1-0.1-3.2-1.8-6,0.7c-2.2,1.9-3.8,0.9-3.9,0.8L63,32.3c-2.6-1.8-4.8-0.6-5.7,0.3l-2.3,2.3
		l-5.3-3.6l7.5-9.5c0,0,1-1.4,4-2c0,0,3.1-0.2,3.5-3.2c0,0,0.1-1.2,1.6-1.6c0,0,3.2-0.7,4.3-3.3c0,0,1.2-3.4,6.6-4.4l1.3,1.3
		c0,0,0.1,0.2-0.1,0.4l-0.8,0.2c0,0-3.1,1.2-2.7,3.8c0,0,0.1,2.5,4.4,2.8c0,0,3.2-0.1,7.1,4.9c0,0,2.3,3.5,4.9,1.4l0.6-0.6
		c0,0,0.2-0.3,0.4,0l1.7,1.7C94.2,23.5,94.4,23.7,94.2,23.9z M55.5,30.3c0-0.5-0.4-0.9-0.9-0.8c-0.5,0-0.9,0.4-0.8,0.9
		c0,0.5,0.4,0.9,0.9,0.8C55.1,31.2,55.5,30.8,55.5,30.3z M80.7,32.5c0-0.5-0.4-0.9-0.9-0.8c-0.5,0-0.9,0.4-0.8,0.9
		c0,0.5,0.4,0.9,0.9,0.8C80.3,33.4,80.7,33,80.7,32.5z M78.5,23l-5-2.4c0,0-7.2-3.3-8.2,1.2c0,0-1.3,3.8,4.9,4.5c0,0,2.9,0.5,5.5,2
		c0,0,4.6,2.6,5.8-0.5C81.5,27.8,82.4,24.5,78.5,23z"/>
</g>
<g id="Layer_40" display="none">
	<path display="inline" d="M63.9,58.3h5.6V65l-1.1-0.6L67.3,65l-1.1-0.6L65,65l-1.1-0.6L62.7,65l-1.2-0.6L60.4,65l-1.1-0.6L58.1,65
		L57,64.4L55.8,65l-1.1-0.6L53.5,65l-1.1-0.6L51.2,65l-1.1-0.6L48.9,65l-1.2-0.6L46.6,65l-1.1-0.6L44.3,65l-1.1-0.6L42,65l-1.1-0.6
		L39.8,65l-1.1-0.6L37.5,65l-1.1-0.6L35.2,65L34,64.4L32.9,65l-1.1-0.6L30.6,65l-1.1-0.6L28.3,65l-1.2-0.6L26,65l-1.2-0.6L23.7,65
		l-1.1-0.6L21.4,65l-1.1-0.6L19.1,65l-1.1-0.6L16.8,65l-1.1-0.6L14.5,65l-1.2-0.6L12.2,65L11,64.4L9.9,65l-1.2-0.6L7.6,65V48.2
		c-0.4-0.1-0.9-0.3-0.9-1.3v-2.1c0,0,0.1-0.8,1-0.8l51.5,0v6.7c0,0.1,0,2.5,2.1,3.9c2.4,1.5,2.6,3,2.7,3.1L63.9,58.3z M93.4,55.1
		c0,0.9-3.8,3.1-7,1.7c0,0-2.3-0.4-2.8,1.1c-0.4,1-4.6,1.8-5.8,0.6c0,0-1.6-1.7-7.8-1.8l-4.7,0C64.8,56,64,54.6,62,53.3
		c-1.4-0.9-1.4-2.5-1.4-2.6v-6.8l4.5,0c1.3-0.9,1.7-2.7,1.7-3.6c0-0.3,0.6-0.5,0.6-0.5h2c5,0,6.4-2.4,6.4-2.4s1.6-2.3,7-2.3
		c0,0,3.1-0.2,2.9,0.6c-0.4,1.6-1.8,1.7-1.8,1.7c-3.6,0.4-4,3.1-2,5c0,0,3.8,3.5,6.1,9.4c0,0,1.1,2.7,4.3,2.7
		C92.3,54.4,93.4,54.3,93.4,55.1z M65.4,46c-0.3-0.3-0.9-0.3-1.2,0c-0.3,0.3-0.3,0.9,0,1.2c0.4,0.3,0.9,0.3,1.2,0
		C65.8,46.9,65.8,46.4,65.4,46z M67.7,52.9c-0.3-0.3-0.9-0.3-1.2,0c-0.3,0.3-0.3,0.9,0,1.2c0.4,0.3,0.9,0.3,1.2,0
		C68.1,53.8,68.1,53.2,67.7,52.9z M79.8,48.7L76.6,45c-2.7-3.6-5.3-1.5-5.3-1.5c-1.9,1.9-0.6,3.7-0.6,3.7l3.4,4.6c0,0,4,5.2,6.7,2.6
		C83.1,52.2,79.8,48.7,79.8,48.7z"/>
</g>
<g id="Layer_41" display="none">
	<path display="inline" d="M93.6,21.6c-4.6-2.2-8.2-5.4-8.2-5.4l-9.8-9.8C74.7,5.5,74,6.6,74,6.6l-6.7,7.2c-0.9,0.9,0,1.5,0,1.5
		l1.3,1.3c-0.5,0.5-1.6,1.9-3.1,5.4c-2,4.7-5,8.9-7.3,11.9c-4.1,5.3-13.2,13.7-13.2,13.7c-18.2,15.9-24.4,24-24.4,24
		c-3,3.9-4.6,5.4-4.6,5.4l-6.1,6.2c-2.5,2.3-0.8,2.6-0.8,2.6s5.1,0.2,9.8-0.9c0,0,1.6-0.4,2.8-2.9l3.5-7.1c0,0,2.3-5.6,25.7-25.8
		c0,0,10.8-9.6,16.1-16.8c0,0,1.8-2.6,5.4-6.7l2.6-2.8c4.6,3.6,7.1,10.9,7.1,10.9c0.2,0.2,0.9-0.1,0.9-0.1
		c6-3.2,10.8-10.8,10.8-10.8C94,22,93.6,21.6,93.6,21.6z"/>
</g>
<g id="Layer_45" display="none">
	<path display="inline" d="M73.3,9.5c0,0,0.2-0.2,0.5,0c0,0,0.6,0.4,2.6,2l0.2-0.2c0,0,0.3-0.3,0.5,0l5.6,5.1c0.2,0.2,0,0.5,0,0.5
		l-0.2,0.2c0.5,0.4,1,1,1.5,1.5l1.8,1.8c1.4,1.5,6.8,5.7,6.8,5.7c0.2,0.2,0.1,0.3,0.1,0.3s-3.8,6-11.9,10c0,0-0.3,0.1-0.2-0.1
		c0,0,0.3-2.3-0.6-11.6c0,0,0-0.7-0.5-1.2l-1.7-1.7c0,0,0,0.5-1.3,1.6L58.1,42.2c0,0-5.7,6-11.2,11L27.1,72.6
		c-7.2,7.2-11.5,17.3-11.5,17.3c-0.3,0.9-1.1,0.8-1.1,0.8H9.8c-1.1,0-1.7-0.6-1.7-0.6l-0.6-0.6c-0.7-1.4,0.8-2.6,0.8-2.6
		s5.1-5.1,6.7-7.9c1.7-2.9,5.7-7.1,5.7-7.1l31.6-31.6c9.4-9.7,14.2-17.5,14.2-17.5l0.2-0.4c2.4-5,4.1-5.7,4.1-5.7l0.8-0.4l-1.9-1.9
		c-0.3-0.3-0.1-0.6-0.1-0.6L73.3,9.5z"/>
</g>
<g id="Layer_42" display="none">
	<path display="inline" d="M79.6,40.7C76,38.2,66.8,28.3,66.8,28.3l-0.6-0.6c-1.3-1.3-2.5,0.1-2.5,0.1L61,30.5
		c-1.3,1.3-0.9,2.8-0.7,3.2c-5.7,6.5-10.1,9.2-11.9,10.8l0,0c0,0-9.7,7.2-16.4,15.4L31.9,60c-4.3,5.8-11.4,11.6-11.4,11.6
		c-0.8,0.7-0.1,0.9-0.1,0.9l8.3,0.4c2.1,0.2,4.6-4.2,4.6-4.2c0.9-1.5,2.9-4.5,4.1-6c6.7-8.2,15.1-14,15.1-14
		c6.2-4.9,11.5-9.8,11.5-9.8l0.7-0.6c0.3,0.3,0.5,0.5,0.5,0.5c1.8,2.6,5.3,9.6,5.3,9.6c5.4-1.3,9.7-7.5,9.7-7.5L79.6,40.7z
		 M27.6,70.6c-0.5,0-1-0.4-1-1s0.4-1,1-1c0.5,0,1,0.4,1,1S28.1,70.6,27.6,70.6z"/>
</g>
<g id="Layer_43" display="none">
	<path display="inline" d="M93,51.2h2v4.5h-2.1c-0.1,1.4-0.1,2.5-0.2,2.5l-1.1,1.7l-0.9-1.3c-0.1,0-0.2,0-0.3,0.1l-1.2,1.8l-1.2-1.4
		c0,0-0.1,0-0.1,0L86.5,61l-1.2-1.4L84,61.4l-1.1-1.3l-1.2,1.8l-1.2-1.5l-1.2,1.7l-1.2-1.4l-1.1,1.6L75.9,61l-1.1,1.6l-1.1-1.3
		l-1.1,1.6l-1.2-1.4l-1,1.5l-1.2-1.4l-1,1.5L67,61.8l-1,1.6l-1.2-1.4l-1,1.4L62.6,62l-1,1.5l-1.2-1.4l-0.9,1.4l-1.2-1.4l-1,1.4
		l-1.1-1.3l-1,1.5l-1.1-1.3l-1,1.5l-1.2-1.4l-0.9,1.4l-1.1-1.3l-1.1,1.3l-0.9-1.4l-1.2,1.4l-1-1.5l-1.1,1.3l-1-1.5l-1.1,1.3l-1-1.4
		l-1.2,1.4l-0.9-1.4l-1.2,1.4L37,62l-1.1,1.3l-1-1.4l-1.2,1.4l-1-1.6l-1.1,1.3l-1-1.5L29.3,63l-1-1.5l-1.2,1.4L26,61.2l-1.1,1.3
		L23.8,61l-1.2,1.4l-1.1-1.6l-1.2,1.4l-1.2-1.7l-1.2,1.5l-1.2-1.8l-1.1,1.3l-1.1-1.7c-0.1,0-0.1,0-0.2,0L13.2,61l-1.1-1.7
		c-0.1,0-0.3-0.1-0.4-0.1l-1.1,1.2l-1.1-1.7c-0.2,0-0.3-0.1-0.5-0.1l-0.8,1.2L7,58.2c-0.1,0-0.1-1.2-0.1-2.5H5v-4.5h1.8c0,0,0,0,0,0
		L93,51.2C93,51.2,93,51.2,93,51.2z M7.6,49.5l0.6-11.6c0-1-0.8-1.8-1.8-1.8s-1.8,0.8-1.8,1.8l0.6,11.6C6.3,49.5,6.4,49.5,7.6,49.5z
		 M94.8,49.5l0.6-11.6c0-1-0.8-1.8-1.8-1.8c-1,0-1.8,0.8-1.8,1.8l0.6,11.6C93.6,49.5,93.7,49.5,94.8,49.5z"/>
</g>
<g id="Layer_44" display="none">
	<path display="inline" d="M31.3,59.8c0,0-0.3,0.5-0.1,1.1c0.3,0.8,0,1.7-1.7,3.6l-6.1,7.2c-6.3,6.9-3.1,10.7-3.1,10.7
		c4.1,5.3,8.7,0.1,8.7,0.1c0.6-0.6,0.2-0.8,0.2-0.8l-0.3-0.3c-2.6-1.6-1.8-3.9-1.8-3.9c0.8-3.2,7.8-10.1,7.8-10.1l6.3-6.2l-6.2-5.8
		L31.3,59.8z M26.4,74c-0.3,0.4-0.9,0.5-1.3,0.2c-0.4-0.3-0.5-0.9-0.2-1.3c0.3-0.4,0.9-0.5,1.3-0.2C26.6,73,26.7,73.5,26.4,74z
		 M35.8,61.4c-0.3,0.4-0.9,0.5-1.3,0.2c-0.4-0.3-0.5-0.9-0.2-1.3c0.3-0.4,0.9-0.5,1.3-0.2C36,60.4,36.1,60.9,35.8,61.4z M45.6,57.6
		l-3.7,2.9l-6.3-5.9c0,0,7.5-9.5,17.4-18.4c0,0,2.9-2.5,5.8-2.9c0,0,1.1-0.1,1-1.3l-0.2-0.7c0,0-0.3-0.7,0.6-1.2l3.3-2.3
		c0,0,4.1-2.1,1.7-5.4c0,0-1.7-2.5-4.4-3c0,0-0.9-0.2-0.8-1.2c0,0,0.2-2,2.8-2.8c0,0,7-3.5,16.9,12.8l1.2,2.3
		c1.1,1.7,0.3,2.1,0.3,2.1c-1.3,1.2-2.6,1.6-2.6,1.6c-2.3-0.6-12.5,7-12.5,7l-18.9,14C45.9,56.3,45.6,57.6,45.6,57.6"/>
</g>
<g id="Layer_46" display="none">
	<path display="inline" d="M40.5,38.6c6.8,6.8,12.1,12.5,12.1,12.5c0.9,0.9,1.2,1.9,1.2,1.9c-0.1,0.1,0,0.2,0,0.2s1,1.7,3.2,3.6
		c5.7,5,8,8.3,8,8.3c4,5,6.3,12.6,6.3,12.6s0.2,0.7,0.7,0.6c3.5-0.9,7.9-4,7.9-4c0.7-0.5,0.1-0.9,0.1-0.9l-2.1-2
		c-2.6-2.5-5.1-6.7-5.1-6.7c-6.6-9.4-12.2-13.7-15-15.5c0,0-0.2-0.1-0.3,0.1l-1.6-1.1c-2.8-2-6.6-6.2-6.6-6.2
		c-5.8-6.6-6.1-9.1-6.1-9.1c-0.6-1.8-0.2-2.2-0.2-2.2l1.3-1.3l0.2-0.2c0.2-0.2,0.2-0.4,0.2-0.4l0-0.5c0-0.3-0.1-0.4-0.1-0.4
		c-2.8-3.3-5.7-5.9-5.7-5.9c-0.7-0.7-1.2,0-1.2,0S30.1,31.2,21,36.7l-0.3,0.2c-1.1,0.5-1,1.3-1,1.3c0.2,2.5,3.6,5.5,3.6,5.5
		c5.2,4.9,9,4.7,9,4.7c0.3,0,0.3-0.3,0.3-0.3l0.1-0.6c0.9-4,3.1-7.8,3.1-7.8c2.1-2.9,4.3-1.3,4.3-1.3S40.3,38.4,40.5,38.6z"/>
</g>
<g id="Layer_47" display="none">
	<path display="inline" d="M71.9,75.7c-0.2,0.1-0.8,0.3-1.3,0.2c-0.1-0.2-0.1-0.4-0.2-0.6c0.5,0,1.1-0.2,1.2-0.3
		c2.3-0.8,5.3-2.7,5.4-2.8c0.5-0.3,0.9-0.7,1-0.9l0.6,0.6c-0.2,0.2-0.5,0.5-0.9,0.8C77.7,72.8,74.4,74.8,71.9,75.7L71.9,75.7z
		 M59.8,50.5c-0.3,0.3-2.2,2.4-4.6,4.4c0.1,0.2,0.3,0.3,0.5,0.5c2.2-1.9,4.1-3.9,4.7-4.5C60.1,50.8,60,50.7,59.8,50.5z M57.8,49.2
		c0,0-0.2-0.1-0.3,0.1l-1.5-1.1c-2.8-2-6.6-6.1-6.6-6.1c-5.7-6.6-6.1-9.1-6.1-9.1c-0.6-1.7-0.2-2.2-0.2-2.2l1.3-1.3l0.2-0.2
		c0.2-0.2,0.2-0.4,0.2-0.4l0-0.5c0-0.3-0.1-0.4-0.1-0.4c-2.8-3.3-5.7-5.9-5.7-5.9c-0.7-0.7-1.1,0-1.1,0s-7.5,9.2-16.6,14.6l-0.3,0.2
		c-1.1,0.5-1,1.3-1,1.3c0.2,2.5,3.6,5.5,3.6,5.5c5.2,4.9,8.9,4.6,8.9,4.6c0.3,0,0.3-0.3,0.3-0.3l0.1-0.6c0.9-4,3.1-7.8,3.1-7.8
		c2.1-2.9,4.3-1.3,4.3-1.3s0.2,0.1,0.4,0.3c6.8,6.8,12,12.4,12,12.4c0.9,0.9,1.2,1.8,1.2,1.8c-0.1,0.1,0,0.2,0,0.2s0.3,0.6,1,1.4
		c2.2-1.9,4.1-3.9,4.5-4.3C58.7,49.8,58.2,49.4,57.8,49.2z M71.4,74.6c2.3-0.8,5.3-2.8,5.3-2.8c0.5-0.3,0.8-0.6,0.9-0.8
		c-2.5-2.5-4.9-6.5-4.9-6.5c-4.7-6.7-8.9-10.8-11.9-13.2c-0.5,0.5-2.5,2.6-4.7,4.5c0.3,0.3,0.6,0.6,0.9,0.8c5.7,5,7.9,8.3,7.9,8.3
		c2.4,3.1,4.3,7.1,5.3,9.8C70.6,74.9,71.2,74.7,71.4,74.6L71.4,74.6z M79.9,73.2L79,72.4c-0.2,0.2-0.5,0.6-1,0.9
		c-0.1,0.1-3.3,2.1-5.8,3c-0.1,0-0.7,0.3-1.3,0.3c0.2,0.7,0.3,1,0.3,1s0.2,0.7,0.7,0.6c3.5-0.9,7.9-4,7.9-4
		C80.5,73.6,79.9,73.2,79.9,73.2z"/>
</g>
<g id="Layer_48" display="none">
	<g display="inline">
		<path d="M77.7,76.5l1.4-1.4c0,0,0.8-0.7,0-1.9C67.1,55.8,41.4,30.3,41.4,30.3l0,0c0.1-0.1,0.2-0.2,0.2-0.2l1.5-1.5
			c0.2-0.2,0-0.5,0-0.5c-1.5-2.5-5.2-5.5-5.2-5.5c-0.3-0.3-0.6,0-0.6,0l-1.8,1.7L35,23.8c0,0-0.2-0.2-0.5,0
			c-3.1,2.3-5.3,5.3-5.3,5.3c-0.2,0.3,0,0.5,0,0.5l0.5,0.5l-1.6,1.7c-4.6,5.5-7.3,7.9-7.3,7.9c-0.5,0.5-0.2,0.8-0.2,0.8
			s4.9,5.8,11.4,8.6c0.9,0.4,0.7-0.3,0.7-0.3c-1.1-4.9,0.6-12.1,0.6-12.1c0,0,0,0,0,0c0,0,0.1-0.5,0.5-0.8l0.1-0.1
			c0,0,0.3-0.3,0.8-0.4l2.1,2.1c0,0,1.7,1.7,7.7,7.1c0,0,4.5,4,7,6.5c12.9,12.6,14.6,15.5,14.6,15.5c3,3.7,3.7,8.3,3.7,8.3l0.5,1.7
			c0,0,0.5,1.1,1.4,1l5.1-0.6C76.9,76.9,77.3,76.9,77.7,76.5z"/>
		<path d="M74,72.9c-0.4,0.4-1,0.4-1.3,0c-0.4-0.4-0.4-1,0-1.3c0.4-0.4,1-0.4,1.3,0C74.4,71.9,74.4,72.5,74,72.9z"/>
	</g>
</g>
<g id="Layer_49" display="none">
	<g display="inline">
		<path d="M36.2,23.7c-0.3,2.1-0.5,4.1-0.6,6c1.8,0,3.9,0.2,5.9,0.4l0,0l1.5-1.5c0.2-0.2,0-0.5,0-0.5c-1.5-2.5-5.2-5.5-5.2-5.5
			c-0.3-0.2-0.6,0-0.6,0L36.2,23.7C36.2,23.7,36.2,23.7,36.2,23.7z"/>
		<path d="M29.5,29.8c0.6,0,2.7-0.2,5.4-0.1c0.1-1.7,0.3-3.6,0.5-5.5L35,23.8c0,0-0.2-0.2-0.5,0c-3.1,2.3-5.3,5.3-5.3,5.3
			c-0.2,0.3,0,0.5,0,0.5L29.5,29.8z"/>
		<path d="M78.9,73.1c-10.8-15.8-33.1-38.3-37-42.2c-2.2-0.3-4.5-0.5-6.4-0.5c-0.1,2.5-0.1,4.6-0.1,5.5l1.5,1.5c0,0,1.7,1.7,7.7,7.1
			c0,0,4.5,4,7,6.5c12.9,12.6,14.5,15.5,14.5,15.5c3,3.7,3.7,8.3,3.7,8.3l0.5,1.7c0,0,0.5,1.1,1.4,1l5.1-0.6c0,0,0.3,0,0.7-0.5
			l1.3-1.4C78.9,75,79.8,74.4,78.9,73.1z"/>
		<path d="M34.8,30.4c-3.1,0-5.4,0.1-5.5,0.1c0,0,0,0-0.1,0l-1.1,1.2c-4.6,5.5-7.3,7.9-7.3,7.9c-0.5,0.5-0.2,0.8-0.2,0.8
			s4.9,5.8,11.4,8.6c0.9,0.4,0.7-0.3,0.7-0.3c-1.1-4.9,0.6-12,0.6-12c0,0,0,0,0,0c0,0,0.2-0.5,0.5-0.8l0.1-0.1c0,0,0.2-0.2,0.6-0.3
			C34.7,34.3,34.7,32.5,34.8,30.4z"/>
	</g>
</g>
<g id="Layer_50" display="none">
	<path display="inline" d="M67.3,8.9c0,0,4.3,0.6,9.2,5c0,0,1.9,1.6,4.6,4.6l0.5,0.5c3.3,3.9,9.3,8.2,9.3,8.2
		c0.9,0.6,1.5,1.2,1.5,1.2c0.7,0.7,0.1,1.6,0.1,1.6s-4.2,6.4-10.7,10c0,0-0.6,0.4-1-0.6c0,0-1.6-5.7-6.4-11.9c0,0,0,0,0,0l-5.1,5.8
		c0,0-4.5,5.2-7.4,8.2l-7.9,7.8C49.7,53.2,38.4,63,38.4,63c-5.3,4.6-8.3,7.6-8.3,7.6c-5.5,5.8-9.1,11.7-9.1,11.7s-1.6,2.4-2.6,6.3
		c0,0-0.1,0.7-0.6,1.2c-0.8,0.8-2.2,1.5-6,1.8c0,0-3.1,0.4-4.1-1.2c-1.1-1.6,2.2-4.8,2.2-4.8s1-0.9,2.2-2.7l0-0.1
		c0,0,5.4-8.3,13.4-16.4c0,0,4.4-4.4,12.1-10.7l2.6-2.3c12.7-10.8,21.7-21.9,21.7-21.9s1.4-1.7,2.3-3.6c0.9-1.9,1.4-2.7,4.2-5.6
		l0.4-0.4c0,0-1.5-1.3-2.4-1.9l-0.3-0.2c-0.1-0.1-0.1-0.2-0.1-0.2l3-3.6c0,0,0.5-0.5-0.2-1.2c-3.9-3.5-7.7-6.3-7.7-6.3
		S61,8.6,61.1,8.5C61.1,8.5,61.1,7.7,67.3,8.9z"/>
</g>
<g id="Layer_51" display="none">
	<g display="inline">
		<path d="M44.2,12.8h26.7v-2.1h-4.5c-1-0.1-2.5-1.9-2.5-1.9c-0.2-0.3-0.4-0.4-0.4-0.4L36.3,8.3h-1.1c0,0-0.4,0.1-0.4,0.5v3.4l1.5,0
			v6.9h-1.4l0,19.6h1.4l0,52.9l6,0l0-52.9H45c0,0,1.2,0.2,1.2-0.8c0-0.5-0.3-0.7-0.3-0.7s-0.5-0.3-0.6-0.5c0,0-0.1-0.1-0.2-0.2
			c-0.4-0.5-0.6-1.1-0.7-1.7c0,0,0-1.7,0-1.7c0-0.8,0.4-1.6,1.1-2v-0.5h2v1c0,0.3,0.2,0.5,0.5,0.5h0.8c0.3,0,0.5-0.2,0.5-0.5v-3.4
			c0-0.3-0.2-0.5-0.5-0.5h-0.8c-0.3,0-0.5,0.2-0.5,0.5v1h-2v-0.5c-0.1-0.1-0.3-0.3-0.3-0.3c-0.4-0.4-0.7-1.1-0.7-1.7
			c0-1.7,1.4-3,3-3l16.2,0c0,0,0.1-0.1,0.4-0.4c0,0,1.3-1.9,2.4-2l4.5,0v-2H42.2v-4.9C42.2,12.8,44.2,12.8,44.2,12.8z M41,34
			c0,1-0.8,1.8-1.8,1.8c-1,0-1.8-0.8-1.8-1.8v-8.5c0-1,0.8-1.8,1.8-1.8c1,0,1.8,0.8,1.8,1.8V34z"/>
	</g>
</g>
<g id="Layer_52" display="none">
	<path display="inline" d="M95.9,53.2c0,0-6.3,1.6-11.7,5.6c0,0-0.4,0.4-1.2,0.4h-5l-3-2.4L74.1,56c1.6-1.6,2.4-3.2,2.8-4.1h1.8
		l1,0.8h16.2C97.2,52.7,95.9,53.2,95.9,53.2z M3.5,40.8c0-0.4,0.3-0.6,0.6-0.6c0.1,0,0.3,0.1,0.4,0.1l0,0c3.2,2.5,21.5,0.5,21.5,0.5
		c14.8-1,26.5-1.1,26.5-1.1c13.8,0,20.4,6.2,20.4,6.2h2l3-2.4h5c0.8,0,1.2,0.4,1.2,0.4c5.3,4.4,11.7,6.4,11.7,6.4s1.3,0.5,0,0.5
		H76.1c0,0-2.6,9.3-16.1,9.3c-11.3,0-23-2.2-23-2.2s-15.7-2.3-30.3,1.2c0,0-1.2,0.5-1.9,0.9c0,0,0,0-0.1,0c-0.1,0.1-0.3,0.2-0.4,0.2
		c-0.4,0-0.7-0.3-0.7-0.7C3.5,59.3,3.8,59,4,59c0.9-0.5,8.1-4.3,28.6-4.8c0,0,9.8,0.2,20.7,1.1c10.9,0.9,13-2.6,13-2.6
		c0.3-0.9,0.3-2.3,0.3-2.3c0-0.7,0.2-1.7,0.2-1.7s-0.3-3.9-12.1-4.5c-10.5-0.5-20-0.6-20-0.6c-23.4,1.2-29.9-1.8-30.6-2.2
		c0,0,0,0-0.1,0c0,0,0,0,0,0l0,0C3.7,41.2,3.5,41,3.5,40.8z M69.2,50.9c0,0.9,0.7,1.6,1.6,1.6c0.9,0,1.6-0.7,1.6-1.6
		c0-0.9-0.7-1.6-1.6-1.6C70,49.3,69.2,50,69.2,50.9z"/>
</g>
<g id="Layer_53" display="none">
	<path display="inline" d="M73.8,17.7l-0.9,0c-10,0-18.1-7.7-18.1-7.7H53V9c0-0.6-0.3-1-0.9-1h-4.2C47.3,8,47,8.4,47,9v1h-1.9
		c0,0-8.1,7.5-18.1,7.5l-0.9,0.2c-2.1,0-2.1,2.3-2.1,2.3H47v71.6l6,0V20h22.9C75.9,20,75.9,17.7,73.8,17.7z M50,88.4
		c-0.5,0-1-0.4-1-1c0-0.5,0.4-1,1-1c0.5,0,1,0.4,1,1C51,87.9,50.5,88.4,50,88.4z"/>
</g>
<g id="Layer_54" display="none">
	<path display="inline" d="M47.1,24.7c-1.3,1.9-3.8,5.1-7.4,7.4l0,0c-3.5-2.7-5.3-5.3-5.3-5.3l0,0c2.3-3.6,5.4-6.1,7.4-7.4l0,0
		C41.7,19.3,44.4,21.2,47.1,24.7z M32.8,39.6C31,37.1,33,35.2,33,35.2s1.3-1.3,2.8-2.1c0.6,0.6,0.8,0.6,2.3-0.1
		c0.3-0.1,0.6-0.3,0.8-0.5c-2.9-2.2-4.6-4.4-5.1-5.1c-0.2,0.3-0.3,0.5-0.5,0.8c-0.8,1.5-0.7,1.8-0.1,2.3c-0.8,1.5-2.1,2.8-2.1,2.8
		s-3.8,3.7-0.9,7.9l5.2,7.2c4.8,6.2,1.2,12.5,1.2,12.5s0.2,0.2,0.7,0.7l-8.3,8.3c-0.5,0.1-1,0.1-1,0.1c-0.9,0-0.4,0.4-0.4,0.4
		l0.3,0.3c0.1,0.1,0.1,0.2,0.1,0.3l-1.5,1.5c-0.5,0.1-1.1,0.1-1.1,0.1c-1-0.1-0.5,0.5-0.5,0.5l0.3,0.3c0.1,0.1,0.1,0.2,0.2,0.3
		L24,75.1c-0.5,0.1-1.1,0.1-1.1,0.1c-1-0.1-0.5,0.5-0.5,0.5l0.3,0.3c0.1,0.1,0.1,0.2,0.1,0.3l-1.6,1.6C20.7,78,20.1,78,20.1,78
		c-1-0.1-0.5,0.5-0.5,0.5l0.3,0.3c0.1,0.1,0.1,0.2,0.2,0.3l-1.6,1.6c-0.5,0.1-1.1,0.1-1.1,0.1c-1-0.1-0.5,0.5-0.5,0.5l0.3,0.3
		c0.1,0.1,0.1,0.2,0.1,0.3l-1.6,1.6c-0.5,0.1-1.1,0.1-1.1,0.1c-1-0.1-0.5,0.5-0.5,0.5l0.3,0.3c0.1,0.1,0.1,0.2,0.1,0.3l-1.5,1.5
		c-0.5,0.1-1,0.1-1,0.1c-0.9-0.1-0.4,0.4-0.4,0.4l0.3,0.3c0.1,0.1,0.1,0.2,0.1,0.3l-0.6,0.6l-1.4,2.3l2.3-1.4l1.8-1.8
		c0.9-0.1,1.1-0.8,1.1-1.1l1.4-1.4l0.1,0c1.3,0,1.3-1.2,1.3-1.4l1.3-1.3l0.1,0c1.3,0,1.3-1.2,1.3-1.4l1.3-1.3l0.1,0
		c1.3,0,1.3-1.2,1.3-1.4l1.3-1.3l0.1,0c1.3,0,1.3-1.2,1.3-1.4l1.3-1.3l0.1,0c1.3,0,1.3-1.2,1.3-1.4l1.3-1.3c1-0.1,1.1-0.8,1.1-1.1
		l7.1-7.1c0.1,0.1,0.3,0.3,0.5,0.5c0.7,0.7,1.4-0.1,1.4-0.1l5.9-6c0.6-0.6,0.1-1.3,0.1-1.3L32.8,39.6z M86,14.3l-0.2-0.2
		c-0.9-0.9-6.4-5.6-9.1-3C75.1,12.7,76,15,77,16h0.2c0.9,0,2.3,0.9,4.1,2.7c1.9,1.9,2.8,3.3,2.8,4.2l0,0.1c1.3,1,3.4,1.9,5,0.3
		C91.7,20.7,86.9,15.2,86,14.3z M80.6,19.4c-1.8-1.8-2.7-2.3-3.2-2.4c0.1,0.4,0.5,2.1-0.5,3.1l-2,2c0,0-0.7,0.8-0.5,1.3l-1.4,1.4
		c0,0-2.5,2.5-5.5,0l-9.7-8.2c-4.1-3.2-7.8-1.3-7.8-1.3c-1.3,0.6-2.6,1.8-2.6,1.8c-0.6,0.6-1.3,0.9-1.7,1.1
		c-0.6-0.5-1.4-0.3-2.3,0.2c0,0-0.4,0.2-1.1,0.6c0.7,0.5,2.9,2.3,5.2,5.2c0.4-0.7,0.6-1.1,0.6-1.1c0.4-0.8,0.6-1.5,0.3-2.1
		c0.3-0.8,1.5-2.9,3.7-3.3c0,0,2-0.5,3.7,0.9l9.6,8.2c5.6,4.6,9.7,0.4,9.7,0.4l1.6-1.6c0.4,0.2,1.2-0.5,1.2-0.5l2-2
		c1-1,2.6-0.6,3-0.5C82.9,22.2,82.5,21.3,80.6,19.4z"/>
</g>
<g id="Layer_55" display="none">
	<path display="inline" d="M20.7,80.5L19,82.1l-3.2,0.8l1.6-1.6L20.7,80.5z M15.2,83.6l-1.6,1.6l3.2-0.8l1.6-1.6L15.2,83.6z
		 M12.9,85.9l-1.6,1.6l3.2-0.8l1.6-1.6L12.9,85.9z M87.1,13.3c-2.7-2.7-6.1-3.6-7.6-2.1l-0.4,0.4c0,0,3.4,3.4-1,8.2
		c0,0-1.2,1.3-1.7,1.5c-0.2,0-0.6,0.2-0.8,0.4l-0.2,0.2c-0.3,0.3-0.5,1-0.1,1.3l0.1,0.1c0,0-2.7,2.7-5.9,1.2l-12-5.6l-0.1,0
		c-4-1.4-7,1.1-7.5,1.6c-0.8-0.8-2-0.8-2.8,0l-6.8,6.8c-0.8,0.8-0.8,2,0,2.8l0,0l-0.5,0.5c-0.2,0.2-2.3,2.5-1,7.8l4,13.4
		c0.8,2.7-0.8,4.6-0.9,4.7l-1.8,1.8l-0.6-0.6c0,0-0.6-0.5-1.1,0l-2.9,2.9c0,0-0.6,0.1-1,0.6c0,0-2.8,0.3-4.2,3.8c0,0-1.4,3.2-1,3.7
		l0.4,0.4l-9.3,9.3l3.2-0.8l7.4-7.4l0.3,0.3c0.4,0.4,3.7-1,3.7-1c3.5-1.4,3.8-4.2,3.8-4.2c0.5-0.4,0.6-1,0.6-1l2.9-2.9
		c0.4-0.4,0-1.1,0-1.1l-0.5-0.5l1.8-1.8c0.1-0.1,2.7-2.9,1.5-7l-4-13.4c-0.5-2.1-0.4-3.6-0.1-4.4c0.2-0.8,0.5-1.2,0.6-1.2l0.5-0.5v0
		c0.8,0.8,2,0.8,2.8,0l6.8-6.8c0.8-0.8,0.8-2,0-2.8l0,0c0.4-0.3,2.4-2,5.1-1l12,5.5c4.6,2.2,8.3-1.5,8.5-1.6l0.1,0.1
		c0.3,0.3,1,0.2,1.3-0.1l0.2-0.2c0.2-0.2,0.4-0.5,0.4-0.7c0.2-0.5,1.5-1.7,1.5-1.7c4.8-4.4,8.2-1,8.2-1l0.4-0.4
		C90.7,19.3,89.8,15.9,87.1,13.3z M19.8,78.9l-1.6,1.6l3.2-0.8l1.6-1.6L19.8,78.9z M10.8,88.2c-0.1,0.4-0.4,1.4-0.4,1.4l1.6-0.4
		l1.7-1.7L10.8,88.2z"/>
</g>
<g id="Layer_56" display="none">
	<g id="Layer_56_1_" display="inline">
		<path d="M86.5,7.9l-8.2,8.2c-0.9,1.5-2,2.7-2,2.7L65.4,29.7c-0.2,0.2-1,0-1,0c-0.6,0-0.7,0.6-0.7,0.6c-0.7,3.1-2,4.3-2,4.3l-1,1
			c-1.4,1.4-2.9,0.9-2.9,0.9c-1.7-0.7-3-0.6-4-0.4l-0.4-0.3l-1.1-0.1l-1-0.5l-1.1,0.1l0-2.3c1.7-0.7,2.8-2.3,2.9-4.2
			c0.1-2.6-2.1-4.8-4.9-4.9c-2.8-0.1-5.1,2-5.2,4.6c0,1.8,0.9,3.3,2.4,4.2l-0.1,2.3l-0.5-0.1l-1,0.5l-1.1,0l-0.9,0.6l-1.1,0.1
			L39.9,37l-1.1,0.3l-0.7,0.8l-1,0.4l-0.6,0.9l-0.1,0l-0.1,0l0,0l-0.9,0.5L35,40.8l0,0l0,0.1l0,0L34,41.5l-0.4,1l-0.8,0.7l-0.3,1.1
			l-0.7,0.8l-0.1,1.1l-0.6,0.9l0,1.1l-0.5,1l0.2,1.1l-0.4,1.1l0.3,1.1l-0.2,1.1l0.4,1l-0.1,1.1l0.5,1l0.1,1.1l0.5,0.7L31.6,59
			l-1.3,1.3c0,0-0.6,1.4,0.4,3.2c0,0,0.7,1.3-0.3,2.3l-3.8,3.8c0,0-0.2,0.3,0,0.5l0.4,0.4l-1.4,1.4l-0.2-0.2l-0.9,0.9l-0.7-0.7
			c0,0-0.9-0.7-1.6,0.1l-3.5,3.5l-1.9,4.2c0,0-0.1,0.5,0.2,0.9l0.3,0.3l-0.5,1c0,0-0.1,0.2,0.1,0.5l-9.1,9.1l-0.1,0.9l0.9-0.2
			l9.1-9.1c0.3,0.2,0.5,0.1,0.5,0.1l1-0.5l0.3,0.3c0.4,0.4,0.9,0.2,0.9,0.2l4.2-1.9l3.5-3.5c0.8-0.8,0.1-1.6,0.1-1.6l-0.7-0.7
			l0.9-0.9l-0.2-0.2l1.4-1.4l0.4,0.4c0.3,0.3,0.5,0,0.5,0l3.8-3.8c1.1-1.1,2.3-0.3,2.3-0.3c1.8,1,3.2,0.4,3.2,0.4l1.3-1.3l0.4-0.4
			l0.4,0.3l1.1,0.1l1,0.5l1.1-0.1l1,0.4l1.1-0.2l1.1,0.3l1.1-0.4l1.1,0.2l1-0.5l1.1,0l0.9-0.6l1.1-0.1l0.8-0.7l1.1-0.3l0.7-0.8
			l1-0.4l0.6-0.9l1-0.5l0.5-1l0.9-0.6l0.4-1l0.8-0.8l0.3-1.1l0.7-0.8l0.1-1.1l0.6-0.9l0-1.1l0.5-1l-0.2-1.1l0.4-1.1l-0.3-1.1
			l0.2-1.1l-0.4-1l0.1-1.1l-0.5-1l-0.1-1.1l0,0c0.2-0.9,0.3-2.3-0.4-4.1c0,0-0.5-1.5,0.9-2.9l1-1c0,0,1.2-1.3,4.3-2
			c0,0,0.6-0.1,0.6-0.7c0,0-0.2-0.8,0-1l10.9-10.9c0,0,1.2-1.1,2.7-2l8.2-8.2c0,0,1.3-1.6-1.1-3.9L90.4,9
			C88.1,6.7,86.5,7.9,86.5,7.9z M31.2,69.8c-0.3,0.3-0.7,0.3-1,0c-0.3-0.3-0.3-0.7,0-1c0.3-0.3,0.7-0.3,1,0
			C31.4,69.1,31.4,69.5,31.2,69.8z M42.4,47.4c0-2-1.8-4.1-2.7-4.9c1.6-1.3,3.5-2.1,5.4-2.5l-0.2,4.7c-0.7,1.3-1,3-0.7,4.6
			c-0.2,0.2-0.3,0.5-0.5,0.7C43,49.1,42.4,48.1,42.4,47.4z M49.2,50.4c0.9,0.9,0.9,2.4,0,3.3c-0.9,0.9-2.4,0.9-3.3,0
			c-0.9-0.9-0.9-2.4,0-3.3C46.8,49.5,48.3,49.5,49.2,50.4z M38.2,44c0.7,0.7,2,2.2,2,3.4c0,1.7,1.3,3.8,3,5c0,0.3,0.1,0.5,0.1,0.8
			c-1.1,0-2.2-0.4-2.8-0.9c-1.5-1.4-4.2-1.6-5.3-1.6C35.5,48.3,36.5,46,38.2,44z M35.2,52.9c1,0,3,0.2,3.8,1
			c1.2,1.2,3.5,1.7,5.6,1.4c0.2,0.2,0.4,0.3,0.7,0.5c-0.8,0.7-1.8,1.3-2.5,1.3c-2,0-4.1,1.8-4.9,2.7C36.3,57.8,35.4,55.4,35.2,52.9z
			 M46.2,64.2c-2.4-0.2-4.8-1.2-6.7-2.9c0.9-0.9,2.3-2,3.4-2c1.4,0,3-0.9,4.2-2.1c0.3-0.3,0.5-0.5,0.7-0.8c0.3,0,0.6-0.1,0.9-0.1
			c-0.1,1.1-0.4,2.1-0.9,2.6C46.3,60.4,46.2,63,46.2,64.2z M55.2,61.5c-2,1.6-4.4,2.5-6.8,2.7c0-1.2,0.2-3.1,1-3.8
			c1.2-1.2,1.7-3.4,1.4-5.4c0.2-0.2,0.4-0.5,0.6-0.7c0.7,0.8,1.2,1.7,1.2,2.5C52.6,58.7,54.4,60.7,55.2,61.5z M56.7,60
			c-0.9-0.9-2-2.3-2-3.4c0-1.7-1.2-3.6-2.8-4.8c0-0.3-0.1-0.6-0.2-0.9c1,0.1,2,0.4,2.6,0.9c1.5,1.4,4.2,1.6,5.3,1.6
			C59.4,55.7,58.4,58,56.7,60z M59.7,51.1c-1.2,0-3.1-0.2-3.8-1c-1.2-1.2-3.4-1.7-5.4-1.4l0-1.1c0.6-0.4,1.2-0.6,1.7-0.6
			c2,0,4-1.8,4.8-2.6c0,0,0,0,0,0C58.6,46.3,59.5,48.7,59.7,51.1z M52.1,44.8c-0.5,0-1.1,0.2-1.7,0.4l0-5c1.8,0.4,3.6,1.3,5.1,2.6
			C54.7,43.4,53.2,44.7,52.1,44.8z"/>
	</g>
</g>
<g id="Layer_57" display="none">
	<path display="inline" d="M87.3,16.4c0,0-6.4,4.4-13.1,10.6c0,0-6.9,6.7-13.2,14c0.3,0.4,0.3,1-0.1,1.4l-2.1,2.1
		c-0.4,0.4-1,0.4-1.4,0.1c0,0.1,0,0.3,0,0.4c0,0.3-0.1,0.5-0.2,0.7c0,0-20.8,27.1-30.6,35.9c0,0,0,0,0,0c-5.2,5.2-8.6,3.6-11.5,0.7
		c-2.9-2.9-4.6-6.3,1-11.9c0,0,0,0,0,0c9.2-10,35.6-30.3,35.6-30.3c0.1-0.1,0.2-0.1,0.3-0.2c0.2-0.1,0.5-0.1,0.7,0
		c-0.3-0.4-0.3-1,0.1-1.4l2.1-2.1c0.4-0.4,0.9-0.4,1.3-0.2c0.7-0.4,6.3-3.8,11.6-9.1c5.7-5.7,9.5-11.7,9.5-11.7s0.3-0.5,0.7-0.4
		l9.2,0.8C87.3,15.8,88,15.9,87.3,16.4z"/>
</g>
<g id="Layer_58" display="none">
	<path display="inline" d="M60.1,42.5c0.2,0.4,0.2,1-0.2,1.3L57.8,46c-0.4,0.4-1,0.4-1.4,0.1c0,0.1,0,0.2,0,0.4
		c0,0.3-0.1,0.5-0.2,0.7c0,0-20.7,27-30.6,35.8c0,0,0,0,0,0c-5.2,5.2-8.6,3.6-11.5,0.7c-2.9-2.9-4.6-6.3,1-11.8c0,0,0,0,0,0
		c9.2-10,35.5-30.2,35.5-30.2c0.1-0.1,0.2-0.1,0.3-0.2c0.2-0.1,0.5-0.1,0.7,0c-0.3-0.4-0.3-1,0.1-1.4l2.1-2.1
		c0.3-0.3,0.7-0.4,1.1-0.3c-0.1-0.9,0-2.2,1.2-3.3c0,0,19.1-19.1,22.8-20.7l9.3,1.7C74,27.6,62.4,40,60.1,42.5z"/>
</g>
<g id="Layer_59" display="none">
	<path display="inline" d="M85.7,12.5c-5.3,4.4-6,10.3-6,10.3c-0.2,1.5-0.3,2-0.9,2.6c-0.4,0.4-16.5,14.9-18.8,17.4
		c0,0.3,0,0.7-0.3,0.9l-2.1,2.1c-0.4,0.4-0.9,0.4-1.4,0.1c0,0.1,0,0.2,0,0.4c0,0.3-0.1,0.5-0.2,0.7c0,0-20.5,26.7-30.2,35.5
		c0,0,0,0,0,0c-5.1,5.1-8.5,3.5-11.4,0.7c-2.8-2.8-4.5-6.3,1-11.7c0,0,0,0,0,0c9.1-9.9,35.2-29.9,35.2-29.9c0.1-0.1,0.2-0.1,0.3-0.2
		c0.2-0.1,0.4-0.1,0.7,0c-0.3-0.4-0.3-1,0.1-1.4l2.1-2.1c0.2-0.2,0.5-0.3,0.8-0.3C60,31,62,28.9,69.1,21.8
		c8.8-8.8,16.1-9.9,16.1-9.9C86.7,11.7,85.7,12.5,85.7,12.5z"/>
</g>
<g id="Layer_60" display="none">
	<path display="inline" d="M51.6,45.6h26.8L64.6,34.1h-13v-10c0-1.1-0.9-1.3-2-1.3c-1.1,0-2,0.2-2,1.3v10h-9.9v-6.7
		c1.2-0.1,2.2-1.1,2.2-2.3V7.6c0-1.3-1-2.3-2.3-2.3h-3.8c-1.3,0-2.3,1-2.3,2.3v17.6c0,1.2,1,2.2,2.2,2.3v6.7h-2.5
		c0,0-1.5,0.1-1.5,1.5v10h4V53h-4v10c0,1.4,1.5,1.5,1.5,1.5h2.5v11.4c0,1.1,0.9,1.3,2,1.3s2-0.2,2-1.3V64.5h9.9v8
		c-1.2,0.1-2.2,1.1-2.2,2.3v17.6c0,1.3,1,2.3,2.3,2.3h3.8c1.3,0,2.3-1,2.3-2.3V74.8c0-1.2-1-2.2-2.2-2.3v-8h13L78.4,53H51.6V45.6z
		 M37.6,53v-7.4h9.9V53H37.6z"/>
</g>
<g id="Layer_61" display="none">
	<path display="inline" d="M45.8,10.9l2.6,2.6c0,0,1.6,1.7-0.5,3.7l-1.7,1.7c-0.7,0.7-1.7,1.5-2.3,1.5l-1.3,0.3
		c-2.1,0.5-7.6,5.2-5.9,6.9l1.7,1.7c0,0,0.4,0.7,0.1,1.4l1,1.5c0,0,6.2,7,8.9,9.7l31.5,31.3c0,0,6.1,5.9,7.9,6.4
		c0,0,2.5,1.8,3.5,3.5c1,1.7-1.7,4.5-1.7,4.5s-2.8,2.7-4.5,1.7s-3.5-3.5-3.5-3.5c-0.5-1.9-6.4-7.9-6.4-7.9L43.8,46.4
		c-2.7-2.7-9.7-8.9-9.7-8.9l-1.4-1c-0.3,0.2-1,0.4-1.7-0.3l-1.1-1.1c0,0-2.3-3.1-7.4,1c-4.2,3.4-14,16.2-14,16.2s4.2-18.4,34.6-41.1
		C43.2,11.2,44.7,9.9,45.8,10.9z"/>
</g>
<g id="Layer_62">
	<path fill="#FF0000" d="M29.7,25.1l-0.4-0.4c-0.2-0.2-0.6-0.2-0.9,0l-3.7,3.7c-0.2,0.2-0.2,0.6,0,0.9l0.4,0.4
		c-3.1,3.9-11,14.6-16.3,29.4l0.6-0.8c0,0,9.9-14,20.2-23.8l0.2-0.2l0.1,0.1l0.5,0.5l3.6,3.6c1.2,1.2,2.6,1.7,2.6,1.7
		s0.9,1.1,4.5,5.2l43.7,43.7l0.2,0.2c1.8,1.8,3.7,2.8,5.5,1c1.8-1.7,0.8-3.6-1-5.4L45.4,41c-4.1-3.6-5.2-4.5-5.2-4.5
		s-0.5-1.3-1.7-2.6L35,30.4l-0.5-0.5l-0.1-0.1c9.8-10.3,24-20.4,24-20.4L59,8.8C44.2,14.1,33.6,21.9,29.7,25.1z"/>
</g>
</svg>
