<?xml version="1.0" encoding="utf-8"?>
<!-- Generator: Adobe Illustrator 17.1.0, SVG Export Plug-In . SVG Version: 6.00 Build 0)  -->
<!DOCTYPE svg PUBLIC "-//W3C//DTD SVG 1.1//EN" "http://www.w3.org/Graphics/SVG/1.1/DTD/svg11.dtd">
<svg version="1.1" xmlns="http://www.w3.org/2000/svg" xmlns:xlink="http://www.w3.org/1999/xlink" x="0px" y="0px"
	 viewBox="0 0 100 100" enable-background="new 0 0 100 100" xml:space="preserve">
<g id="Layer_1" display="none">
	<g display="inline">
		<g>
			<path fill="#FF4E00" d="M49.9,50.5c-5.9,0-10.6,4.8-10.6,10.6c0,0.1,0,0.3,0,0.4c0,1.1,0.3,2.2,0.6,3.2c2.3,7.4,10,17.2,10,17.2
				s7.7-9.7,10-17.2c0.4-1,0.6-2.1,0.6-3.2c0-0.1,0-0.3,0-0.4C60.5,55.3,55.8,50.5,49.9,50.5z M55.8,57.5c0,0.6-0.1,1.2-0.3,1.8
				c-1.3,4.2-5.6,9.6-5.6,9.6s-4.3-5.4-5.6-9.6c-0.2-0.6-0.3-1.2-0.3-1.8c0-0.1,0-0.1,0-0.2c0-3.3,2.7-5.9,5.9-5.9s5.9,2.6,5.9,5.9
				C55.8,57.4,55.8,57.5,55.8,57.5z"/>
		</g>
	</g>
</g>
<g id="Layer_2" display="none">
	<path display="inline" fill="#FFFFFF" d="M52.7,26c0,0-1-0.8-2.7-0.8S47.3,26,47.3,26l-0.5-7.7h6.3L52.7,26z"/>
	<path display="inline" fill="#FFFFFF" d="M60.2,47.3V45c0-1-0.4-5.8-0.9-6.8c0,0-3.8-11.9-9.6-11.9c-5.8,0-9.6,11.9-9.6,11.9
		c-0.5,1-0.9,5.7-0.9,6.8v2.3C39.2,47.3,60.2,47.3,60.2,47.3z"/>
</g>
<g id="Layer_1_copy">
	<g>
		<g>
			<path fill="#FF4E00" d="M49.9,7.1c-16.1,0-29.1,13-29.1,29.1c0,0.3,0,0.7,0,1c0.1,3.1,0.7,6,1.7,8.7c6.2,20.4,27.4,47,27.4,47
				s21.2-26.6,27.4-47c1-2.7,1.6-5.7,1.7-8.7c0-0.4,0-0.7,0-1C79,20.1,66,7.1,49.9,7.1z M66.1,26.3c-0.1,1.7-0.4,3.3-0.9,4.9
				c-3.5,11.4-15.3,26.2-15.3,26.2S38.1,42.5,34.6,31.1c-0.5-1.5-0.9-3.2-0.9-4.9c0-0.2,0-0.4,0-0.6c0-9,7.3-16.2,16.2-16.2
				s16.2,7.3,16.2,16.2C66.1,25.9,66.1,26.1,66.1,26.3z"/>
		</g>
	</g>
</g>
</svg>
