<?xml version="1.0" encoding="utf-8"?>
<!-- Generator: Adobe Illustrator 17.1.0, SVG Export Plug-In . SVG Version: 6.00 Build 0)  -->
<!DOCTYPE svg PUBLIC "-//W3C//DTD SVG 1.1//EN" "http://www.w3.org/Graphics/SVG/1.1/DTD/svg11.dtd">
<svg version="1.1" id="Your_Icon" xmlns="http://www.w3.org/2000/svg" xmlns:xlink="http://www.w3.org/1999/xlink" x="0px" y="0px"
	 viewBox="0 0 500 500" enable-background="new 0 0 500 500" xml:space="preserve">
<g>
	<g>
		<path fill-rule="evenodd" clip-rule="evenodd" fill="#D03F2C" d="M361.5,236.5c-0.7-6-1.8-11.8-3.4-17.5l30.9-12.8l-9.9-24
			L348.2,195c-2.9-5.2-6.2-10.2-9.9-14.9l23.5-23.5l0,0l24-24l-18.4-18.4l-24,24l0,0l-23.4,23.4c-4.7-3.8-9.6-7.2-14.9-10.1
			l12.6-30.4l-24-9.9l-12.5,30.2c-5.8-1.7-11.7-2.9-17.8-3.7V0h-26v137.2c-6.2,0.6-12.2,1.8-18,3.4L207.2,111l-24,9.9l12.2,29.4
			c-5.4,3-10.6,6.4-15.5,10.2l-22.4-22.4l0,0l-24-24l-18.4,18.4l24,24l0,0l22.2,22.2c-3.9,4.8-7.4,10-10.5,15.4l-28.9-12l-9.9,24
			l28.8,11.9c-1.7,5.9-3,12.1-3.7,18.4H72v26h65.1c0.7,6.3,1.9,12.4,3.6,18.4L112,292.8l9.9,24l28.8-11.9
			c3.1,5.5,6.6,10.6,10.5,15.5l-22.1,22.1l0,0l-24,24l18.4,18.4l24-24l0,0l22.2-22.2c4.9,3.8,10.1,7.3,15.5,10.2L183.2,378l24,9.9
			l12.1-29.3c5.9,1.6,11.9,2.8,18.1,3.4V428h26v-66.2c6.1-0.8,12.1-2,17.9-3.7l12.4,29.9l24-9.9l-12.5-30.2
			c5.3-3,10.3-6.4,14.9-10.2l23.2,23.2l0,0l24,24l18.4-18.4l-24-24l0,0l-23.4-23.4c3.7-4.7,7-9.7,9.9-15l30.7,12.7l9.9-24L358.2,280
			c1.6-5.7,2.7-11.5,3.4-17.5H429v-26H361.5z"/>
	</g>
</g>
<ellipse fill-rule="evenodd" clip-rule="evenodd" fill="#FFFFFF" cx="251" cy="249.6" rx="90.1" ry="90.2"/>
</svg>
