<?xml version="1.0" encoding="utf-8"?>
<!-- Generator: Adobe Illustrator 17.1.0, SVG Export Plug-In . SVG Version: 6.00 Build 0)  -->
<!DOCTYPE svg PUBLIC "-//W3C//DTD SVG 1.1//EN" "http://www.w3.org/Graphics/SVG/1.1/DTD/svg11.dtd">
<svg version="1.1" id="Your_Icon" xmlns="http://www.w3.org/2000/svg" xmlns:xlink="http://www.w3.org/1999/xlink" x="0px" y="0px"
	 viewBox="0 0 100 100" enable-background="new 0 0 100 100" xml:space="preserve">
<path fill="#FF0000" d="M77.6,49l-13.5,0c0-0.5-0.1-1.1-0.2-1.6l6.8-1.8c0.5-0.1,0.9-0.7,0.7-1.3l0,0c-0.1-0.5-0.7-0.9-1.3-0.7
	l-6.8,1.8c-0.2-0.5-0.4-1-0.6-1.5l11.7-6.8c0.5-0.3,0.7-0.9,0.4-1.4l0,0c-0.3-0.5-0.9-0.7-1.4-0.4l-11.7,6.8c-0.3-0.4-0.6-0.9-1-1.3
	l5-5c0.4-0.4,0.4-1.1,0-1.5l0,0c-0.4-0.4-1.1-0.4-1.5,0l-5,5c-0.4-0.4-0.8-0.7-1.3-1l6.8-11.7c0.3-0.5,0.1-1.1-0.4-1.4l0,0
	c-0.5-0.3-1.1-0.1-1.4,0.4l-6.8,11.7c-0.5-0.2-1-0.4-1.5-0.6l1.8-6.8c0.1-0.5-0.2-1.1-0.7-1.3l0,0c-0.5-0.1-1.1,0.2-1.3,0.7
	l-1.8,6.8C52.1,36,51.6,36,51,35.9L51-28c0-0.6-0.5-1-1-1l0,0c-0.6,0-1,0.5-1,1v63.9c-0.5,0-1.1,0.1-1.6,0.2l-1.8-6.8
	c-0.1-0.5-0.7-0.9-1.3-0.7l0,0c-0.5,0.1-0.9,0.7-0.7,1.3l1.8,6.8c-0.5,0.2-1,0.4-1.5,0.6l-6.8-11.7c-0.3-0.5-0.9-0.7-1.4-0.4l0,0
	c-0.5,0.3-0.7,0.9-0.4,1.4l6.8,11.7c-0.4,0.3-0.9,0.6-1.3,1l-5-5c-0.4-0.4-1.1-0.4-1.5,0l0,0c-0.4,0.4-0.4,1.1,0,1.5l5,5
	c-0.4,0.4-0.7,0.8-1,1.3l-11.7-6.8c-0.5-0.3-1.1-0.1-1.4,0.4l0,0c-0.3,0.5-0.1,1.1,0.4,1.4l11.7,6.8c-0.2,0.5-0.4,1-0.6,1.5
	l-6.8-1.8c-0.5-0.1-1.1,0.2-1.3,0.7l0,0c-0.1,0.5,0.2,1.1,0.7,1.3l6.8,1.8C36,47.9,36,48.4,35.9,49l-13.5,0c-0.6,0-1,0.5-1,1l0,0
	c0,0.6,0.5,1,1,1l13.5,0c0,0.5,0.1,1.1,0.2,1.6l-6.8,1.8c-0.5,0.1-0.9,0.7-0.7,1.3l0,0c0.1,0.5,0.7,0.9,1.3,0.7l6.8-1.8
	c0.2,0.5,0.4,1,0.6,1.5l-11.7,6.8c-0.5,0.3-0.7,0.9-0.4,1.4l0,0c0.3,0.5,0.9,0.7,1.4,0.4l11.7-6.8c0.3,0.4,0.6,0.9,1,1.3l-5,5
	c-0.4,0.4-0.4,1.1,0,1.5l0,0c0.4,0.4,1.1,0.4,1.5,0l5-5c0.4,0.4,0.8,0.7,1.3,1l-6.8,11.7c-0.3,0.5-0.1,1.1,0.4,1.4l0,0
	c0.5,0.3,1.1,0.1,1.4-0.4l6.8-11.7c0.5,0.2,1,0.4,1.5,0.6l-1.8,6.8c-0.1,0.5,0.2,1.1,0.7,1.3l0,0c0.5,0.1,1.1-0.2,1.3-0.7l1.8-6.8
	c0.5,0.1,1.1,0.2,1.6,0.2l0,12.4c0,0.6,0.5,1,1,1h0c0.6,0,1-0.5,1-1V64.1c0.5,0,1.1-0.1,1.6-0.2l1.8,6.8c0.1,0.5,0.7,0.9,1.3,0.7
	l0,0c0.5-0.1,0.9-0.7,0.7-1.3l-1.8-6.8c0.5-0.2,1-0.4,1.5-0.6l6.8,11.7c0.3,0.5,0.9,0.7,1.4,0.4l0,0c0.5-0.3,0.7-0.9,0.4-1.4
	l-6.8-11.7c0.4-0.3,0.9-0.6,1.3-1l5,5c0.4,0.4,1.1,0.4,1.5,0l0,0c0.4-0.4,0.4-1.1,0-1.5l-5-5c0.4-0.4,0.7-0.8,1-1.3l11.7,6.8
	c0.5,0.3,1.1,0.1,1.4-0.4l0,0c0.3-0.5,0.1-1.1-0.4-1.4l-11.7-6.8c0.2-0.5,0.4-1,0.6-1.5l6.8,1.8c0.5,0.1,1.1-0.2,1.3-0.7l0,0
	c0.1-0.5-0.2-1.1-0.7-1.3l-6.8-1.8c0.1-0.5,0.2-1.1,0.2-1.6l13.5,0c0.6,0,1-0.5,1-1v0C78.6,49.4,78.2,49,77.6,49z M59.3,49.7
	c-0.9-1.3-2-2.5-2.9-2.8c-0.5-0.2-0.7,0.4-1.2,0.5c-0.2-0.2-0.1-0.1-0.3-0.3c-0.7,0.7-2,2-2.6,2.6c-0.6,0.6-2.7,2.8-3.3,3.4
	c-0.7,0.7-1.4,1.5-2.1,2.2c-1.2,1.3-2.5,2.6-3.7,3.9c-0.1,0.1-0.1,0.1-0.2,0.2c-0.2,0.2-0.4,0.2-0.6,0c-0.2-0.2-0.4-0.4-0.6-0.6
	c-0.2-0.2-0.4-0.4-0.6-0.6c-0.2-0.2-0.2-0.4,0-0.6c0.1-0.1,0.1-0.1,0.2-0.2c1.3-1.2,2.6-2.5,3.9-3.7c0.7-0.7,1.5-1.4,2.2-2.2
	c0.6-0.6,2.7-2.6,3.4-3.2c0.6-0.6,2-1.8,2.7-2.5c-0.7-0.7,0.9-0.8,0.2-1.5c-1.9-3.9-6.7-4.7-6.6-4.8c0-0.6,0-0.6,0.1-1
	c0,0,7.1,2.6,8.6,5c0,0,0,0,0,0c0.2-0.2,0.4-0.4,0.6-0.6c0.1-0.1,0.2-0.1,0.3,0c0.3,0.3,0.6,0.6,0.9,0.9c0.1,0.1,0.1,0.2,0,0.3
	c-0.2,0.2-0.4,0.4-0.6,0.6c0,0,0,0,0,0c0,0,3.5,2.2,4.6,8.9C61.6,53.7,59.4,49.8,59.3,49.7z"/>
</svg>
