<?xml version="1.0" encoding="utf-8"?>
<!-- Generator: Adobe Illustrator 17.0.0, SVG Export Plug-In . SVG Version: 6.00 Build 0)  -->
<!DOCTYPE svg PUBLIC "-//W3C//DTD SVG 1.1//EN" "http://www.w3.org/Graphics/SVG/1.1/DTD/svg11.dtd">
<svg version="1.1" id="Your_Icon" xmlns="http://www.w3.org/2000/svg" xmlns:xlink="http://www.w3.org/1999/xlink" x="0px" y="0px"
	 width="500px" height="500px" viewBox="230 30 500 500" enable-background="new 230 30 500 500" xml:space="preserve">
<path fill="#FF0000" d="M634.56,274.4h-75.6c0-2.8-0.56-6.16-1.12-8.96l38.08-10.08c2.8-0.56,5.04-3.92,3.92-7.28l0,0
	c-0.56-2.8-3.92-5.04-7.28-3.92l-38.08,10.08c-1.12-2.8-2.24-5.6-3.36-8.4l65.52-38.08c2.8-1.68,3.92-5.04,2.24-7.84l0,0
	c-1.68-2.8-5.04-3.92-7.84-2.24l-65.52,38.08c-1.68-2.24-3.36-5.04-5.6-7.28l28-28c2.24-2.24,2.24-6.16,0-8.4l0,0
	c-2.24-2.24-6.16-2.24-8.4,0l-28,28c-2.24-2.24-4.48-3.92-7.28-5.6l38.08-65.52c1.68-2.8,0.56-6.16-2.24-7.84l0,0
	c-2.8-1.68-6.16-0.56-7.84,2.24l-38.08,65.52c-2.8-1.12-5.6-2.24-8.4-3.36l10.08-38.08c0.56-2.8-1.12-6.16-3.92-7.28l0,0
	c-2.8-0.56-6.16,1.12-7.28,3.92l-10.08,38.08c-2.8-0.56-5.6-0.56-8.96-1.12V-156.8c0-3.36-2.8-5.6-5.6-5.6l0,0
	c-3.36,0-5.6,2.8-5.6,5.6v357.84c-2.8,0-6.16,0.56-8.96,1.12l-10.08-38.08c-0.56-2.8-3.92-5.04-7.28-3.92l0,0
	c-2.8,0.56-5.04,3.92-3.92,7.28l10.08,38.08c-2.8,1.12-5.6,2.24-8.4,3.36l-38.08-65.52c-1.68-2.8-5.04-3.92-7.84-2.24l0,0
	c-2.8,1.68-3.92,5.04-2.24,7.84l38.08,65.52c-2.24,1.68-5.04,3.36-7.28,5.6l-28-28c-2.24-2.24-6.16-2.24-8.4,0l0,0
	c-2.24,2.24-2.24,6.16,0,8.4l28,28c-2.24,2.24-3.92,4.48-5.6,7.28l-65.52-38.08c-2.8-1.68-6.16-0.56-7.84,2.24l0,0
	c-1.68,2.8-0.56,6.16,2.24,7.84l65.52,38.08c-1.12,2.8-2.24,5.6-3.36,8.4l-38.08-10.08c-2.8-0.56-6.16,1.12-7.28,3.92l0,0
	c-0.56,2.8,1.12,6.16,3.92,7.28l38.08,10.08c-0.56,2.8-0.56,5.6-1.12,8.96h-75.6c-3.36,0-5.6,2.8-5.6,5.6l0,0
	c0,3.36,2.8,5.6,5.6,5.6h75.6c0,2.8,0.56,6.16,1.12,8.96l-38.08,10.08c-2.8,0.56-5.04,3.92-3.92,7.28l0,0
	c0.56,2.8,3.92,5.04,7.28,3.92l38.08-10.08c1.12,2.8,2.24,5.6,3.36,8.4l-65.52,38.08c-2.8,1.68-3.92,5.04-2.24,7.84l0,0
	c1.68,2.8,5.04,3.92,7.84,2.24l65.52-38.08c1.68,2.24,3.36,5.04,5.6,7.28l-28,28c-2.24,2.24-2.24,6.16,0,8.4l0,0
	c2.24,2.24,6.16,2.24,8.4,0l28-28c2.24,2.24,4.48,3.92,7.28,5.6l-38.08,65.52c-1.68,2.8-0.56,6.16,2.24,7.84l0,0
	c2.8,1.68,6.16,0.56,7.84-2.24l38.08-65.52c2.8,1.12,5.6,2.24,8.4,3.36l-10.08,38.08c-0.56,2.8,1.12,6.16,3.92,7.28l0,0
	c2.8,0.56,6.16-1.12,7.28-3.92l10.08-38.08c2.8,0.56,6.16,1.12,8.96,1.12v69.44c0,3.36,2.8,5.6,5.6,5.6l0,0c3.36,0,5.6-2.8,5.6-5.6
	v-69.44c2.8,0,6.16-0.56,8.96-1.12l10.08,38.08c0.56,2.8,3.92,5.04,7.28,3.92l0,0c2.8-0.56,5.04-3.92,3.92-7.28l-10.08-38.08
	c2.8-1.12,5.6-2.24,8.4-3.36l38.08,65.52c1.68,2.8,5.04,3.92,7.84,2.24l0,0c2.8-1.68,3.92-5.04,2.24-7.84l-38.08-65.52
	c2.24-1.68,5.04-3.36,7.28-5.6l28,28c2.24,2.24,6.16,2.24,8.4,0l0,0c2.24-2.24,2.24-6.16,0-8.4l-28-28c2.24-2.24,3.92-4.48,5.6-7.28
	l65.52,38.08c2.8,1.68,6.16,0.56,7.84-2.24l0,0c1.68-2.8,0.56-6.16-2.24-7.84l-65.52-38.08c1.12-2.8,2.24-5.6,3.36-8.4l38.08,10.08
	c2.8,0.56,6.16-1.12,7.28-3.92l0,0c0.56-2.8-1.12-6.16-3.92-7.28l-38.08-10.08c0.56-2.8,1.12-6.16,1.12-8.96h75.6
	c3.36,0,5.6-2.8,5.6-5.6l0,0C640.16,276.64,637.92,274.4,634.56,274.4z M532.08,278.32c-5.04-7.28-11.2-14-16.24-15.68
	c-2.8-1.12-3.92,2.24-6.72,2.8c-1.12-1.12-0.56-0.56-1.68-1.68c-3.92,3.92-11.2,11.2-14.56,14.56
	c-3.36,3.36-15.12,15.68-18.48,19.04c-3.92,3.92-7.84,8.4-11.76,12.32c-6.72,7.28-14,14.56-20.72,21.84
	c-0.56,0.56-0.56,0.56-1.12,1.12c-1.12,1.12-2.24,1.12-3.36,0c-1.12-1.12-2.24-2.24-3.36-3.36c-1.12-1.12-2.24-2.24-3.36-3.36
	c-1.12-1.12-1.12-2.24,0-3.36c0.56-0.56,0.56-0.56,1.12-1.12c7.28-6.72,14.56-14,21.84-20.72c3.92-3.92,8.4-7.84,12.32-12.32
	c3.36-3.36,15.12-14.56,19.04-17.92c3.36-3.36,11.2-10.08,15.12-14c-3.92-3.92,5.04-4.48,1.12-8.4
	c-10.64-21.84-37.52-26.32-36.96-26.88c0-3.36,0-3.36,0.56-5.6c0,0,39.76,14.56,48.16,28l0,0c1.12-1.12,2.24-2.24,3.36-3.36
	c0.56-0.56,1.12-0.56,1.68,0c1.68,1.68,3.36,3.36,5.04,5.04c0.56,0.56,0.56,1.12,0,1.68c-1.12,1.12-2.24,2.24-3.36,3.36l0,0
	c0,0,19.6,12.32,25.76,49.84C544.96,300.72,532.64,278.88,532.08,278.32z"/>
</svg>
