<svg xmlns="http://www.w3.org/2000/svg" xmlns:xlink="http://www.w3.org/1999/xlink" version="1.1" id="Your_Icon" x="0px" y="0px" width="100px" height="100px" viewBox="0 0 100 100" enable-background="new 0 0 100 100" xml:space="preserve">
<g>
	<path d="M59.207,8.07c0.784,0,1.107,0.044,1.107,0.933V9.9c0,0.812-0.448,1.498-1.345,1.713v33.715l5.678,9.83l21.23,36.773H14.124   l21.229-36.773l5.91-10.238c-0.004-17.185-0.013-31.783-0.008-33.284c-0.78-0.194-1.569-0.897-1.569-1.736V9.003   c0-0.889,0.984-0.933,1.9-0.933c0.102,0,0.203,0,0.302,0h17.041C59.027,8.07,59.12,8.07,59.207,8.07 M59.208,5l-0.14,0l-0.139,0   H41.887l-0.14,0l-0.162,0c-4.611,0-4.97,3.064-4.97,4.003V9.9c0,1.311,0.598,2.552,1.568,3.455c0,2.23,0.002,6.344,0.003,11.635   l0.006,19.108l-5.499,9.525L11.465,90.396c-0.548,0.95-0.548,2.12,0,3.07S13.027,95,14.124,95h71.753   c1.097,0,2.11-0.585,2.658-1.535c0.548-0.95,0.548-2.12,0-3.07l-21.23-36.773l-5.266-9.118V13.276   c0.848-0.87,1.345-2.057,1.345-3.376V9.003C63.384,8.064,63.082,5,59.208,5L59.208,5z"/>
	<polygon points="19.441,88.861 37.125,58.227 62.874,58.227 80.56,88.861  "/>
</g>
</svg>