<?xml version="1.0" encoding="utf-8"?>
<!-- Generator: Adobe Illustrator 16.0.0, SVG Export Plug-In . SVG Version: 6.00 Build 0)  -->
<!DOCTYPE svg PUBLIC "-//W3C//DTD SVG 1.1//EN" "http://www.w3.org/Graphics/SVG/1.1/DTD/svg11.dtd">
<svg version="1.1" id="Layer_1" xmlns="http://www.w3.org/2000/svg" xmlns:xlink="http://www.w3.org/1999/xlink" x="0px" y="0px"
	 width="100px" height="100px" viewBox="0 0 100 100" enable-background="new 0 0 100 100" xml:space="preserve">
<g id="Your_Icon">
	<path fill="#088FFF" stroke="#088FFF" stroke-width="2.3796" stroke-miterlimit="3.8637" d="M42.521,36.499
		c1.04-0.582,2.154-1.048,3.325-1.379V23.955c-4.139,0.667-7.957,2.296-11.22,4.648L42.521,36.499z M35.119,45.845
		c0.332-1.169,0.798-2.286,1.38-3.326l-7.894-7.895c-2.354,3.263-3.982,7.082-4.65,11.22L35.119,45.845L35.119,45.845z
		 M36.498,57.688c-0.582-1.041-1.048-2.154-1.379-3.323H23.954c0.667,4.139,2.296,7.954,4.648,11.218L36.498,57.688z M45.845,65.09
		c-1.17-0.333-2.286-0.799-3.327-1.38l-7.894,7.896c3.262,2.353,7.081,3.98,11.221,4.649V65.09z M57.689,63.71
		c-1.043,0.581-2.156,1.047-3.328,1.38v11.165c4.14-0.669,7.957-2.298,11.221-4.649L57.689,63.71z M65.089,54.363
		c-0.333,1.169-0.797,2.283-1.378,3.322l7.893,7.896c2.354-3.263,3.981-7.079,4.65-11.218H65.089z M63.709,42.52
		c0.583,1.04,1.047,2.156,1.38,3.326h11.165c-0.669-4.139-2.297-7.958-4.65-11.22L63.709,42.52z M54.361,35.12
		c1.172,0.331,2.285,0.797,3.326,1.379l7.895-7.895c-3.264-2.352-7.081-3.981-11.221-4.648V35.12z M78.098,16.087
		c4.002-4,10.022,2.021,6.021,6.023l-6.435,6.434c3.828,4.888,6.383,10.823,7.17,17.301h9.096c2.835,0,4.257,2.201,4.257,4.258
		c0,2.059-1.422,4.26-4.257,4.26h-9.096c-0.787,6.479-3.342,12.412-7.168,17.3l6.433,6.433c4.002,4-2.021,10.023-6.021,6.021
		l-6.434-6.434c-4.889,3.827-10.823,6.385-17.303,7.17v9.097c0,2.832-2.2,4.258-4.257,4.258c-2.058,0-4.259-1.426-4.259-4.258
		v-9.097c-6.479-0.785-12.414-3.34-17.302-7.17l-6.432,6.434c-4.001,4.002-10.024-2.021-6.021-6.021l6.432-6.432
		c-3.827-4.889-6.382-10.822-7.167-17.301H6.258C3.424,54.363,2,52.162,2,50.103c0-2.057,1.424-4.258,4.258-4.258h9.096
		c0.785-6.478,3.342-12.414,7.168-17.301L16.09,22.11c-4.002-4.002,2.02-10.024,6.021-6.023l6.434,6.436
		c4.888-3.826,10.822-6.381,17.3-7.169V6.258C45.845,3.424,48.046,2,50.104,2c2.057,0,4.257,1.424,4.257,4.258v9.095
		c6.479,0.788,12.412,3.344,17.302,7.169L78.098,16.087z M43.046,50.103c0,3.899,3.16,7.058,7.058,7.058s7.058-3.159,7.058-7.058
		c0-3.898-3.16-7.058-7.058-7.058S43.046,46.205,43.046,50.103z"/>
</g>
</svg>
