<?xml version="1.0" encoding="utf-8"?>
<!-- Generator: Adobe Illustrator 17.0.0, SVG Export Plug-In . SVG Version: 6.00 Build 0)  -->
<!DOCTYPE svg PUBLIC "-//W3C//DTD SVG 1.1//EN" "http://www.w3.org/Graphics/SVG/1.1/DTD/svg11.dtd">
<svg version="1.1" id="Layer_1" xmlns="http://www.w3.org/2000/svg" xmlns:xlink="http://www.w3.org/1999/xlink" x="0px" y="0px"
	 width="500px" height="500px" viewBox="-200 -200 500 500" enable-background="new -200 -200 500 500" xml:space="preserve">
<g id="Your_Icon">
	<path fill="#088FFF" stroke="#088FFF" stroke-width="2.3796" stroke-miterlimit="3.8637" d="M24.788,4.681
		c3.472-1.943,7.192-3.499,11.101-4.604v-37.276C22.07-34.972,9.323-29.534-1.571-21.681L24.788,4.681z M0.075,35.885
		c1.108-3.903,2.664-7.632,4.607-11.104L-21.673-1.579c-7.859,10.894-13.295,23.645-15.525,37.46L0.075,35.885L0.075,35.885z
		 M4.679,75.425C2.736,71.949,1.18,68.233,0.075,64.33h-37.276c2.227,13.819,7.666,26.556,15.518,37.453L4.679,75.425z
		 M35.886,100.137c-3.906-1.112-7.632-2.668-11.108-4.607l-26.356,26.362c10.891,7.856,23.641,13.288,37.463,15.522V100.137z
		 M75.429,95.53c-3.482,1.94-7.198,3.496-11.111,4.607v37.276c13.822-2.234,26.566-7.672,37.463-15.522L75.429,95.53z
		 M100.135,64.323c-1.112,3.903-2.661,7.622-4.601,11.091l26.352,26.362c7.859-10.894,13.291-23.635,15.525-37.453
		C137.412,64.323,100.135,64.323,100.135,64.323z M95.528,24.783c1.946,3.472,3.496,7.198,4.607,11.104h37.276
		c-2.234-13.819-7.669-26.569-15.525-37.46L95.528,24.783z M64.318,0.077c3.913,1.105,7.629,2.661,11.104,4.604l26.359-26.359
		C90.884-29.53,78.14-34.969,64.318-37.196V0.077z M143.568-63.468c13.361-13.355,33.46,6.747,20.102,20.109l-21.484,21.481
		c12.78,16.319,21.311,36.135,23.938,57.763h30.369c9.465,0,14.213,7.348,14.213,14.216c0,6.874-4.748,14.223-14.213,14.223h-30.369
		c-2.628,21.631-11.158,41.44-23.932,57.759l21.478,21.478c13.361,13.355-6.747,33.464-20.102,20.102l-21.481-21.481
		c-16.323,12.777-36.135,21.318-57.769,23.938v30.372c0,9.455-7.345,14.216-14.213,14.216c-6.871,0-14.219-4.761-14.219-14.216
		V166.12c-21.631-2.621-41.446-11.151-57.766-23.938l-21.474,21.481c-13.358,13.361-33.467-6.747-20.102-20.102l21.474-21.474
		C-54.76,105.763-63.29,85.955-65.911,64.323h-30.372c-9.462,0-14.216-7.348-14.216-14.223c0-6.868,4.754-14.216,14.216-14.216
		h30.369c2.621-21.628,11.158-41.446,23.932-57.763l-21.474-21.481c-13.361-13.361,6.744-33.467,20.102-20.109l21.481,21.488
		c16.319-12.774,36.131-21.304,57.759-23.935v-30.369c0-9.462,7.348-14.216,14.219-14.216c6.868,0,14.213,4.754,14.213,14.216
		v30.365c21.631,2.631,41.44,11.165,57.766,23.935L143.568-63.468z M26.541,50.101c0,13.018,10.55,23.564,23.564,23.564
		S73.67,63.118,73.67,50.101c0-13.014-10.55-23.564-23.564-23.564S26.541,37.086,26.541,50.101z"/>
</g>
</svg>
