<?xml version="1.0" encoding="utf-8"?>
<!-- Generator: Adobe Illustrator 17.1.0, SVG Export Plug-In . SVG Version: 6.00 Build 0)  -->
<!DOCTYPE svg PUBLIC "-//W3C//DTD SVG 1.1//EN" "http://www.w3.org/Graphics/SVG/1.1/DTD/svg11.dtd">
<svg version="1.1" id="Layer_1" xmlns="http://www.w3.org/2000/svg" xmlns:xlink="http://www.w3.org/1999/xlink" x="0px" y="0px"
	 viewBox="0 0 1000 1000" enable-background="new 0 0 1000 1000" xml:space="preserve">
<polygon fill="#FF4E00" points="85.5,1122.6 497.8,408.6 910,1122.6 "/>
<path d="M417.2,119.8h166.5L568,322.7c0,0-24.3-20.8-67.6-20.8s-71.1,20.8-71.1,20.8L417.2,119.8z"/>
<path d="M500.4,335.7c77.2,0,169.1,97.1,238.4,274c33.7,82.3,32.9,270.5,32.9,270.5H223.8c0,0-3.5-149.1,37.3-272.2
	C338.3,425.9,417.2,335.7,500.4,335.7z"/>
<image overflow="visible" width="1000" height="1000" xlink:href="icon_11478_flame.png"  transform="matrix(1 0 0 1 918.9771 -459.5023)">
</image>
</svg>
