<svg xmlns="http://www.w3.org/2000/svg" xmlns:xlink="http://www.w3.org/1999/xlink" version="1.1" x="0px" y="0px" width="100px" height="100px" viewBox="0 0 100 100" enable-background="new 0 0 100 100" xml:space="preserve">
<g id="Captions">
	<rect x="-192" width="185" height="99"/>
	<rect y="-36" width="100" height="30"/>
	<text transform="matrix(1 0 0 1 66 -19.5)" fill="#000000" font-family="'Helvetica'" font-size="2.4">http://thenounproject.com</text>
	<text transform="matrix(1 0 0 1 7.166 -24.5)"><tspan x="0" y="0" fill="#000000" font-family="'Helvetica-Bold'" font-size="6.1578">The Noun Project</tspan><tspan x="1.12" y="4.8" fill="#000000" font-family="'Helvetica-Bold'" font-size="4">Icon Template</tspan></text>
	<text transform="matrix(1 0 0 1 -178.5 10.5)" fill="#000000" font-family="'Helvetica-Bold'" font-size="6.1578">Reminders</text>
	<line fill="#000000" stroke="#FFFFFF" stroke-miterlimit="10" x1="8" y1="-14.5" x2="18" y2="-14.5"/>
	<line fill="#000000" stroke="#FFFFFF" stroke-miterlimit="10" x1="-179" y1="16.5" x2="-162" y2="16.5"/>
	<g>
		<g>
			<g>
				<rect x="-170.802" y="31.318" fill="#000000" width="8.721" height="8.642"/>
				<path fill="#000000" d="M-164.455,42.312h4.747v-4.703h-4.747V42.312z M-159.266,42.749h-5.63V37.17h5.63V42.749      L-159.266,42.749z M-166.221,44.062h8.279v-8.203h-8.279V44.062L-166.221,44.062z M-157.5,44.5h-9.163v-9.079h9.163V44.5      L-157.5,44.5z"/>
				<polygon fill="#000000" points="-166.149,44.133 -166.292,43.991 -158.013,35.787 -157.871,35.929     "/>
			</g>
		</g>
	</g>
	<rect x="-179" y="58" fill="none" width="35" height="32.5"/>
	<text transform="matrix(1 0 0 1 -179 60.1572)"><tspan x="0" y="0" fill="#000000" font-family="'Helvetica-Bold'" font-size="3">Strokes</tspan><tspan x="0" y="5" fill="#000000" font-family="'Helvetica'" font-size="2.4">Try to keep strokes at 4px</tspan><tspan x="0" y="10" fill="#000000" font-family="'Helvetica'" font-size="2.4">Minimum stroke weight is 2px</tspan><tspan x="0" y="14.5" fill="#000000" font-family="'Helvetica'" font-size="2.4">For thicker strokes use even </tspan><tspan x="0" y="17.5" fill="#000000" font-family="'Helvetica'" font-size="2.4">numbers: 6px, 8px etc.</tspan><tspan x="0" y="22" fill="#000000" font-family="'Helvetica-Bold'" font-size="2.4">Remember to expand strokes </tspan><tspan x="0" y="25" fill="#000000" font-family="'Helvetica-Bold'" font-size="2.4">before saving as an SVG </tspan></text>
	<rect x="-136.5" y="58" fill="none" width="35" height="32.5"/>
	<text transform="matrix(1 0 0 1 -136.5 60.1572)"><tspan x="0" y="0" fill="#000000" font-family="'Helvetica-Bold'" font-size="3">Size</tspan><tspan x="0" y="5" fill="#000000" font-family="'Helvetica'" font-size="2.4">Cannot be wider or taller than </tspan><tspan x="0" y="8.5" fill="#000000" font-family="'Helvetica'" font-size="2.4">100px (artboard size)</tspan><tspan x="0" y="13.5" fill="#000000" font-family="'Helvetica'" font-size="2.4">Scale your icon to fill as much of </tspan><tspan x="0" y="16.5" fill="#000000" font-family="'Helvetica'" font-size="2.4">the artboard as possible</tspan></text>
	<rect x="-94" y="58" fill="none" width="35" height="32.5"/>
	<text transform="matrix(1 0 0 1 -94 60.1572)"><tspan x="0" y="0" fill="#000000" font-family="'Helvetica-Bold'" font-size="3">Ungroup</tspan><tspan x="0" y="5" fill="#000000" font-family="'Helvetica'" font-size="2.4">If your design has more than one </tspan><tspan x="0" y="8" fill="#000000" font-family="'Helvetica'" font-size="2.4">shape, make sure to ungroup</tspan></text>
	<rect x="-50" y="58" fill="none" width="35" height="32.5"/>
	<text transform="matrix(1 0 0 1 -50 60.1572)"><tspan x="0" y="0" fill="#000000" font-family="'Helvetica-Bold'" font-size="3">Save as</tspan><tspan x="0" y="5" fill="#000000" font-family="'Helvetica'" font-size="2.4">Save as .SVG and make sure </tspan><tspan x="0" y="8" fill="#000000" font-family="'Helvetica'" font-size="2.4">&#8220;Use Artboards&#8221; is checked</tspan></text>
	<text transform="matrix(1.0074 0 0 1 -125.542 30.5933)" fill="#000000" font-family="'Helvetica'" font-size="2.5731">100px</text>
	<text transform="matrix(1.0074 0 0 1 -41 39)" fill="#000000" font-family="'Helvetica-Bold'" font-size="5.1462">.SVG</text>
	<rect x="-126.514" y="34.815" fill="#000000" width="10.261" height="10.185"/>
	<rect x="-126.477" y="31.766" fill="#000000" width="0.522" height="2.337"/>
	<rect x="-116.812" y="31.766" fill="#000000" width="0.523" height="2.337"/>
	<rect x="-127" y="32.337" fill="#000000" width="11.233" height="0.572"/>
	<g>
		<rect x="-83.805" y="33.844" fill="#000000" width="10.305" height="10.156"/>
		<rect x="-76.809" y="28.707" fill="#000000" width="3.308" height="3.261"/>
	</g>
	<rect x="-178.5" y="22.5" fill="#000000" stroke="#FFFFFF" stroke-miterlimit="10" width="30" height="30"/>
	<rect x="-136.5" y="22.5" fill="#000000" stroke="#FFFFFF" stroke-miterlimit="10" width="30" height="30"/>
	<rect x="-93.5" y="22.5" fill="#000000" stroke="#FFFFFF" stroke-miterlimit="10" width="30" height="30"/>
	<rect x="-49.5" y="22.5" fill="#000000" stroke="#FFFFFF" stroke-miterlimit="10" width="30" height="30"/>
</g>
<g id="Your_Icon">
	<path fill="none" stroke="#000000" stroke-width="2.3796" stroke-miterlimit="3.8637" d="M42.521,36.499   c1.04-0.582,2.154-1.048,3.325-1.379V23.955c-4.139,0.667-7.957,2.296-11.22,4.648L42.521,36.499z M35.119,45.845   c0.332-1.169,0.798-2.286,1.38-3.326l-7.894-7.895c-2.354,3.263-3.982,7.082-4.65,11.22H35.119z M36.498,57.687   c-0.582-1.04-1.048-2.154-1.379-3.323H23.954c0.667,4.139,2.296,7.955,4.648,11.218L36.498,57.687z M45.845,65.09   c-1.17-0.333-2.286-0.799-3.327-1.38l-7.894,7.895c3.262,2.353,7.081,3.981,11.221,4.65V65.09z M57.689,63.71   c-1.043,0.581-2.156,1.047-3.327,1.38v11.165c4.139-0.669,7.957-2.298,11.22-4.65L57.689,63.71z M65.089,54.363   c-0.333,1.169-0.797,2.283-1.378,3.323l7.893,7.895c2.354-3.263,3.981-7.079,4.65-11.218H65.089z M63.709,42.52   c0.583,1.04,1.047,2.156,1.38,3.326h11.165c-0.669-4.139-2.297-7.958-4.65-11.22L63.709,42.52z M54.362,35.12   c1.171,0.331,2.284,0.797,3.325,1.379l7.895-7.895c-3.263-2.352-7.081-3.981-11.22-4.648V35.12z M78.097,16.087   c4.002-4,10.023,2.021,6.021,6.023l-6.434,6.434c3.828,4.888,6.383,10.823,7.169,17.301h9.096c2.835,0,4.257,2.201,4.257,4.258   c0,2.059-1.422,4.26-4.257,4.26h-9.096c-0.786,6.479-3.341,12.412-7.168,17.3l6.433,6.433c4.002,4-2.02,10.023-6.021,6.021   l-6.433-6.433c-4.889,3.827-10.823,6.384-17.302,7.17v9.096c0,2.832-2.201,4.258-4.258,4.258c-2.058,0-4.259-1.426-4.259-4.258   v-9.096c-6.479-0.786-12.414-3.341-17.302-7.17l-6.432,6.433c-4.001,4.002-10.024-2.021-6.021-6.021l6.432-6.432   c-3.827-4.889-6.382-10.822-7.167-17.301H6.258C3.424,54.363,2,52.162,2,50.103c0-2.057,1.424-4.258,4.258-4.258h9.096   c0.785-6.478,3.342-12.414,7.168-17.301L16.09,22.11c-4.002-4.002,2.02-10.024,6.021-6.023l6.434,6.436   c4.888-3.826,10.822-6.381,17.3-7.169V6.258C45.845,3.424,48.046,2,50.104,2c2.057,0,4.258,1.424,4.258,4.258v9.095   c6.479,0.788,12.412,3.344,17.301,7.169L78.097,16.087z M43.046,50.103c0,3.899,3.16,7.058,7.058,7.058s7.058-3.159,7.058-7.058   c0-3.898-3.16-7.058-7.058-7.058S43.046,46.205,43.046,50.103z"/>
</g>
</svg>