<?xml version="1.0" encoding="utf-8"?>
<!-- Generator: Adobe Illustrator 17.1.0, SVG Export Plug-In . SVG Version: 6.00 Build 0)  -->
<!DOCTYPE svg PUBLIC "-//W3C//DTD SVG 1.1//EN" "http://www.w3.org/Graphics/SVG/1.1/DTD/svg11.dtd">
<svg version="1.1" id="Layer_1" xmlns="http://www.w3.org/2000/svg" xmlns:xlink="http://www.w3.org/1999/xlink" x="0px" y="0px"
	 viewBox="0 0 1000 1000" enable-background="new 0 0 1000 1000" xml:space="preserve">
<circle fill="none" stroke="#FFFFFF" stroke-width="50" stroke-miterlimit="10" cx="500" cy="500" r="155.6"/>
<line fill="none" stroke="#FFFFFF" stroke-width="50" stroke-miterlimit="10" x1="663" y1="500" x2="909" y2="500"/>
<line fill="none" stroke="#FFFFFF" stroke-width="50" stroke-miterlimit="10" x1="581.6" y1="358.7" x2="704.5" y2="145.8"/>
<line fill="none" stroke="#FFFFFF" stroke-width="50" stroke-miterlimit="10" x1="417" y1="356.3" x2="295.5" y2="145.8"/>
<line fill="none" stroke="#FFFFFF" stroke-width="50" stroke-miterlimit="10" x1="334" y1="500" x2="91" y2="500"/>
<line fill="none" stroke="#FFFFFF" stroke-width="50" stroke-miterlimit="10" x1="418.6" y1="640.9" x2="295.5" y2="854.2"/>
<line fill="none" stroke="#FFFFFF" stroke-width="50" stroke-miterlimit="10" x1="582.5" y1="642.9" x2="704.5" y2="854.2"/>
<g>
	<path fill="#FFFFFF" d="M155.7,669.9C130.3,618.7,116,561,116,500s14.3-118.7,39.7-169.9L112.2,305c-4.3,8.5-8.3,17.2-12.1,26.1
		C77.5,384.6,66,441.4,66,500s11.5,115.4,34.1,168.9c3.7,8.9,7.8,17.5,12.1,26.1L155.7,669.9z"/>
	<path fill="#FFFFFF" d="M525,116.8c122.6,7.9,229.6,73.6,294.2,170l43.5-25.1c-16.2-24.6-34.8-47.5-55.9-68.6
		c-39.8-39.8-86.3-71.1-137.9-93C623.1,80.7,574.8,69.5,525,66.7V116.8z"/>
	<path fill="#FFFFFF" d="M180.8,286.8c64.6-96.4,171.7-162.1,294.2-170V66.7c-49.8,2.8-98.1,14-143.9,33.4
		c-51.7,21.9-98.1,53.1-137.9,93c-21.1,21.1-39.7,44-55.9,68.6L180.8,286.8z"/>
	<path fill="#FFFFFF" d="M475,883.2c-122.6-7.9-229.6-73.6-294.2-170l-43.5,25.1c16.2,24.6,34.8,47.5,55.9,68.6
		c39.8,39.8,86.3,71.1,137.9,93c45.9,19.4,94.2,30.6,143.9,33.4L475,883.2L475,883.2z"/>
	<path fill="#FFFFFF" d="M899.9,331.1c-3.7-8.9-7.8-17.5-12.1-26.1l-43.5,25.1C869.7,381.3,884,439,884,500s-14.3,118.7-39.7,169.9
		l43.5,25.1c4.3-8.5,8.3-17.2,12.1-26.1C922.5,615.4,934,558.6,934,500S922.5,384.6,899.9,331.1z"/>
	<path fill="#FFFFFF" d="M819.2,713.2c-64.6,96.4-171.7,162.1-294.2,170v50.1c49.8-2.8,98.1-14,143.9-33.4
		c51.7-21.9,98.1-53.1,137.9-93c21.1-21.1,39.7-44,55.9-68.6L819.2,713.2z"/>
</g>
<circle fill="#FFFFFF" cx="499" cy="501" r="79.6"/>
</svg>
