<?xml version="1.0" encoding="utf-8"?>
<!-- Generator: Adobe Illustrator 17.1.0, SVG Export Plug-In . SVG Version: 6.00 Build 0)  -->
<!DOCTYPE svg PUBLIC "-//W3C//DTD SVG 1.1//EN" "http://www.w3.org/Graphics/SVG/1.1/DTD/svg11.dtd">
<svg version="1.1" id="Layer_1" xmlns="http://www.w3.org/2000/svg" xmlns:xlink="http://www.w3.org/1999/xlink" x="0px" y="0px"
	 viewBox="0 0 1000 1000" enable-background="new 0 0 1000 1000" width="500px"
	 height="500px" xml:space="preserve">
<g>
	<rect x="-0.2" y="338.6" fill="#FF4E00" width="224.8" height="316.4"/>
	<rect x="774.8" y="338.6" fill="#FF4E00" width="225.2" height="316.4"/>
	<rect x="341.2" y="770.8" fill="#FF4E00" width="316.4" height="229.2"/>
	<rect x="341.2" y="0" fill="#FF4E00" width="316.4" height="220.7"/>
	<g>
		<g>
			<path fill="#FF4E00" d="M356.8,415.9l-132.2-76.3C198,386,182.8,439.7,182.8,497c0,57.9,15.5,112.2,42.6,158.9L355,581.1
				c-13.5-24-21.3-51.6-21.3-81.1C333.8,469.3,342.2,440.5,356.8,415.9z"/>
			<path fill="#FF4E00" d="M776.1,339.1l-133.7,77.2c14.5,24.6,22.8,53.2,22.8,83.7c0,29-7.5,56.2-20.5,79.8l131.1,75.7
				c25.7-44.5,41-95.8,42.3-150.6v-15.8C816.8,434.6,801.7,383.4,776.1,339.1z"/>
			<path fill="#FF4E00" d="M580,354l77.6-134.4c-41.8-24-89.7-38.7-140.7-41.4h-33.8c-51.7,2.7-100,17.8-142.3,42.3L417.9,354
				c24-13.5,51.6-21.3,81.1-21.3C528.4,332.8,556.1,340.5,580,354z"/>
			<path fill="#FF4E00" d="M415.7,643.7l-74.5,129c39.7,23,84.8,37.6,133,41.5h51.6c48-3.9,93.1-18.4,132.7-41.3l-75-129.9
				c-24.7,14.8-53.6,23.2-84.5,23.2C468.6,666.2,440.1,658,415.7,643.7z"/>
			<path fill="#FFFFFF" d="M641.4,416.3c-14.8-25.1-36-45.9-61.4-60.3c-23.9-13.5-51.6-21.2-81-21.2c-29.5,0-57.1,7.7-81.1,21.3
				c-25.2,14.2-46.3,34.9-61.1,59.8c-14.6,24.6-23,53.4-23,84.1c0,29.5,7.7,57.1,21.3,81.1c14.4,25.5,35.4,46.8,60.6,61.6
				c24.5,14.3,52.9,22.5,83.3,22.5c30.9,0,59.8-8.5,84.5-23.2c25.1-15,45.9-36.5,60.1-62.1c13.1-23.7,20.5-50.9,20.5-79.8
				C664.2,469.4,655.9,440.8,641.4,416.3z"/>
		</g>
		<path fill="#FFFFFF" d="M774.1,338.1c-28.1-48.8-68.7-89.4-117.5-117.4L497.9,495.5L339.8,221.6c-48.3,28.1-88.5,68.5-116.3,117
			L498,497L224.4,654.9c27.8,47.9,67.8,87.9,115.8,115.7l158.6-274.7l158.7,274.9c48.2-27.9,88.4-68.1,116.3-116.3L499.9,496.4
			L774.1,338.1z"/>
		<path fill="#FFFFFF" d="M816.2,496c0-2.6,0-5.3-0.1-7.9v15.8C816.2,501.3,816.2,498.6,816.2,496z"/>
		<g>
			<path fill="#FF4E00" d="M484.1,539.4v29h-27.8L498,610l41.6-41.6h-27.8v-29.6c-4.6,1.7-9.6,2.6-14.8,2.6
				C492.6,541.4,488.2,540.7,484.1,539.4z"/>
			<path fill="#FF4E00" d="M456.9,485.1h-28.2v-27.8L387,499l41.6,41.6v-27.8h28.3c-1.5-4.4-2.4-9.1-2.4-14
				C454.6,494.1,455.4,489.4,456.9,485.1z"/>
			<path fill="#FF4E00" d="M511.9,459v-29.4h27.8L498,388l-41.6,41.6h27.8v28.8c4.1-1.3,8.4-2,13-2
				C502.3,456.4,507.3,457.3,511.9,459z"/>
			<path fill="#FF4E00" d="M609,499l-41.6-41.6v27.8h-30c1.5,4.3,2.3,9,2.3,13.8c0,4.9-0.8,9.6-2.4,14h30.1v27.8L609,499z"/>
		</g>
	</g>
</g>
</svg>
