<?xml version="1.0" encoding="utf-8"?>
<!-- Generator: Adobe Illustrator 17.1.0, SVG Export Plug-In . SVG Version: 6.00 Build 0)  -->
<!DOCTYPE svg PUBLIC "-//W3C//DTD SVG 1.1//EN" "http://www.w3.org/Graphics/SVG/1.1/DTD/svg11.dtd">
<svg version="1.1" id="Layer_1" xmlns="http://www.w3.org/2000/svg" xmlns:xlink="http://www.w3.org/1999/xlink" x="0px" y="0px"
	 viewBox="0 0 1000 1000" enable-background="new 0 0 1000 1000" xml:space="preserve">
<g id="Captions">
	<rect x="-1920" width="1850" height="990"/>
	<rect y="-360" width="1000" height="300"/>
	<text transform="matrix(1 0 0 1 659.998 -195.002)" font-family="'MyriadPro-Regular'" font-size="24">http:</text>
	<text transform="matrix(1 0 0 1 708 -195.002)" font-family="'HelveticaLTStd-Fractions'" font-size="24">//</text>
	<text transform="matrix(1 0 0 1 716.002 -195.002)" font-family="'MyriadPro-Regular'" font-size="24">thenounproject.com</text>
	<text transform="matrix(1 0 0 1 71.6553 -245.002)" font-family="'MyriadPro-Regular'" font-size="61.578">The</text>
	<text transform="matrix(1 0 0 1 167.6543 -245.002)" font-family="'HelveticaLTStd-Fractions'" font-size="61.578"> </text>
	<text transform="matrix(1 0 0 1 186.6553 -245.002)" font-family="'MyriadPro-Regular'" font-size="61.578">Noun</text>
	<text transform="matrix(1 0 0 1 328.6582 -245.002)" font-family="'HelveticaLTStd-Fractions'" font-size="61.578"> </text>
	<text transform="matrix(1 0 0 1 347.6543 -245.002)" font-family="'MyriadPro-Regular'" font-size="61.578">Project</text>
	<text transform="matrix(1 0 0 1 82.8604 -197)" font-family="'MyriadPro-Regular'" font-size="40">Icon</text>
	<text transform="matrix(1 0 0 1 154.8584 -197)" font-family="'HelveticaLTStd-Fractions'" font-size="40"> </text>
	<text transform="matrix(1 0 0 1 166.8613 -197)" font-family="'MyriadPro-Regular'" font-size="40">Template</text>
	<text transform="matrix(1 0 0 1 -1785.002 104.998)" font-family="'MyriadPro-Regular'" font-size="61.578">Reminders</text>
	<line fill="none" stroke="#FFFFFF" stroke-miterlimit="10" x1="80" y1="-145" x2="180" y2="-145"/>
	<line fill="none" stroke="#FFFFFF" stroke-miterlimit="10" x1="-1790" y1="165" x2="-1620" y2="165"/>
	<g>
		<g>
			<g>
				<rect x="-1708" y="313" width="87" height="86"/>
				<path d="M-1645,423h47v-47h-47V423z M-1593,427h-56v-56h56V427L-1593,427z M-1662,441h83v-82h-83V441L-1662,441z M-1575,445h-92
					v-91h92V445L-1575,445z"/>
				<polygon points="-1661,441 -1663,440 -1580,358 -1579,359 				"/>
			</g>
		</g>
	</g>
	<rect x="-1790" y="580" fill="none" width="350" height="325"/>
	<text transform="matrix(1 0 0 1 -1790.002 601.5713)" font-family="'MyriadPro-Regular'" font-size="30">Strokes</text>
	<text transform="matrix(1 0 0 1 -1790.002 651.5713)" font-family="'MyriadPro-Regular'" font-size="24">Try</text>
	<text transform="matrix(1 0 0 1 -1758.998 651.5713)" font-family="'HelveticaLTStd-Fractions'" font-size="24"> </text>
	<text transform="matrix(1 0 0 1 -1751.001 651.5713)" font-family="'MyriadPro-Regular'" font-size="24">to</text>
	<text transform="matrix(1 0 0 1 -1730.002 651.5713)" font-family="'HelveticaLTStd-Fractions'" font-size="24"> </text>
	<text transform="matrix(1 0 0 1 -1722.999 651.5713)" font-family="'MyriadPro-Regular'" font-size="24">keep</text>
	<text transform="matrix(1 0 0 1 -1673.998 651.5713)" font-family="'HelveticaLTStd-Fractions'" font-size="24"> </text>
	<text transform="matrix(1 0 0 1 -1667 651.5713)" font-family="'MyriadPro-Regular'" font-size="24">strokes</text>
	<text transform="matrix(1 0 0 1 -1595.002 651.5713)" font-family="'HelveticaLTStd-Fractions'" font-size="24"> </text>
	<text transform="matrix(1 0 0 1 -1587.999 651.5713)" font-family="'MyriadPro-Regular'" font-size="24">at</text>
	<text transform="matrix(1 0 0 1 -1567.999 651.5713)" font-family="'HelveticaLTStd-Fractions'" font-size="24"> 4</text>
	<text transform="matrix(1 0 0 1 -1547.999 651.5713)" font-family="'MyriadPro-Regular'" font-size="24">px</text>
	<text transform="matrix(1 0 0 1 -1790.002 701.5713)" font-family="'MyriadPro-Regular'" font-size="24">Minimum</text>
	<text transform="matrix(1 0 0 1 -1692.999 701.5713)" font-family="'HelveticaLTStd-Fractions'" font-size="24"> </text>
	<text transform="matrix(1 0 0 1 -1685.002 701.5713)" font-family="'MyriadPro-Regular'" font-size="24">stroke</text>
	<text transform="matrix(1 0 0 1 -1623.998 701.5713)" font-family="'HelveticaLTStd-Fractions'" font-size="24"> </text>
	<text transform="matrix(1 0 0 1 -1616.001 701.5713)" font-family="'MyriadPro-Regular'" font-size="24">weight</text>
	<text transform="matrix(1 0 0 1 -1546.001 701.5713)" font-family="'HelveticaLTStd-Fractions'" font-size="24"> </text>
	<text transform="matrix(1 0 0 1 -1538.998 701.5713)" font-family="'MyriadPro-Regular'" font-size="24">is</text>
	<text transform="matrix(1 0 0 1 -1523.998 701.5713)" font-family="'HelveticaLTStd-Fractions'" font-size="24"> 2</text>
	<text transform="matrix(1 0 0 1 -1502.999 701.5713)" font-family="'MyriadPro-Regular'" font-size="24">px</text>
	<text transform="matrix(1 0 0 1 -1790.002 746.5713)" font-family="'MyriadPro-Regular'" font-size="24">For</text>
	<text transform="matrix(1 0 0 1 -1757 746.5713)" font-family="'HelveticaLTStd-Fractions'" font-size="24"> </text>
	<text transform="matrix(1 0 0 1 -1750.002 746.5713)" font-family="'MyriadPro-Regular'" font-size="24">thicker</text>
	<text transform="matrix(1 0 0 1 -1681.001 746.5713)" font-family="'HelveticaLTStd-Fractions'" font-size="24"> </text>
	<text transform="matrix(1 0 0 1 -1673.998 746.5713)" font-family="'MyriadPro-Regular'" font-size="24">strokes</text>
	<text transform="matrix(1 0 0 1 -1602 746.5713)" font-family="'HelveticaLTStd-Fractions'" font-size="24"> </text>
	<text transform="matrix(1 0 0 1 -1595.002 746.5713)" font-family="'MyriadPro-Regular'" font-size="24">use</text>
	<text transform="matrix(1 0 0 1 -1560.002 746.5713)" font-family="'HelveticaLTStd-Fractions'" font-size="24"> </text>
	<text transform="matrix(1 0 0 1 -1552.999 746.5713)" font-family="'MyriadPro-Regular'" font-size="24">even</text>
	<text transform="matrix(1 0 0 1 -1503.998 746.5713)" font-family="'HelveticaLTStd-Fractions'" font-size="24"> </text>
	<text transform="matrix(1 0 0 1 -1790.002 776.5713)" font-family="'MyriadPro-Regular'" font-size="24">numbers:</text>
	<text transform="matrix(1 0 0 1 -1695.002 776.5713)" font-family="'HelveticaLTStd-Fractions'" font-size="24"> 6</text>
	<text transform="matrix(1 0 0 1 -1675.002 776.5713)" font-family="'MyriadPro-Regular'" font-size="24">px,</text>
	<text transform="matrix(1 0 0 1 -1645.002 776.5713)" font-family="'HelveticaLTStd-Fractions'" font-size="24"> 8</text>
	<text transform="matrix(1 0 0 1 -1623.998 776.5713)" font-family="'MyriadPro-Regular'" font-size="24">px</text>
	<text transform="matrix(1 0 0 1 -1598.998 776.5713)" font-family="'HelveticaLTStd-Fractions'" font-size="24"> </text>
	<text transform="matrix(1 0 0 1 -1592 776.5713)" font-family="'MyriadPro-Regular'" font-size="24">etc.</text>
	<text transform="matrix(1 0 0 1 -1790.002 821.5713)" font-family="'MyriadPro-Regular'" font-size="24">Remember</text>
	<text transform="matrix(1 0 0 1 -1678.998 821.5713)" font-family="'HelveticaLTStd-Fractions'" font-size="24"> </text>
	<text transform="matrix(1 0 0 1 -1672 821.5713)" font-family="'MyriadPro-Regular'" font-size="24">to</text>
	<text transform="matrix(1 0 0 1 -1651.001 821.5713)" font-family="'HelveticaLTStd-Fractions'" font-size="24"> </text>
	<text transform="matrix(1 0 0 1 -1642.999 821.5713)" font-family="'MyriadPro-Regular'" font-size="24">expand</text>
	<text transform="matrix(1 0 0 1 -1567.999 821.5713)" font-family="'HelveticaLTStd-Fractions'" font-size="24"> </text>
	<text transform="matrix(1 0 0 1 -1561.001 821.5713)" font-family="'MyriadPro-Regular'" font-size="24">strokes</text>
	<text transform="matrix(1 0 0 1 -1490.002 821.5713)" font-family="'HelveticaLTStd-Fractions'" font-size="24"> </text>
	<text transform="matrix(1 0 0 1 -1790.002 851.5713)" font-family="'MyriadPro-Regular'" font-size="24">before</text>
	<text transform="matrix(1 0 0 1 -1723.998 851.5713)" font-family="'HelveticaLTStd-Fractions'" font-size="24"> </text>
	<text transform="matrix(1 0 0 1 -1717 851.5713)" font-family="'MyriadPro-Regular'" font-size="24">saving</text>
	<text transform="matrix(1 0 0 1 -1652 851.5713)" font-family="'HelveticaLTStd-Fractions'" font-size="24"> </text>
	<text transform="matrix(1 0 0 1 -1643.998 851.5713)" font-family="'MyriadPro-Regular'" font-size="24">as</text>
	<text transform="matrix(1 0 0 1 -1622.999 851.5713)" font-family="'HelveticaLTStd-Fractions'" font-size="24"> </text>
	<text transform="matrix(1 0 0 1 -1616.001 851.5713)" font-family="'MyriadPro-Regular'" font-size="24">an</text>
	<text transform="matrix(1 0 0 1 -1591.001 851.5713)" font-family="'HelveticaLTStd-Fractions'" font-size="24"> </text>
	<text transform="matrix(1 0 0 1 -1583.998 851.5713)" font-family="'MyriadPro-Regular'" font-size="24">SVG</text>
	<text transform="matrix(1 0 0 1 -1542.999 851.5713)" font-family="'HelveticaLTStd-Fractions'" font-size="24"> </text>
	<rect x="-1365" y="580" fill="none" width="350" height="325"/>
	<text transform="matrix(1 0 0 1 -1365.002 601.5713)" font-family="'MyriadPro-Regular'" font-size="30">Size</text>
	<text transform="matrix(1 0 0 1 -1365.002 651.5713)" font-family="'MyriadPro-Regular'" font-size="24">Cannot</text>
	<text transform="matrix(1 0 0 1 -1292 651.5713)" font-family="'HelveticaLTStd-Fractions'" font-size="24"> </text>
	<text transform="matrix(1 0 0 1 -1283.998 651.5713)" font-family="'MyriadPro-Regular'" font-size="24">be</text>
	<text transform="matrix(1 0 0 1 -1258.998 651.5713)" font-family="'HelveticaLTStd-Fractions'" font-size="24"> </text>
	<text transform="matrix(1 0 0 1 -1251.001 651.5713)" font-family="'MyriadPro-Regular'" font-size="24">wider</text>
	<text transform="matrix(1 0 0 1 -1195.002 651.5713)" font-family="'HelveticaLTStd-Fractions'" font-size="24"> </text>
	<text transform="matrix(1 0 0 1 -1187 651.5713)" font-family="'MyriadPro-Regular'" font-size="24">or</text>
	<text transform="matrix(1 0 0 1 -1166.001 651.5713)" font-family="'HelveticaLTStd-Fractions'" font-size="24"> </text>
	<text transform="matrix(1 0 0 1 -1158.998 651.5713)" font-family="'MyriadPro-Regular'" font-size="24">taller</text>
	<text transform="matrix(1 0 0 1 -1107.999 651.5713)" font-family="'HelveticaLTStd-Fractions'" font-size="24"> </text>
	<text transform="matrix(1 0 0 1 -1100.002 651.5713)" font-family="'MyriadPro-Regular'" font-size="24">than</text>
	<text transform="matrix(1 0 0 1 -1053.998 651.5713)" font-family="'HelveticaLTStd-Fractions'" font-size="24"> </text>
	<text transform="matrix(1 0 0 1 -1365.002 686.5713)" font-family="'HelveticaLTStd-Fractions'" font-size="24">100</text>
	<text transform="matrix(1 0 0 1 -1325.002 686.5713)" font-family="'MyriadPro-Regular'" font-size="24">px</text>
	<text transform="matrix(1 0 0 1 -1300.002 686.5713)" font-family="'HelveticaLTStd-Fractions'" font-size="24"> </text>
	<text transform="matrix(1 0 0 1 -1292.999 686.5713)" font-family="'MyriadPro-Regular'" font-size="24">(artboard</text>
	<text transform="matrix(1 0 0 1 -1198.998 686.5713)" font-family="'HelveticaLTStd-Fractions'" font-size="24"> </text>
	<text transform="matrix(1 0 0 1 -1191.001 686.5713)" font-family="'MyriadPro-Regular'" font-size="24">size)</text>
	<text transform="matrix(1 0 0 1 -1365.002 736.5713)" font-family="'MyriadPro-Regular'" font-size="24">Scale</text>
	<text transform="matrix(1 0 0 1 -1312.999 736.5713)" font-family="'HelveticaLTStd-Fractions'" font-size="24"> </text>
	<text transform="matrix(1 0 0 1 -1306.001 736.5713)" font-family="'MyriadPro-Regular'" font-size="24">your</text>
	<text transform="matrix(1 0 0 1 -1260.002 736.5713)" font-family="'HelveticaLTStd-Fractions'" font-size="24"> </text>
	<text transform="matrix(1 0 0 1 -1252.999 736.5713)" font-family="'MyriadPro-Regular'" font-size="24">icon</text>
	<text transform="matrix(1 0 0 1 -1210.002 736.5713)" font-family="'HelveticaLTStd-Fractions'" font-size="24"> </text>
	<text transform="matrix(1 0 0 1 -1202 736.5713)" font-family="'MyriadPro-Regular'" font-size="24">to</text>
	<text transform="matrix(1 0 0 1 -1181.001 736.5713)" font-family="'HelveticaLTStd-Fractions'" font-size="24"> </text>
	<text transform="matrix(1 0 0 1 -1173.998 736.5713)" font-family="'MyriadPro-Regular'" font-size="24">fill</text>
	<text transform="matrix(1 0 0 1 -1150.002 736.5713)" font-family="'HelveticaLTStd-Fractions'" font-size="24"> </text>
	<text transform="matrix(1 0 0 1 -1142.999 736.5713)" font-family="'MyriadPro-Regular'" font-size="24">as</text>
	<text transform="matrix(1 0 0 1 -1121.001 736.5713)" font-family="'HelveticaLTStd-Fractions'" font-size="24"> </text>
	<text transform="matrix(1 0 0 1 -1113.998 736.5713)" font-family="'MyriadPro-Regular'" font-size="24">much</text>
	<text transform="matrix(1 0 0 1 -1057 736.5713)" font-family="'HelveticaLTStd-Fractions'" font-size="24"> </text>
	<text transform="matrix(1 0 0 1 -1048.998 736.5713)" font-family="'MyriadPro-Regular'" font-size="24">of</text>
	<text transform="matrix(1 0 0 1 -1028.998 736.5713)" font-family="'HelveticaLTStd-Fractions'" font-size="24"> </text>
	<text transform="matrix(1 0 0 1 -1365.002 766.5713)" font-family="'MyriadPro-Regular'" font-size="24">the</text>
	<text transform="matrix(1 0 0 1 -1332 766.5713)" font-family="'HelveticaLTStd-Fractions'" font-size="24"> </text>
	<text transform="matrix(1 0 0 1 -1323.998 766.5713)" font-family="'MyriadPro-Regular'" font-size="24">artboard</text>
	<text transform="matrix(1 0 0 1 -1237 766.5713)" font-family="'HelveticaLTStd-Fractions'" font-size="24"> </text>
	<text transform="matrix(1 0 0 1 -1230.002 766.5713)" font-family="'MyriadPro-Regular'" font-size="24">as</text>
	<text transform="matrix(1 0 0 1 -1208.998 766.5713)" font-family="'HelveticaLTStd-Fractions'" font-size="24"> </text>
	<text transform="matrix(1 0 0 1 -1201.001 766.5713)" font-family="'MyriadPro-Regular'" font-size="24">possible</text>
	<rect x="-940" y="580" fill="none" width="350" height="325"/>
	<text transform="matrix(1 0 0 1 -940.002 601.5713)" font-family="'MyriadPro-Regular'" font-size="30">Ungroup</text>
	<text transform="matrix(1 0 0 1 -940.002 651.5713)" font-family="'MyriadPro-Regular'" font-size="24">If</text>
	<text transform="matrix(1 0 0 1 -927 651.5713)" font-family="'HelveticaLTStd-Fractions'" font-size="24"> </text>
	<text transform="matrix(1 0 0 1 -920.002 651.5713)" font-family="'MyriadPro-Regular'" font-size="24">your</text>
	<text transform="matrix(1 0 0 1 -873.998 651.5713)" font-family="'HelveticaLTStd-Fractions'" font-size="24"> </text>
	<text transform="matrix(1 0 0 1 -867 651.5713)" font-family="'MyriadPro-Regular'" font-size="24">design</text>
	<text transform="matrix(1 0 0 1 -798.998 651.5713)" font-family="'HelveticaLTStd-Fractions'" font-size="24"> </text>
	<text transform="matrix(1 0 0 1 -792 651.5713)" font-family="'MyriadPro-Regular'" font-size="24">has</text>
	<text transform="matrix(1 0 0 1 -757.999 651.5713)" font-family="'HelveticaLTStd-Fractions'" font-size="24"> </text>
	<text transform="matrix(1 0 0 1 -750.002 651.5713)" font-family="'MyriadPro-Regular'" font-size="24">more</text>
	<text transform="matrix(1 0 0 1 -697 651.5713)" font-family="'HelveticaLTStd-Fractions'" font-size="24"> </text>
	<text transform="matrix(1 0 0 1 -690.002 651.5713)" font-family="'MyriadPro-Regular'" font-size="24">than</text>
	<text transform="matrix(1 0 0 1 -642.999 651.5713)" font-family="'HelveticaLTStd-Fractions'" font-size="24"> </text>
	<text transform="matrix(1 0 0 1 -636.001 651.5713)" font-family="'MyriadPro-Regular'" font-size="24">one</text>
	<text transform="matrix(1 0 0 1 -597.999 651.5713)" font-family="'HelveticaLTStd-Fractions'" font-size="24"> </text>
	<text transform="matrix(1 0 0 1 -940.002 681.5713)" font-family="'MyriadPro-Regular'" font-size="24">shape,</text>
	<text transform="matrix(1 0 0 1 -875.002 681.5713)" font-family="'HelveticaLTStd-Fractions'" font-size="24"> </text>
	<text transform="matrix(1 0 0 1 -867.999 681.5713)" font-family="'MyriadPro-Regular'" font-size="24">make</text>
	<text transform="matrix(1 0 0 1 -812.999 681.5713)" font-family="'HelveticaLTStd-Fractions'" font-size="24"> </text>
	<text transform="matrix(1 0 0 1 -805.002 681.5713)" font-family="'MyriadPro-Regular'" font-size="24">sure</text>
	<text transform="matrix(1 0 0 1 -762.999 681.5713)" font-family="'HelveticaLTStd-Fractions'" font-size="24"> </text>
	<text transform="matrix(1 0 0 1 -755.002 681.5713)" font-family="'MyriadPro-Regular'" font-size="24">to</text>
	<text transform="matrix(1 0 0 1 -733.998 681.5713)" font-family="'HelveticaLTStd-Fractions'" font-size="24"> </text>
	<text transform="matrix(1 0 0 1 -727 681.5713)" font-family="'MyriadPro-Regular'" font-size="24">ungroup</text>
	<rect x="-500" y="580" fill="none" width="350" height="325"/>
	<text transform="matrix(1 0 0 1 -500.002 601.5713)" font-family="'MyriadPro-Regular'" font-size="30">Save</text>
	<text transform="matrix(1 0 0 1 -441.001 601.5713)" font-family="'HelveticaLTStd-Fractions'" font-size="30"> </text>
	<text transform="matrix(1 0 0 1 -432 601.5713)" font-family="'MyriadPro-Regular'" font-size="30">as</text>
	<text transform="matrix(1 0 0 1 -500.002 651.5713)" font-family="'MyriadPro-Regular'" font-size="24">Save</text>
	<text transform="matrix(1 0 0 1 -452.999 651.5713)" font-family="'HelveticaLTStd-Fractions'" font-size="24"> </text>
	<text transform="matrix(1 0 0 1 -446.001 651.5713)" font-family="'MyriadPro-Regular'" font-size="24">as</text>
	<text transform="matrix(1 0 0 1 -425.002 651.5713)" font-family="'HelveticaLTStd-Fractions'" font-size="24"> </text>
	<text transform="matrix(1 0 0 1 -417 651.5713)" font-family="'MyriadPro-Regular'" font-size="24">.SVG</text>
	<text transform="matrix(1 0 0 1 -371.001 651.5713)" font-family="'HelveticaLTStd-Fractions'" font-size="24"> </text>
	<text transform="matrix(1 0 0 1 -363.998 651.5713)" font-family="'MyriadPro-Regular'" font-size="24">and</text>
	<text transform="matrix(1 0 0 1 -326.001 651.5713)" font-family="'HelveticaLTStd-Fractions'" font-size="24"> </text>
	<text transform="matrix(1 0 0 1 -317.999 651.5713)" font-family="'MyriadPro-Regular'" font-size="24">make</text>
	<text transform="matrix(1 0 0 1 -262.999 651.5713)" font-family="'HelveticaLTStd-Fractions'" font-size="24"> </text>
	<text transform="matrix(1 0 0 1 -256.001 651.5713)" font-family="'MyriadPro-Regular'" font-size="24">sure</text>
	<text transform="matrix(1 0 0 1 -212.999 651.5713)" font-family="'HelveticaLTStd-Fractions'" font-size="24"> </text>
	<text transform="matrix(1 0 0 1 -500.002 681.5713)" font-family="'MyriadPro-Regular'" font-size="24">“Use</text>
	<text transform="matrix(1 0 0 1 -453.998 681.5713)" font-family="'HelveticaLTStd-Fractions'" font-size="24"> </text>
	<text transform="matrix(1 0 0 1 -447 681.5713)" font-family="'MyriadPro-Regular'" font-size="24">Artboards”</text>
	<text transform="matrix(1 0 0 1 -338.998 681.5713)" font-family="'HelveticaLTStd-Fractions'" font-size="24"> </text>
	<text transform="matrix(1 0 0 1 -331.001 681.5713)" font-family="'MyriadPro-Regular'" font-size="24">is</text>
	<text transform="matrix(1 0 0 1 -316.001 681.5713)" font-family="'HelveticaLTStd-Fractions'" font-size="24"> </text>
	<text transform="matrix(1 0 0 1 -308.998 681.5713)" font-family="'MyriadPro-Regular'" font-size="24">checked</text>
	<text transform="matrix(1.0074 0 0 1 -1255.4219 305.9297)" font-family="'HelveticaLTStd-Fractions'" font-size="25.731">100</text>
	<text transform="matrix(1.0074 0 0 1 -1212.1024 305.9297)" font-family="'MyriadPro-Regular'" font-size="25.731">px</text>
	<text transform="matrix(1.0074 0 0 1 -410.0022 389.998)" font-family="'MyriadPro-Regular'" font-size="51.462">.SVG</text>
	<rect x="-1265" y="348" width="103" height="102"/>
	<rect x="-1265" y="318" width="5" height="23"/>
	<rect x="-1168" y="318" width="5" height="23"/>
	<rect x="-1270" y="323" width="112" height="6"/>
	<g>
		<rect x="-838" y="338" width="103" height="102"/>
		<rect x="-768" y="287" width="33" height="33"/>
	</g>
	<rect x="-1785" y="225" stroke="#FFFFFF" stroke-miterlimit="10" width="300" height="300"/>
	<rect x="-1365" y="225" stroke="#FFFFFF" stroke-miterlimit="10" width="300" height="300"/>
	<rect x="-935" y="225" stroke="#FFFFFF" stroke-miterlimit="10" width="300" height="300"/>
	<rect x="-495" y="225" stroke="#FFFFFF" stroke-miterlimit="10" width="300" height="300"/>
</g>
<g id="Your_Icon_1_">
	<g>
		<path fill="none" stroke="#FFFFFF" stroke-width="50" stroke-linecap="round" stroke-miterlimit="10" d="M73,330v399l430,213
			l425-213V330"/>
	</g>
</g>
<polygon fill="#FFFFFF" points="498.7,160.1 166.9,326.6 167.7,676.1 498.7,838.1 832.1,676.1 832.1,325.8 "/>
</svg>
