<?xml version="1.0" encoding="utf-8"?>
<!-- Generator: Adobe Illustrator 16.0.0, SVG Export Plug-In . SVG Version: 6.00 Build 0)  -->
<!DOCTYPE svg PUBLIC "-//W3C//DTD SVG 1.1//EN" "http://www.w3.org/Graphics/SVG/1.1/DTD/svg11.dtd">
<svg version="1.1" id="Your_Icon" xmlns="http://www.w3.org/2000/svg" xmlns:xlink="http://www.w3.org/1999/xlink" x="0px" y="0px"
	 width="78px" height="78px" viewBox="-94.5 607.5 78 78" enable-background="new -94.5 607.5 78 78" xml:space="preserve">
<g>
	<g>
		<path fill="#FF3FFC" d="M-35.271,650.601c-0.127-1.094-0.327-2.15-0.619-3.189l5.631-2.333l-1.804-4.373l-5.632,2.332
			c-0.528-0.947-1.13-1.858-1.804-2.715l4.282-4.283l0,0l4.374-4.373l-3.353-3.354l-4.374,4.373l0,0l-4.265,4.266
			c-0.856-0.693-1.75-1.312-2.716-1.842l2.297-5.539l-4.374-1.805l-2.278,5.504c-1.057-0.311-2.132-0.529-3.244-0.675V607.5h-4.738
			v25.004c-1.13,0.109-2.224,0.328-3.281,0.619l-2.223-5.395l-4.374,1.805l2.224,5.357c-0.984,0.547-1.932,1.167-2.825,1.859
			l-4.083-4.082l0,0l-4.374-4.374l-3.354,3.353l4.374,4.375l0,0l4.046,4.045c-0.711,0.875-1.349,1.822-1.914,2.807l-5.267-2.187
			l-1.804,4.374l5.249,2.168c-0.31,1.076-0.547,2.205-0.674,3.354H-88.03v4.738h11.864c0.127,1.148,0.346,2.26,0.656,3.354
			l-5.23,2.188l1.804,4.373l5.249-2.168c0.565,1.002,1.203,1.932,1.914,2.824l-4.027,4.027l0,0l-4.374,4.374l3.354,3.354
			l4.374-4.374l0,0l4.046-4.046c0.893,0.692,1.841,1.331,2.825,1.858l-2.187,5.304l4.374,1.805l2.205-5.341
			c1.075,0.293,2.169,0.512,3.299,0.621V685.5h4.738v-12.064c1.112-0.146,2.205-0.365,3.263-0.674l2.26,5.449l4.374-1.805
			l-2.278-5.504c0.966-0.547,1.877-1.166,2.715-1.859l4.229,4.229l0,0l4.374,4.374l3.354-3.354l-4.374-4.374l0,0l-4.265-4.264
			c0.674-0.857,1.275-1.768,1.804-2.734l5.596,2.314l1.804-4.373l-5.576-2.334c0.291-1.038,0.492-2.096,0.619-3.188h12.283v-4.738
			H-35.271z"/>
	</g>
</g>
<ellipse fill="#FFFFFF" cx="-55.409" cy="652.987" rx="16.42" ry="16.438"/>
</svg>
