<?xml version="1.0" encoding="utf-8"?>
<!-- Generator: Adobe Illustrator 16.0.0, SVG Export Plug-In . SVG Version: 6.00 Build 0)  -->
<!DOCTYPE svg PUBLIC "-//W3C//DTD SVG 1.1//EN" "http://www.w3.org/Graphics/SVG/1.1/DTD/svg11.dtd">
<svg version="1.1"
	 id="Layer_1" xmlns:dc="http://purl.org/dc/elements/1.1/" xmlns:rdf="http://www.w3.org/1999/02/22-rdf-syntax-ns#" xmlns:cc="http://creativecommons.org/ns#" xmlns:sodipodi="http://sodipodi.sourceforge.net/DTD/sodipodi-0.dtd" xmlns:inkscape="http://www.inkscape.org/namespaces/inkscape" xmlns:svg="http://www.w3.org/2000/svg" sodipodi:docname="shield.svg" inkscape:version="0.48.5 r10040"
	 xmlns="http://www.w3.org/2000/svg" xmlns:xlink="http://www.w3.org/1999/xlink" x="0px" y="0px" width="78px" height="78px"
	 viewBox="-305.5 396.5 78 78" enable-background="new -305.5 396.5 78 78" xml:space="preserve">
<sodipodi:namedview  pagecolor="#ffffff" id="namedview3057" borderopacity="1" bordercolor="#666666" objecttolerance="10" gridtolerance="10" guidetolerance="10" showgrid="false" inkscape:zoom="2.36" inkscape:cx="14.958471" inkscape:cy="41.154387" inkscape:current-layer="Layer_1" inkscape:window-maximized="0" inkscape:window-y="233" inkscape:window-x="8" inkscape:pageshadow="2" inkscape:window-height="724" inkscape:pageopacity="0" inkscape:window-width="956" units="pc">
	</sodipodi:namedview>
<path id="path3055-2" inkscape:connector-curvature="0" d="M-266.504,396.5l-29.975,5.514v43.01c0,3.311,1.482,6.887,4.416,10.633
	c2.6,3.312,6.28,6.703,10.938,10.084c5.814,4.203,11.744,7.334,14.622,8.76c2.882-1.426,8.81-4.557,14.625-8.76
	c4.661-3.379,8.336-6.771,10.933-10.084c2.937-3.75,4.424-7.32,4.424-10.633v-43.01L-266.504,396.5z"/>
<path id="path3055" inkscape:connector-curvature="0" fill="#FFFFFF" d="M-266.504,405.368l-21.354,4.26v33.231
	c0,2.559,1.056,5.32,3.146,8.214c1.853,2.56,4.475,5.181,7.792,7.791c4.143,3.25,8.366,5.668,10.417,6.77
	c2.054-1.102,6.278-3.52,10.42-6.77c3.319-2.609,5.938-5.229,7.788-7.791c2.091-2.897,3.15-5.655,3.15-8.214v-33.232
	L-266.504,405.368z"/>
</svg>
